/* XPM */
static char *floor[] = {
/* columns rows colors chars-per-pixel */
"50 50 241 2 ",
"   c #030303",
".  c #0C0403",
"X  c #040A05",
"o  c #0C0C0B",
"O  c #080A08",
"+  c #130905",
"@  c #190B07",
"#  c #0C120C",
"$  c #071109",
"%  c #13120D",
"&  c #1B140D",
"*  c #110F10",
"=  c #0E1412",
"-  c #141413",
";  c #1B1514",
":  c #1C1A15",
">  c #1B1B1A",
",  c #161918",
"<  c #0D0E10",
"1  c #290300",
"2  c #330700",
"3  c #24130C",
"4  c #2C1309",
"5  c #371607",
"6  c #221D1C",
"7  c #291B16",
"8  c #331D15",
"9  c #391E13",
"0  c #1C221E",
"q  c #29231B",
"w  c #382418",
"e  c #282626",
"r  c #3C2921",
"t  c #332928",
"y  c #3A312C",
"u  c #431805",
"i  c #451B0A",
"p  c #581C11",
"a  c #59240F",
"s  c #4C2312",
"d  c #45251B",
"f  c #482719",
"g  c #542513",
"h  c #582A18",
"j  c #532915",
"k  c #652517",
"l  c #702B1B",
"z  c #66331E",
"x  c #75301E",
"c  c #452C25",
"v  c #4F3326",
"b  c #523424",
"n  c #593829",
"m  c #473C37",
"M  c #563D31",
"N  c #722D23",
"B  c #633422",
"V  c #673A25",
"C  c #6B3B26",
"Z  c #653B2A",
"A  c #6B3C2C",
"S  c #693626",
"D  c #733424",
"F  c #733A25",
"G  c #7A3928",
"H  c #70372D",
"J  c #57443A",
"K  c #6D422E",
"L  c #74422D",
"P  c #79422E",
"I  c #6C4D3D",
"U  c #664639",
"Y  c #754532",
"T  c #7B4533",
"R  c #7A4A36",
"E  c #744C39",
"W  c #7A4C3C",
"Q  c #754736",
"!  c #7A513E",
"~  c #5E554F",
"^  c #574844",
"/  c #714F41",
"(  c #7B4E40",
")  c #7D5442",
"_  c #775445",
"`  c #675653",
"'  c #6E584B",
"]  c #766354",
"[  c #7B7472",
"{  c #766D6C",
"}  c #824B35",
"|  c #854E3A",
" . c #894C3B",
".. c #884633",
"X. c #8D533C",
"o. c #83523D",
"O. c #92553D",
"+. c #82442F",
"@. c #845544",
"#. c #8C5442",
"$. c #855944",
"%. c #8D5B45",
"&. c #845C4C",
"*. c #8D5C4B",
"=. c #83564C",
"-. c #955644",
";. c #945944",
":. c #935D4B",
">. c #9B5C4C",
",. c #985B46",
"<. c #885E51",
"1. c #955D51",
"2. c #864E41",
"3. c #A25F48",
"4. c #8D624E",
"5. c #86614E",
"6. c #9B624D",
"7. c #93634F",
"8. c #8B6454",
"9. c #8B6758",
"0. c #946454",
"q. c #9C6553",
"w. c #936956",
"e. c #9C6A55",
"r. c #956A5A",
"t. c #9D6A59",
"y. c #92645A",
"u. c #9D715E",
"i. c #A3644D",
"p. c #AA634E",
"a. c #A36453",
"s. c #AA6753",
"d. c #A46C56",
"f. c #AB6C55",
"g. c #A46D5A",
"h. c #AB6D5A",
"j. c #B26E5C",
"k. c #B06C57",
"l. c #A3735D",
"z. c #AB725C",
"x. c #B3745E",
"c. c #B97A5E",
"v. c #B8765E",
"b. c #836D65",
"n. c #996F61",
"m. c #9B7464",
"M. c #9B7665",
"N. c #907A6F",
"B. c #A66E62",
"V. c #A37463",
"C. c #AD7462",
"Z. c #AC7B65",
"A. c #A47669",
"S. c #A27969",
"D. c #AC7C6B",
"F. c #A47866",
"G. c #B37462",
"H. c #BA7562",
"J. c #B47B65",
"K. c #BB7C65",
"L. c #B47D69",
"P. c #BA7D6A",
"I. c #B37569",
"U. c #C17B6A",
"Y. c #9A8275",
"T. c #AB816B",
"R. c #B28167",
"E. c #B4836B",
"W. c #BB836C",
"Q. c #B98369",
"!. c #AD8273",
"~. c #A58676",
"^. c #B38372",
"/. c #BC8572",
"(. c #BC8A72",
"). c #BC8C7B",
"_. c #B58A79",
"`. c #C2846C",
"'. c #C4886E",
"]. c #C38673",
"[. c #C28C74",
"{. c #C28B79",
"}. c #CA8D7B",
"|. c #CA927E",
" X c #D09279",
".X c #B88F82",
"XX c #B99484",
"oX c #A39087",
"OX c #ACA19C",
"+X c #BDA596",
"@X c #BBADAA",
"#X c #928D8A",
"$X c #CA9786",
"%X c #CD9A8A",
"&X c #C7A596",
"*X c #D3B29F",
"=X c #D3AE9E",
"-X c #DBB7AA",
";X c #D0B3A9",
":X c #E2B9A8",
">X c #D5C1B6",
",X c #E9C4B5",
"<X c #E4C4AF",
"1X c #CCC6C5",
"2X c #DFD5CC",
"3X c #DCD8D6",
"4X c #DAD3D1",
"5X c #DCCCCA",
"6X c #E3D4C9",
"7X c #FEDBCB",
"8X c #F7D6C8",
"9X c #E6D9D6",
"0X c #FDDAD1",
"qX c #F5DDD4",
"wX c #E9E1DF",
"eX c #FFE4D4",
"rX c #FFECDC",
"tX c #FEE6D9",
"yX c #EBE6E4",
"uX c #EEEDED",
"iX c #E7E3E1",
"pX c #FDECE2",
"aX c #F1EEED",
"sX c #F7E8E1",
"dX c #FDF4EA",
"fX c #FEF8ED",
"gX c #F9F3E8",
"hX c #F4F4F4",
"jX c gray96",
"kX c #F6F6F6",
"lX c gray97",
"zX c #F7F6F6",
"xX c #F6F5F5",
"cX c #F5F5F5",
"vX c #FAF6F5",
"bX c #F8F8F8",
"nX c #F9F9F9",
"mX c #F9F8F8",
"MX c #FAFAFA",
"NX c #F9F9F9",
"BX c #F9F8F7",
/* pixels */
"MXlXlXhXhXlXlXlXMXhXmXMXmXMXuXhXhXhXlXmXlXlXlXMXMXMXmXhXlXMXlXhXmXmXlXlXlXhXlXmXhXlXhXlXhXhXNXlXmXNX",
"MXlXhXhXhXhXlXlXmXhXMXmXNXNXaXhXhXhXNXlXlXlXlXbXMXMXlXhXhXlXlXaXlXmXmXlXhXlXlXmXhXlXhXNXhXhXNXjXNXlX",
"MXlXlXhXhXhXMXMXMXjXmXmXNXmXhXmXhXaXaX3X3X1X1X1X1X1X1XyXhXlXlXhXlXlXmXxXhXjXlXlXhXNXhXlXlXhXmXjXNXlX",
"MXlXlXhXhXhXlXMXmXjXmXmXlXvXOXm 6 e 6 ; : % q 6 % 6 > e y y { @X5XmXmXxXhXhXlXlXhXNXhXlXlXhXmXjXNXlX",
"lXMXlXhXhXhXlXlXmXhXmXlXqX` & & . *   < > - o o = , , = = O e 6 ^ @XuXxXhXhXjXBXhXlXhXjXjXhXlXhXNXjX",
"lXlXlXhXhXhXlXMXmXhXhX6Xy @   O O < , * O   # $ $ = = , , <   6 ; 3 b.wXuXhXkXkXlXNXhXlXlXhXlXhXhXhX",
"lXlXlXlXhXhXlXMXMXaXsX' . ; : % *   <   O   - # X $ O = < 0 e - 6 t & [ 5XuXBXBXjXmXhXjXlXhXlXhXjXhX",
"lXMXlXhXhXhXlXMXmXdXoX@ 7 + + $ ; * o * - o X > # # = 0 , > * - - 6 & t ` >XuXBXlXhXhXhXlXhXmXhXNXNX",
"MXMXMXlXlXlXlXbXhX6XM w 4 & & & q 7 & & . + 7 @ : : 6 - > 6 > 6 > : > - : [ 3XaXnXMXhXkXbXuXbXhXNXNX",
"MXlXMXlXlXlXlXhXdXb.M M w f 5 w 9 9 8 8 8 8 8 8 3 3 3 + t 6 ; > - : : - X t OXeXbXMXuXkXbXhXbXhXNXNX",
"lXlXlXlXbXbXbXyX&XU U n I b j s f b n M M M M ^ 9 c c 4 3 3 + * % : 0 0 # - ~ +XhXMXuXkXjXhXbXhXNXNX",
"lXlXlXMXMXMXMXfX~.I + 5.K E E V C A Q ( *.y.y.) 1 Q b s c 4 8 3 3 & & q : O q +XqXbXhXjXjXhXbXhXNXNX",
"lXhXlXlXMXMXlXpX_ 5.5.! 7.o.R } } } | %.t.B.C.).B.g.8.K h v 1 4 4 3 7 y w & q ] 8XuXhXjXbXhXbXhXNXNX",
"lXlXhXlXMXMXlX8XI w.$.l.4.6.f.O.O.,.>.s.h.C.C.P.L.P.e.X.1.A n 2 5 5 v U J w 8 J >XyXuXkXbXhXbXhXlXNX",
"MXlXhXlXMXMXMX8XI 8.M.w.d.z.O.3.3.3.i.s.j.I.H.f. X6.x.d.%.X.G z j g I 5.I b w w ;XyXhXkXbXhXbXhXNXNX",
"MXlXhXhXMXMXMX;Xr.M.u.w.d.6.c.p.p.s.3.s.h.H.U.K.v.c.Q.c.x.6.d.:.%.R 4.w.E K f e #XyXuXbXbXhXbXhXNXNX",
"nXbXkXkXbXnXbX<X8.S.r.l.z.i.i.s.j.v.v.j.j.H.P.H.k.'.c.c.c.Q.f.f.z.d.z.e.R C f r [ 9XhXmXMXbXMXhXhXhX",
"nXbXhXhXbXnXbX).9.u.l.l.6.f.x.x.v.v.j.j.K.P.P.H.v.c.K.`.`.J.x.z.z.d.z.d.%.L j w ~ yXhXMXMXbXMXhXhXhX",
"nXbXhXhXbXnXMX<XM.u.w.e.d.l.f.z.x.v.U.H.W.].`.'.`.`.K.K.R.c.x.x.z.l.z.z.6.X.V d ^ 9XhXMXMXbXbXhXhXjX",
"nXkXhXhXkXbXMX&X8.S.V.l.Z.z.z.x.x.x.K.K.P.L.P.Q.Q.Q.Q.J.J.R.Q.z.z.d.d.d.d.6.K w m 2XhXMXMXbXMXhXjXhX",
"nXkXhXhXjXbXbX,XM.M.u.w.l.d.C.J.x.z.x.G.z.J.L.L.L.E.E.W.Q.(.(.Z.K.l.z.z.z.6.L w m 5XjXbXMXbXMXhXjXjX",
"nXkXhXhXbXMXbXfX~.] 9.r.V.0.l.z.h.h.z.z.z.G.L.D.Z.Z.Z.T.R.E.E.Z.W.R.T.J.R.z.R w J 6XjXbXbXbXMXjXjXhX",
"nXbXhXkXBXMXMXtXY.U I ) @.W :.a.g.g.h.z.z.d.e.4.$.W R o.%.w.e.l.R.R.Q.Q.Q.x.$.w ~ 2XuXbXbXjXMXbXjXjX",
"MXbXhXkXBXMXMXdX+XJ v f i s V  .:.6.6.6.:.| G h j s i j B L ! %.e.l.E.Q.Q.Q.7.v N.2XuXbXbXjXMXbXNXlX",
"bXbXbXkXkXbXbXfX-X' n d 5 2 2 h P #.#.X.X.F g i 5 5 u u s z K o.w.l.R.Q.Q.Q.u.I oX2XhXlXMXlXjXbXMXMX",
"bXkXkXkXbXkXbX4X>Xb.M / _ u i g a F | :.P z h s j ) n 2 h K a K o.l.R.(.Q.R.l.&.&X8XjXbXMXlXlXbXMXMX",
"kXbXkXkXlXlXbXaXqXN./ / ( A B a k | a.L.,.} F h s ! &.E ! R R X.e.R.(.(.(.R.Z.~.;X9XjXbXbXbXbXMXMXjX",
"bXkXbXkXlXlXnXkXdXoX<.] ( Z H T P :.z.].G.g.0.1.V K Y R 4.4.l.R.(.(.[.(.(.R.R.m.0X3XlXbXbXbXbXMXNXjX",
"lXlXlXkXlXlXbXbXpXXXn.n.0.Y *.1.,.a.C.].P.P.P.D.q.*.| :.l.l.(.[.[.[.).(.W.R.Z..X0XyXmXmXbXMXMXMXjXjX",
"lXlXlXkXlXlXbXnXeX.XM.r.y.t.>.a.6.h.L.}.].].P.P.W.K.g.h.J.J.(.[.[.(.(.(.E.T.T.&X0XaXmXmXbXMXMXMXlXjX",
"lXlXlXkXlXlXbXnXfX&Xr.V.%.q.a.a.a.I.P.$X{.].P.P.P.K.x.d.i.d.K.(.(.(.(.E.E.R.E.<XsXjXmXmXlXMXMXMXjXjX",
"lXlXlXkXlXlXbXnXpX:XA.D.g.>.C.a.3.j.H.}.}.}.P.k.x.H.`.K.f.f.f.Q.R.Q.(.R.T.R.!.,X9XlXMXmXMXMXMXMXlXjX",
"bXbXbXbXbXnXnXMXMX-X.X1.L.C.h.>.>.j.U.$X}.U.x.3.s.j.H.H.K.`.J.J.K.E.Q.R.Z.D.^.eXwXjXbXbXMXbXMXMXNXjX",
"nXnXbXbXbXnXnXMXMXtX$XA.B.B.B.a.j.I.P.$X$XU.W.h.-.d.`.`.`.c.Q.K.'.W./.Z.E.^.).rXuXjXbXbXbXMXMXMXhXhX",
"nXnXnXbXbXbXnXnXMXrX=X_.I.1.B.>.a.j.P.U.U.x.h.6.X.d.x.K.].'.'.}.W.J.Z.).B.A.%XdXuXjXbXbXbXMXMXMXhXhX",
"MXnXnXbXbXbXbXbXMXrX8XD.A.I.B.>.-.-.>.-...G F -.,.z.f.f.`.'.`.}.K././.^.A.$X,XpXhXjXbXbXbXbXMXMXhXhX",
"MXMXnXbXbXbXnXbXMXlX7X&XD.n.1.1.#. . .G G ..-.3.x.K.j.j.K.].].W.E.|.).C.!._.8XaXjXjXbXbXMXbXMXMXuXuX",
"MXMXnXbXbXbXnXnXMXlXrX7Xn.A.y.t.2.2. .G ..3.U.j.K.K.v.v.x.K.P.W.$XZ.V._.D.:XpXmXhXjXbXMXbXMXMXMXhXuX",
"nXnXbXbXbXnXnXMXMXlXhX7X,X9.<.1.1.1.1.>.3.j.U.U.`.v.H.H.j.G.J.C.{.^.D.D.m.:XhXMXhXjXbXbXbXMXMXMXhXuX",
"nXnXbXbXbXnXnXMXMXlXbXMX7X%XM.) =.2.1.s.j.j.U.j.U.p.k.H.x.J.P./.D.D.r.n.-XtXMXMXhXjXbXMXbXbXMXMXhXhX",
"MXbXhXhXbXMXMXbXlXhXlXhXMXeXw.K Z h g N G l l G ..G ..a.s.C.C.C.A.C.m.).qXuXnXbXuXuXjXMXMXnXnXMXhXhX",
"MXbXhXhXbXMXMXbXlXhXlXhXMXfX*XI ) Z S p N N N N x G .. .#.B.t.B.r.r.A.,XwXbXnXbXhXjXjXbXMXbXMXMXuXhX",
"MXlXhXlXbXMXMXbXlXhXMXhXMXkX8XT.K Q H 2.p H N ....O.-.| T @.@.0.*.n.-XaXhXbXnXnXjXhXjXbXMXbXnXMXhXhX",
"bXhXhXhXbXMXMXMXlXhXMXhXMXkXbX7X9.=.Z h S k H H F +.T | Q 2.@.) _.-XbXhXhXbXMXnXjXhXhXbXMXbXbXnXjXhX",
"hXhXhXbXbXbXbXbXbXhXMXhXMXlXMXaX8X<.( Q ( 1.T Y P R T o.W W &..XqXmXMXNXkXnXnXnXkXhXhXbXMXnXbXnXhXhX",
"hXlXhXbXlXbXbXMXMXlXbXhXMXMXMXhXuX8Xn.y.1.&.^.M.F.w.) ) 8.M.=XsXlXMXmXlXkXnXMXnXkXhXhXkXMXMXnXnXlXhX",
"hXlXbXbXlXlXlXlXbXhXMXlXMXhXbXhXhXwX0X.X9.n.8.T.~.u.~.$X>X-XbXuXlXMXmXNXlXnXMXnXkXhXhXkXMXMXMXMXMXjX",
"hXhXlXbXbXhXlXlXMXlXMXhXMXhXlXhXhXjXhXdXsX:X<X-X<X*X7XtXrXnXbXuXlXmXhXaXbXMXMXnXlXaXaXbXMXMXMXMXNXhX",
"bXMXaXbXbXaXMXMXnXhXnXhXMXhXhXhXkXuXMXhXMXlXhXnXlXMXlXhXnXlXhXhXNXmXNXhXNXMXMXNXhXlXhXlXlXhXlXhXMXlX",
"bXbXhXbXbXhXMXMXMXhXnXhXMXuXkXkXhXuXMXhXMXlXkXnXlXMXhXhXMXlXhXlXNXmXlXlXlXMXMXNXhXNXhXlXlXhXlXhXMXhX"
};
