/* XPM */
static char *result[] = {
/* columns rows colors chars-per-pixel */
"64 64 247 2 ",
"   c #140C0C",
".  c #140A0B",
"X  c #1B0E11",
"o  c #120D13",
"O  c #1C1313",
"+  c #1C141A",
"@  c #191519",
"#  c #0F0A0F",
"$  c #221415",
"%  c #231519",
"&  c #241B1A",
"*  c #2A1B1D",
"=  c #231918",
"-  c #2A201E",
";  c #2B1E23",
":  c #261B23",
">  c #311E23",
",  c #2D2223",
"<  c #2B252A",
"1  c #332425",
"2  c #34242A",
"3  c #352A2B",
"4  c #3B2B2C",
"5  c #38262A",
"6  c #3C2B32",
"7  c #362C33",
"8  c #3A3337",
"9  c #322B33",
"0  c #1E1B22",
"q  c #462D35",
"w  c #433233",
"e  c #46323C",
"r  c #49353C",
"t  c #4D3B3C",
"y  c #483637",
"u  c #55393C",
"i  c #4E282D",
"p  c #613A3F",
"a  c #53403F",
"s  c #3C3B45",
"d  c #1C3F62",
"f  c #4D3B43",
"g  c #473C45",
"h  c #523B43",
"j  c #563D48",
"k  c #643F45",
"l  c #3C4654",
"z  c #284969",
"x  c #294E71",
"c  c #2B567A",
"v  c #2A5276",
"b  c #335778",
"n  c #35506C",
"m  c #1D486C",
"M  c #46424A",
"N  c #544243",
"B  c #5B444B",
"V  c #5D4A4C",
"C  c #57444A",
"Z  c #4A4A54",
"A  c #5B4852",
"S  c #57535B",
"D  c #4E505B",
"F  c #64474B",
"G  c #634D53",
"H  c #674C58",
"J  c #655256",
"K  c #69545B",
"L  c #67545B",
"P  c #75545B",
"I  c #714E56",
"U  c #595967",
"Y  c #4A5B6F",
"T  c #695966",
"R  c #765B68",
"E  c #785E70",
"W  c #5D6474",
"Q  c #506176",
"!  c #77626B",
"~  c #676978",
"^  c #796472",
"/  c #796876",
"(  c #767279",
")  c #636168",
"_  c #84646E",
"`  c #836877",
"'  c #86717D",
"]  c #2D5C82",
"[  c #335E84",
"{  c #35648B",
"}  c #396588",
"|  c #3C6C92",
" . c #366F94",
".. c #3D739A",
"X. c #2D6691",
"o. c #446889",
"O. c #5A7188",
"+. c #457599",
"@. c #5A7B9C",
"#. c #577897",
"$. c #4D6E8B",
"%. c #6D7586",
"&. c #737B8B",
"*. c #767684",
"=. c #6F7B8D",
"-. c #4C7DA2",
";. c #447AA4",
":. c #876E82",
">. c #8D7B8C",
",. c #887485",
"<. c #937A8C",
"1. c #957D92",
"2. c #997E94",
"3. c #8D7D97",
"4. c #6B8298",
"5. c #7A8495",
"6. c #7C8799",
"7. c #7E8A9B",
"8. c #758193",
"9. c #7D818F",
"0. c #4D84AB",
"q. c #4A82A8",
"w. c #5589AD",
"e. c #5786A9",
"r. c #558CB3",
"t. c #598EB4",
"y. c #5B93B9",
"u. c #4B8AB7",
"i. c #6887A9",
"p. c #698DB2",
"a. c #6494BA",
"s. c #7496B9",
"d. c #7C95AA",
"f. c #5B99C6",
"g. c #549BD0",
"h. c #669BC7",
"j. c #739DC5",
"k. c #639FD0",
"l. c #5CA3D8",
"z. c #77A2CC",
"x. c #67A4D6",
"c. c #7AA7D6",
"v. c #68A0CC",
"b. c #68ABE4",
"n. c #77B4EC",
"m. c #79B8F4",
"M. c #71B0EA",
"N. c #5BACE5",
"B. c #818C9D",
"V. c #848896",
"C. c #968292",
"Z. c #9A8495",
"A. c #9B8799",
"S. c #948993",
"D. c #A18B9D",
"F. c #A28797",
"G. c #A8909F",
"H. c #838EA1",
"J. c #888FA2",
"K. c #8592A4",
"L. c #8D9AAB",
"P. c #8995A8",
"I. c #949AA9",
"U. c #9494AF",
"Y. c #A38CA2",
"T. c #A88FA5",
"R. c #A592A5",
"E. c #AA94A5",
"W. c #AA95AA",
"Q. c #AD99AA",
"!. c #A696A9",
"~. c #B19DAD",
"^. c #B096AB",
"/. c #AB9BB1",
"(. c #B29EB1",
"). c #95A2B4",
"_. c #9BAABC",
"`. c #99A6B8",
"'. c #98A1AE",
"]. c #A4ACB9",
"[. c #B6A2B4",
"{. c #BAA5B5",
"}. c #B6A4B9",
"|. c #B9A6B9",
" X c #BBAABC",
".X c #B7A8BB",
"XX c #B0ABB4",
"oX c #C2B0BB",
"OX c #86A6CC",
"+X c #9EACC1",
"@X c #86ACD7",
"#X c #95B4D8",
"$X c #8EB1D9",
"%X c #A1ADC2",
"&X c #ADAAC6",
"*X c #BEAEC1",
"=X c #B7A9C5",
"-X c #A4B2C5",
";X c #AAB6C5",
":X c #ADBBCC",
">X c #A8B5CA",
",X c #B9B7C5",
"<X c #AEBDD1",
"1X c #A8B5D7",
"2X c #B2BED2",
"3X c #B4B9D6",
"4X c #88B4E3",
"5X c #95B9E5",
"6X c #81BEFC",
"7X c #A7BDE2",
"8X c #C1AFC2",
"9X c #C2B3C5",
"0X c #C3B5C9",
"qX c #C6BACC",
"wX c #C8BCCE",
"eX c #CABDD1",
"rX c #B4C2D4",
"tX c #B9C6D5",
"yX c #B6C3D9",
"uX c #BAC6DB",
"iX c #BCC9DC",
"pX c #BDC8D2",
"aX c #B9C2CC",
"sX c #9BC1EC",
"dX c #84C3FC",
"fX c #BECCE1",
"gX c #A2C3EE",
"hX c #CAC8D5",
"jX c #CBD1DB",
"kX c #D5D7DB",
"lX c #CFC8D2",
"zX c #C1CDE3",
"xX c #C9D6E9",
"cX c #CDDBF1",
"vX c #D1DEF4",
"bX c #D9D8E1",
"nX c #D9E5F6",
"mX c #DEE1E5",
"MX c #EBEBED",
"NX c #E5E6E9",
"BX c #E9EEF4",
"VX c #EEF2F6",
"CX c #F4F4F5",
"ZX c #F5F6F9",
"AX c #FFFFFF",
"SX c #F8F8FA",
"DX c #F0EFEF",
/* pixels */
"AXAXAXAXAXAXAXAXAXAXAXAXAXAXAXAXAXAXAXAXAXAXAXAXAXAXAXAXAXAXAXAXAXAXAXAXAXAXAXAXAXAXAXAXAXAXAXAXAXAXAXAXAXAXAXAXAXAXAXAXAXAXAXAX",
"AXAXAXAXAXAXAXAXAXAXAXAXAXAXAXAXAXAXAXAXAXAXAXAXAXAXAXAXAXAXAXAXAXAXAXAXAXAXAXAXAXAXAXAXAXAXAXAXAXAXAXAXAXAXAXAXAXAXAXAXAXAXAXAX",
"AXAXAXAXAXAXAXAXAXAXAXAXAXAXAXAXAXAXAXAXAXAXAXAXAXAXAXAXAXAXAXAXAXAXAXAXAXAXAXAXAXAXAXAXAXAXAXAXAXAXAXAXAXAXAXAXAXAXAXAXAXAXAXAX",
"AXAXAXAXAXAXAXAXAXAXAXAXAXAXAXAXAXAXAXAXSXAXSXBXnXnXVXSXAXAXAXAXAXAXAXAXAXAXAXAXAXAXAXAXAXAXAXAXAXAXAXAXAXAXAXAXAXAXAXAXAXAXAXAX",
"AXAXAXAXAXAXAXAXAXAXAXAXAXAXAXAXAXAXSXSXAXVXnXvXvXcXcXcXnXSXAXAXAXAXAXAXAXAXAXAXAXAXAXAXAXAXAXAXAXAXAXAXAXAXAXAXAXAXAXAXAXAXAXAX",
"AXAXAXAXAXAXAXAXAXAXAXAXAXAXAXAXAXCXAXZXnXcXcXvXvXnXcXcXcXcXvXnXBXBXZXAXAXAXAXAXAXAXAXAXAXAXAXAXAXAXAXAXAXAXAXAXAXAXAXAXAXAXAXAX",
"AXAXAXAXAXAXAXAXAXAXAXAXAXAXAXAXSXAXVXxXfXfXyX2X<X>X>X-X+X#X>X1X<XyXzXxXnXVXAXAXAXAXAXAXAXAXAXAXAXAXAXAXAXAXAXAXAXAXAXAXAXAXAXAX",
"AXAXAXAXAXAXAXAXAXAXAXAXAXAXSXAXSXVXuX>X+X+X%X>X-X+X+X).).L.P.P.P.P.L.`.%X:XxXZXAXAXAXAXAXAXAXAXAXAXAXAXAXAXAXAXAXAXAXAXAXAXAXAX",
"AXAXAXAXAXAXAXAXAXAXAXAXAXSXBXhX:X2X2XyXfXuXuXyXyXyXyXyX:X2X<X>X-X_.L.K.7.7.7.P.2XCXAXAXAXAXAXAXAXAXAXAXAXAXAXAXAXAXAXAXAXAXAXAX",
"AXAXAXAXAXAXAXAXAXAXSXSXNXaX:XrXtXtXfXfXzXzXzXzXfXfXfXfXuXuXyX2X<X-X+X+X).).P.7.8.7.aXDXAXAXAXAXAXAXAXAXAXAXAXAXAXAXAXAXAXAXAXAX",
"AXAXAXAXAXAXAXAXAXSXNX:X-XtXrXtXiXiXfXuXuXuX3XyX<X<X<X2X2XrX2X2X:X:X:X:X>X_.).U.P.7.8.&.I.kXCXAXAXAXAXAXAXAXAXAXAXAXAXAXAXAXAXAX",
"AXAXAXAXAXAXAXAXCXjX+X2XrXiXiXtXyXuXuXfXfXuXiXyX2XrX2X<X<X2X2X2X:X>X-X-X-X%X+X`.).K.K.7.8.=.7.,XMXAXAXAXAXAXAXAXAXAXAXAXAXAXAXAX",
"AXSXSXAXAXAXAXMX;X].:XrXtXrXtXtXuXuXyX3X2X1X+X+X+X+X+X`.+X%X%X%X-X-X>X>X>X+X_.`.).L.L.K.B.5.8.=.5.].DXAXAXAXAXAXAXAXAXAXAXAXAXAX",
"AXAXAXAXAXAXmX)._.:XrXrXaXtXiXtX2X2X;X].).P.K.3.7.7.7.H.J.P.L.).)._._.).).).).).L.L.P.P.K.B.7.6.8.=.K.NXAXAXAXAXAXAXAXAXAXAXAXAX",
"AXAXAXAXAXkXL._.;XrX<XrXtX:X:X:X_.P.&.~ W T T U S L U U T U ~ ~ &.&.&.B.H.J.P.P.K.H.K.K.B.B.H.7.5.5.8.7.mXAXAXAXAXAXAXAXAXAXAXAX",
"AXSXAXAXkXK.L.-X:X:XrX;X_.I.8.~ M 7 ; : % X X % X X $ % * > ; 2 9 s Z U U O.*.&.5.6.6.6.B.B.B.B.B.B.5.6.7.mXAXAXAXAXAXAXAXAXAXAX",
"AXAXSXSX'.K._.;X;X:X_.).5.W Z ; . $ $ * * 1 5 4 > > 5 e f w 6 > $ X O + < l D ) ~ %.8.8.5.7.7.7.B.B.6.6.6.H.NXAXAXAXAXAXAXAXAXAX",
"AXAXAXhX5.).-X_.-X).7.~ S r = X O , 1 5 w t B J E :.2.W.W.A.<._ I h , &   # @ 0 l U W ~ &.8.8.8.6.B.H.B.7.7.7.jXAXAXAXAXAXAXAXAX",
"AXAXAXV.7.).`._.P.8.) M 9   O = > 4 h L / Z./.}.=X0XeXjXeX X(.E.F.<.! t 8 - O     @ s Y W %.8.8.5.6.7.H.K.7.7.6.].CXAXAXAXAXAXAX",
"AXAXkX&.d.).`.P.=.U M 3   O 1 y G ` C.R.}. XqXwXeXeXlXjX0X8X{.{.(.Q.D.,.V 7 - - & @   @ 8 U ~ %.&.5.6.7.H.K.7.7.6.'.AXAXAXAXAXAX",
"AXAXaXXXH.L.L.( U g 7 O $ y ^ C.A.Q.[. XqXwXwXwXeXhXhXwX9X X{.~.[.~.~.G.' a - - - 3 O     & l W %.=.5.6.7.H.K.7.7.5.jXAXAXAXAXAX",
"AXAXkX].H.K.8.U M 8 O X j C.^.{. X X X X9XqX9XqX0XeXqX0X X{.{.[.[.~.~.~.S.J 8 , - 3 - O O   @ 8 U ~ &.5.7.B.K.H.7.V.P.AXAXAXAXAX",
"AXAXSXL.8.8.W Z 7 +   t Z.[.{.oX9X X X X9X*XoXqX0XwXwX0X9X|.{.[.{.~.Q.G.G.! w 4 - 3 3 & = O O   0 Z W %.5.7.B.H.K.7.5.kXAXAXAXCX",
"AXAXAX( 8.~ D 8 ;   , ` E.[.{. X X X X X X X9X9X0XqXqX0X9X X X|.~.~.Q.E.S.' a w 4 3 4 - & & & & o + s W %.6.5.B.B.7.6.'.AXAXCXAX",
"AXAXDX~ ~ Y M 8 = O V S.E.~.[.{.|. X|.|. X=XoX8X0XqXqXqX9X8X*X X{.~.~.E.D.,.J w t 3 4 4 - - & = &   @ 8 W %.6.7.B.B.7.V.CXSXAXAX",
"AXAXNXW U D l 3 = O ^ S.D.R.Q.[.|.|..X{. X=X X8X0X0XqXqX0X8X8X X{.{.[.[.Q.C.! t t w w w 3 , - & - - & & 8 ) %.5.B.H.H.5.XXAXAXAX",
"AXAXMXS S Z l 3 = = ' S.D.E.^.(.[. X X{.8X|.|.|..X X*X X}..X=X(. X X X.X[.Q.Z.G y t w t w 4 - - & & - - 3 g ) %.5.H.B.7.].AXAXAX",
"AXAXMXZ D Z 8 3 = $ ' C.Z.G.Q.[.|. X X}.(.(.(.T.W.W.Y.!.W./.(./.XX{.{. X{.~.G.! t a w a a 4 4 - - & = = & 3 f ) &.V.B.V.lXAXAXAX",
"AXAXCXD Z l s 3 = O ) C.Z.E.(.}.}.[.(././.W.Y.2.>.>.,.<.1.:.:.E / :.:.>.C.C.C./ N a y a V w w 4 , - O O $ - w V ( 9.B.V.CXAXAXAX",
"AXAXAXS.Z M s 3 - O V C.Y.E.(./.W.W.T.T.Y.A.2.:.E R R T j e 5 q g g A H L T ^ / V t a a J t w 4 3 3 - O = u k J ( 9.B.!.AXAXAXAX",
"AXAXAXCX( Z s 3 - O M ,.D.R.E.Y.A.3.>.2.1.1.:.E H j j q 5 5 5 6 2 6 6 g j B A K a w a a J N y y 4 1 - 1 u P F V ~ 7.5.mXAXAXAXAX",
"AXAXAXAXXXS Z 8 - @ 8 S.I.Q.R.Z.,.^ T R E / E T j f r q q 6 : $ + o o o : ; 4 N t y a a J K a a t w y a F I _ P ~ 9.XXAXAXAXAXAX",
"AXAXAXAXSXMXDX) 3 + , S.U.A./ B e f f h f j j H j j e q i > : : 9 o o : 9 2 2 e F N N a K ! N V a y t N k F _ _ / ( MXAXAXAXAXAX",
"AXAXAXAXAXAXAXlXM , : >./ C 6 ; * % % > 2 q f j H j j e > : : 2 s 9 9 e j g j *.' ! V N V ! V J J a a F k I _ I C.mXAXAXAXAXAXAX",
"AXAXAXAXAXAXAXAX( 3 < T C 4 ; , : $ X X $ : q E :.E j e 2 > : : 9 e f e j T :.2.F.' V V N ! V J ,.V a u i p I I XXAXAXAXAXAXAXAX",
"AXAXAXAXAXAXAXAXMX( < f 3 2 , @ . # # X X X f 2.^.3.H j e 6 2 9 6 g f A *.3.2.^.Q.S.J V N J J J ( V F w i i p _ {.AXAXAXAXAXAXAX",
"AXAXAXAXAXAXAXAXAXAX( 4 1 * X & : # o + X % f =XeX=X2.:.E H A H T %.:.<.2.(. X|.Q.A.R a t J K L ) K J u i i i _ lXAXAXAXAXAXAXAX",
"AXAXAXAXAXAXAXAXAXAXmXt 1 % . : < + + : : > R =XeXeX=X2.2.2.2.2.2.T.T.W.}.=X|.(.R.Z._ N y K / T J R J h p i p _ CXAXAXAXAXAXAXAX",
"AXAXAXAXAXAXAXAXAXAXAXS.4 = % 2 6 2 > : : e 2.8XeX8X{.^.^.2.2.2.2.=X(.=X=X}.|.^.G.A.A.~ M ( ( S V ! a u _ P _ F.AXAXAXAXAXAXAXAX",
"AXAXAXAXAXAXAXAXAXAXAXCXV 1 2 4 2 > > g p _ 2.{.8X=X^.^./.2.^.T.2.=X(.=X8X0X3X1X>X#X@XO.l ~ ,.A V ! I P _ _ R oXAXAXAXAXAXAXAXAX",
"AXAXAXAXAXAXAXAXAXAXAXAXlXw y h j j H E T *.:.2.}.^.T.2.3.3.3.+X7X7X7X5X4X@X@X@X@Xj.j.@.l U T A G F I P _ _ F.SXAXAXAXAXAXAXAXAX",
"AXAXAXAXAXAXAXAXAXAXAXAXAXS.K ^ :.:.:.:.:.:.2.=X3X7X7X7X5X5X4X4X$X4X$X5X5X5X5X4XOXj.OX@.Y D ( S G N P ! ` ' NXAXAXAXAXAXAXAXAXAX",
"AXAXAXAXAXAXAXAXAXAXAXAXAXDX<.<.2.2.2.2.U.OX5X5X5X5X4X5X7X7X5X7X5X4X@Xz.j.j.h.h.j.s.j.@.o.l ~ K F u I _ F.MXAXAXAXAXAXAXAXAXAXAX",
"AXAXAXAXAXAXAXAXAXAXAXAXAXNX!./.&X#X@Xj.p.s.5X5X7X5X5X4Xc.z.c.x.z.j.z.c.c.c.z.z.j.j.j.@.Q l T T F B ! _ CXAXAXAXAXAXAXAXAXAXAXAX",
"AXAXAXAXAXAXAXAXAXAXAXAXCX3X=.p.p.j.OX$X@Xs.p.OXc.@X4X@X@X4X4Xc.@XM.c.z.h.h.f.p.p.a.p.e.$.l U ^ V R !.DXAXAXAXAXAXAXAXAXAXAXAXAX",
"AXAXAXAXAXDXDXMXSXCXCXAXCXeXs.p.s.s.p.@.@.@.s.OXj.c.4X4Xn.n.M.b.k.k.h.a.f.p.p.k.x.h.t.-.#.n W ~ V ( ,XSXAXAXAXAXAXAXAXAXAXAXAXAX",
"AXAXAXAXAXAXAXAXAXAXAXSXSXBX@.@.@.#.@.p.@.k.k.-.o.+.p.M.6Xn.M.m.6XM.b.z.h.a.p.y.h.f.y.e.e.Q -.( V ' mXSXAXAXAXAXAXAXAXAXAXAXAXAX",
"AXAXAXAXAXAXAXAXAXAXAXSXSXVXs.@.$.o.o.+.;.b.b.-.+.{ +.h.M.M.m.m.6X6X6X6Xm.b.k.y.y.h.k.f.t.Q -.%.) lXAXAXSXAXAXAXAXAXAXAXAXAXAXAX",
"AXAXAXAXAXAXAXAXAXAXAXAXAXSXpXb x x c [ g.b.l.-.-.o.| -.x.M.m.m.6XdXdXdXdXdXm.M.x.l.f.0.q.b +.#.S.SXAXAXSXAXAXAXAXAXAXAXAXAXAXAX",
"AXAXAXAXAXAXAXAXAXAXAXAXAXAXSX@.x x v  .N.N.g.-.-.+.| | r.b.m.m.6XdXdXdXdXm.b.k.f.0.;. . .b +. .`.SXAXAXSXAXAXAXAXAXAXAXAXAXAXAX",
"AXAXAXAXAXAXAXAXAXAXAXAXAXAXSXd. .c ] g.l.;.;.;.-.+.X.{ +.g.m.6Xn.l.f.u.u.q.q.0.r.r.w.0.e.b q.$.rXAXAXAXAXAXAXAXAXAXAXAXAXAXAXAX",
"AXAXAXAXAXAXAXAXAXAXAXAXAXAXAX#Xu.X.u.g.X.] c  .;.;.+.{ [ ;.f.f.y.r.r.0.0.0.t.w.y.y.y.y.w.o.t.P.SXAXAXAXAXAXAXAXAXAXAXAXAXAXAXAX",
"AXAXAXAXAXAXAXAXAXAXAXAXAXAXAXxX0...X.] v m m ] +.-.+.{ [ { -.f.y.y.y.u.w.w.r.y.y.a.w.q.e.Q q.aXAXAXAXAXAXAXAXAXAXAXAXAXAXAXAXAX",
"AXAXAXAXAXAXAXAXAXAXAXAXAXAXAXAXNX$.d m x m v ] { +.+.{ ] [ ;.-.f.f.y.y.y.y.f.v.a.q.q.w.e.Q 4.MXAXAXAXAXAXAXAXAXAXAXAXAXAXAXAXAX",
"AXAXAXAXAXAXAXAXAXAXAXAXAXAXAXAXAXkX=.o.] ] { } { { +.| [ ] ] | r.f.f.f.v.l.h.w.e.e.e.w.$.O.;XAXAXAXAXAXAXAXAXAXAXAXAXAXAXAXAXAX",
"AXAXAXAXAXAXAXAXAXAXAXAXAXAXAXAXAXAXAXCXaX| { { ] [ o.+.[ ] ] ] +.y.y.x.x.w.w.w.e.e.w.e.O.7.CXAXAXAXAXAXAXAXAXAXAXAXAXAXAXAXAXAX",
"AXAXAXAXAXAXAXAXAXAXAXAXAXAXAXAXAXAXAXAXAX_.} c v c } ..| b c v { +.w.y.w.w.t.w.e.e.e.O.O.jXAXAXAXAXAXAXAXAXAXAXAXAXAXAXAXAXAXAX",
"AXAXAXAXAXAXAXAXAXAXAXAXAXAXAXAXAXAXAXAXAXSXL.c c v [ o.+.[ c v c } q.w.t.r.t.w.e.e.e.8.].SXAXAXAXAXAXAXAXAXAXAXAXAXAXAXAXAXAXAX",
"AXAXAXAXAXAXAXAXAXAXAXAXAXAXAXAXAXAXAXAXAXAXAX`.x z x [ | } b v x b q.w.e.q.q.0.e.e.@.jXSXAXAXAXAXAXAXAXAXAXAXAXAXAXAXAXAXAXAXAX",
"AXAXAXAXAXAXAXAXAXAXAXAXAXAXAXAXAXAXAXAXAXAXAXAXhXb z z [ } b b x v } $.| +.$.q.q.e.hXAXAXAXAXAXAXAXAXAXAXAXAXAXAXAXAXAXAXAXAXAX",
"AXAXAXAXAXAXAXAXAXAXAXAXAXAXAXAXAXAXAXAXAXAXAXAXAX].n z z n b x z n b b b  .$.+.d.bXAXAXAXAXAXAXAXAXAXAXAXAXAXAXAXAXAXAXAXAXAXAX",
"AXAXAXAXAXAXAXAXAXAXAXAXAXAXAXAXAXAXAXAXAXAXAXAXAXAXNX_.4.z b b x n b v b b b 4.DXSXAXAXAXAXAXAXAXAXAXAXAXAXAXAXAXAXAXAXAXAXAXAX",
"AXAXAXAXAXAXAXAXAXAXAXAXAXAXAXAXAXAXAXAXAXAXAXAXAXAXAXAXAXDXkX;XaXK.$.d.-XaXtXSXSXAXAXAXAXAXAXAXAXAXAXAXAXAXAXAXAXAXAXAXAXAXAXAX",
"AXAXAXAXAXAXAXAXAXAXAXAXAXAXAXAXAXAXAXAXAXSXAXAXAXAXAXAXAXAXAXAXAXAXSXAXAXAXAXAXAXAXAXAXAXAXAXAXAXAXAXAXAXAXAXAXAXAXAXAXAXAXAXAX"
};
