/* XPM */
static char *result[] = {
/* columns rows colors chars-per-pixel */
"64 64 120 2 ",
"   c #555443",
".  c #585645",
"X  c #5E5C4B",
"o  c #605E4E",
"O  c #645F52",
"+  c #656253",
"@  c #6A6755",
"#  c #6C6A56",
"$  c #686458",
"%  c #6D6B5B",
"&  c #726F5D",
"*  c #757363",
"=  c #797666",
"-  c #7B7966",
";  c #767468",
":  c #79756C",
">  c #7C7A6C",
",  c #7F7C72",
"<  c #817F6D",
"1  c #817E73",
"2  c #81806D",
"3  c #868474",
"4  c #898775",
"5  c #8B8A76",
"6  c #8A857C",
"7  c #8D8C7B",
"8  c #908E7D",
"9  c #91907D",
"0  c #8F8D80",
"q  c #918F81",
"w  c #959384",
"e  c #989685",
"r  c #9B9A85",
"t  c #979588",
"y  c #99978B",
"u  c #9D9B8B",
"i  c #9F9C90",
"p  c #A19E8D",
"a  c #A19E92",
"s  c #A3A28E",
"d  c #A8A78F",
"f  c #A5A392",
"g  c #A9A795",
"h  c #ABA996",
"j  c #A7A59B",
"k  c #A9A699",
"l  c #ADAB9A",
"z  c #B1AF9C",
"x  c #B3B29E",
"c  c #AFAEA2",
"v  c #B1AEA1",
"b  c #B5B4A2",
"n  c #B8B7A4",
"m  c #BBB9A6",
"M  c #B5B5A9",
"N  c #B9B6AA",
"B  c #BDBBAA",
"V  c #BDBCB2",
"C  c #C0BEAC",
"Z  c #C1BEB1",
"A  c #C0BFB8",
"S  c #BEC0AD",
"D  c #C3C1AD",
"F  c #C5C4B3",
"G  c #C9C6B4",
"H  c #C7C8B4",
"J  c #CBCAB5",
"K  c #C4C4BA",
"L  c #C9C6BA",
"P  c #CDCCBA",
"I  c #D1CEBC",
"U  c #CED1BC",
"Y  c #D3D2BE",
"T  c #CECDC0",
"R  c #CBCAC8",
"E  c #D1CEC2",
"W  c #D5D4C2",
"Q  c #D8D7C4",
"!  c #D7D9C4",
"~  c #DBDAC5",
"^  c #D4D3CB",
"/  c #D9D7CA",
"(  c #DDDDCA",
")  c #D7D7D3",
"_  c #DDDCD2",
"`  c #DDDDD8",
"'  c #E0DFCC",
"]  c #E1DED2",
"[  c #E0DFDA",
"{  c #DFE0CD",
"}  c #DFE0D1",
"|  c #DFE0DA",
" . c #E2E1CE",
".. c #E3E3D2",
"X. c #E8E7D5",
"o. c #E7E8D7",
"O. c #EAE9D6",
"+. c #E4E3DB",
"@. c #E8E6DA",
"#. c #ECEADC",
"$. c #F0EFDD",
"%. c #F1F0DF",
"&. c #E6E6E4",
"*. c #ECEBE3",
"=. c #EEEEEA",
"-. c #F1EFE3",
";. c #F0EEEA",
":. c #EFF0E2",
">. c #EFF0EB",
",. c #F4F3E5",
"<. c #F3F2EC",
"1. c #F9F6EC",
"2. c #FCFAEE",
"3. c #F2EFF0",
"4. c #F5F5F3",
"5. c #F8F7F5",
"6. c #F7F8F6",
"7. c #FAF9F6",
"8. c #F9F6FA",
"9. c #FFFFFF",
/* pixels */
"9.9.9.9.9.9.9.9.9.9.9.9.9.9.9.9.9.9.9.9.9.9.9.9.9.9.7.<.>.*.*.*.:.*.*.<.<.8.9.9.9.9.9.9.9.9.9.9.9.9.9.9.9.9.9.9.9.9.9.9.9.9.9.9.",
"9.9.9.9.9.9.9.9.9.9.9.9.9.9.9.9.9.9.9.9.9.9.9.4.*.+.X.X.{ { ! P J Y ! ( ....@.*.7.9.9.9.9.9.9.9.9.9.9.9.9.9.9.9.9.9.9.9.9.9.9.9.",
"9.9.9.9.9.9.9.9.9.9.9.9.9.9.9.9.9.9.9.9.9.<.@.( ~ P g 3 % + o X o + * 2 9 l H / { +.<.9.9.9.9.9.9.9.9.9.9.9.9.9.9.9.9.9.9.9.9.9.",
"9.9.9.9.9.9.9.9.9.9.9.9.9.9.9.9.9.9.9.4.+.X.W k & . X * 7 s c N B n x u 4 = % 2 l Y { | <.9.9.9.9.9.9.9.9.9.9.9.9.9.9.9.9.9.9.9.",
"9.9.9.9.9.9.9.9.9.9.9.9.9.9.9.9.9.9.*.] ( p X . 2 n W ..X.X..... ... ...} ~ S i = = f Y { +.7.6.9.9.9.9.9.9.9.9.9.9.9.9.9.9.9.9.",
"9.9.9.9.9.9.9.9.9.9.9.9.9.9.9.9.7.+.X.F #   e Y o.....( ( ( ( ( { { ( { { { } o.{ m 5 2 M ~ } <.9.9.9.9.9.9.9.9.9.9.9.9.9.9.9.9.",
"9.9.9.9.9.9.9.9.9.9.9.9.9.9.9.4.X.' u . 3 Y X.{ ( ( { { ( { { { { ( { { { { { { } ..{ m 3 s ! { =.9.9.9.9.9.9.9.9.9.9.9.9.9.9.9.",
"9.9.9.9.9.9.9.9.9.9.9.9.9.9.4.X.~ - X n o.{ { {  .{ { { { ( ( } { { } } ..{ { { { { { ..! w 9 ! W *.9.9.9.9.9.9.9.9.9.9.9.9.9.9.",
"9.9.9.9.9.9.9.9.9.9.9.9.9.4.@.( # & Y X.{  .} { { { { } ..{  .' } } } ....{ ..{ { { { { { { h 9 U ! *.9.9.9.9.9.9.9.9.9.9.9.9.9.",
"9.9.9.9.9.9.9.9.9.9.9.9.4.@.' & -  ... . . .{ { ..} { { { (  . .} } } ,.{ S h ! { { { ~ ! { o.S s U ! =.9.9.9.9.9.9.9.9.9.9.9.9.",
"9.9.9.9.9.9.9.9.9.9.9.4.X...= = .. .{ { {  .{ ..} { { { ( {  . .o...:.,.O...7 S { { { ~ { { ~ O.B f U W <.9.9.9.9.9.9.9.9.9.9.9.",
"9.9.9.9.9.9.9.9.9.9.7...O.8 & '  .{ .... .{  .} { { } { { .. . ./ o.:.o.(  .u S  .{ ! { ~ { ! { O.n x W _ 7.9.9.9.9.9.9.9.9.9.9.",
"9.9.9.9.9.9.9.9.9.9.@.X.z o Q ] { ....{  .{ { { { { {  .O.Q Y Y { #.{ { ~ ..e m ..{ { ! { ! { ! { O.x D W +.9.9.9.9.9.9.9.9.9.9.",
"9.9.9.9.9.9.9.9.9.*.] Y o C O.' ....{ .. . . .{ { { {  .O.$. .O.o.{ { ~ ~  .w n  .{ ~ ! ~ ! ~ ! !  . .x U ! >.9.9.9.9.9.9.9.9.9.",
"9.9.9.9.9.9.9.9.5._ @.* 5 O.' X...{ { .. .{ ~ { { { {  .Q Y D Y / { { ~ !  .9 n  .{ ~ { ~ ! { ! ~ ~  .Y b W _ 7.9.9.9.9.9.9.9.9.",
"9.9.9.9.9.9.9.9.[ ] n o ' ' ] X...{ ..{ ..{ { { { { {  .x 5 9 5 P } ! ! !  .7 n  .~ ~ ~ ! ! ! ! ! ! ! O.F J ! *.9.9.9.9.9.9.9.9.",
"9.9.9.9.9.9.9.4./ @.$ f @.' .... .....{ { { { { ' ' ' '  . .O.~ Y  .Y  .Y { 9 x ..~ ! { ~ ~ ! ~ ! ~ ~  .~ H ! / 7.9.9.9.9.9.9.9.",
"9.9.9.9.9.9.9.+...c O ( ' ' ....} .... . . .{ { ' ' ' ~ ~  . .O.~  . .Y Y { 9 x ..~ ~ ~ ! ! ! Y ! Y Y ~ { W W W *.9.9.9.9.9.9.9.",
"9.9.9.9.9.9.6.^ o.% f O.' } ........{  . . . . .' ~ ~ ' ~  . . .Y  .Y  .{  .e z  .~ ! ! ~ ! ~ ! ~ Y ~ ~ / o.( ^ _ 9.9.9.9.9.9.9.",
"9.9.9.9.9.9.+.( B X !  ...X...{ .... . . .{  .{ ' ' ~ ~  .~  . .Q  .{ { Y  .r z  .~ { ~ ! ! ~ Y ! ~ Y ! ! o.:.( W >.9.9.9.9.9.9.",
"9.9.9.9.9.9./ #.2 3 o.{ { o.o.{  . .~  .~  .Y  .' ' ~ ' ~  . . .Q  .! ~ ~  .r z  .~ ~ ~ ~ Y ~ ~ Y ! Q ! ! O.:.{ W ..9.9.9.9.9.9.",
"9.9.9.9.9.4._ ( + n ........{ {  . . . . .'  . .~ ' ~ '  .~ ' ' Y  .( ~ ~  .p d  .~ ~ ~ ~ Y ~ Y ! Y ~ ~ ! #.:.} ! ) 7.9.9.9.9.9.",
"9.9.9.9.9.*._ F & ! ..........o. . . . .~  .~  . .~ ~ ~ ~  .'  .I  .~ ! Y  .9 d  .! ~ ~ Y ~ ~ Y Y Q ! Y ( ,.#.{ / ! 4.9.9.9.9.9.",
"9.9.9.9.9.` @.l - ..............X. .~  . . . .Y ~ ~ ' ~ ' ~  . .I ' ~ ~ ~  .s d  .! ~ ~ ~ ~ Y ~ ~ Y Y Q ( 1.} / ( E *.9.9.9.9.9.",
"9.9.9.9.9.^ +.g 7 ..........{ }  . . . .~  .~ ' ~ ~ ~ ~ ~  . .~ I ' Q Q Y  .p d  .~ ~ ~ Y ~ ~ Y W Q W W ( #.] ! } W } 9.9.9.9.9.",
"9.9.9.9.6.^ X.g B W ..} ..} o.{  . .X.Y  . .' ~ ~ ' ~ ' ~ ~ ~  .I ' ~ ~ Y  .u d  .Y ~ Y ~ Y Y Y W W W W ! ~ ( W } ! ) 9.9.9.9.9.",
"9.9.9.9.>.^ _ l ..P ( ..............1.G Y  .~ ~ ~ ~ ~ ~ ~ ~ ~ ' P  .! ~ Y ' a f  .~ ~ Y Y Y ~ ~ Y ! W W W ..X.W ( ( ^ 6.9.9.9.9.",
"9.9.9.9.&.W ( n O.{ P  .....{ } ..;.9.K D Y  .' ~ ' Y ' ~ ~ ' ~ I ~ ~ Y Y ' a p  .~ Y ~ Y Y Y Y Y Q W W ..1.#.Q ( ( T 4.9.9.9.9.",
"9.9.9.9.+.W W n #.X.{ U ........=.8.;.E #.P C Y ~ ~ ~ ~ ~ ~ ~ ' Y  .Y Y Y  .f u  .Y ~ ~ ! Y Y Y Q Q Y W 1.] w D ....E =.9.9.9.9.",
"9.9.9.9.` ^ P 7 ..O.#.( P } } *.8.5.^ @.*.B d ' ~ ~ ~ ~ ~ ~ ~ ~ Y  .Y Y Y  .s r  .Y Y Y Y Y Q Q Y Y Y W #.J 3  . .X.T *.9.9.9.9.",
"9.9.9.9.` ~ V 3 F _ ..X.! U ..4.8.] E ( C r m  .~ ~ ~ ~ ~ ~ ~ ' ~ ~ Y Y Y ~ u u X.Y ! Y ! Y W Y Q Y W Y D U ~ f J #.T &.9.9.9.9.",
"9.9.9.9.| ~ K y *.@.X.' ..S _ 7.@.( ..' C r ( ~ ~ ~ ~ Y ~ ~ Y ~ X.~ U Y Y ! n 9 J J Y Q Y Q Y Y Y ! Y W F e 8 = W X.U +.9.9.9.9.",
"9.9.9.9.+.~ L Z 7.o.{ { ( F ( <.' ' x n Y d Q ' ~ ~ ~ Q ' X.Q Q X.Q Y Y Y Y ~ D C g r ' I Q Q Y Y Y Q Y Q Z p G ' X.E [ 9.9.9.9.",
"9.9.9.9.` T W N B f b T / W @.@.' d 9 x x 9 ' Q ~ ~ ~ ~ Y I Q Q J H D C D D D J Q p 1 ' I Y Y Y Q Y Q Y Y Q ' Y ' @.E *.9.9.9.9.",
"9.9.9.9.` K / > B ( T P W W @...C 9 ' X.x n ' Q ~ ~ Q ~ Q 8 1 < < , : ; > - 2 - 1 < z ' Y Y Y Y Y Q Y Y Q Y Y I ' #.E &.9.9.9.9.",
"9.9.9.9.` K _ 7 ..7.,.#.{ W ..' d C ' ' Q ' ' Q Q ~ Q Q ' Q Q Q W W E W Q Q Q Y I Q Z Z Q Y Q Y Q Y Y Q Y Y Y Y ] -.E ;.9.9.9.9.",
"9.9.9.9.*.K ..q @.,..... . .X.( d J ' ' ' ' ' Q ' ' ~  .Q ~ ' Q ' Q ' ' Q ~ I ' Z k e Z ' A I E Z Q E Z Y Y Y W *.+.P <.9.9.9.9.",
"9.9.9.9.3.V ..M @.#.v u P ' ' ' p J ' ' ' ' Y C Q z $.C z C J J p G h C J e z J E w E k z Z y / 1 Q %.e C Q I Q -.` ^ 9.9.9.9.9.",
"9.9.9.9.6.N ] F ( ~ u Q I I  . .d D ' ' ' Q J Z Z Z ] d C C C C p Y p L b l z p I a @.p n Z Z C d X.Z g h Q I / <.~ / 9.9.9.9.9.",
"9.9.9.9.9.A Q W F ..F ,.$.h Y  .n C ' ' ' ' Y ' C ] Z C ' C C Z b Q k I Z ] v C I Z ] f C E A e Q Z e Z r Q I ' <.^ _ 9.9.9.9.9.",
"9.9.9.9.9.^ P _ l ~ X.#.B y J  .J z ' ' X.( E ( Z Y Z n Y J z C b ' g J A p a ' I Z C k C E Z g I Z N ( 5 I I #.*.J +.9.9.9.9.9.",
"9.9.9.9.9.&.N O.s s B x 7 W C ! ~ h ' @.~ ( I f J x G n ' C z Z x Q h I C p Z A ' a Z v C E e C C Z 1 L p C ~ 1.+.T 4.9.9.9.9.9.",
"9.9.9.9.9.8.c ..B e b h W X.F H  .C Q ' C $.Q z Y C p C X.p L L C ] z ' Z Z ] C ] y ] v A E y Q T q p ] k p @.7._ ^ 9.9.9.9.9.9.",
"9.9.9.9.9.9.V P ( 8 W X.( ( ( n ' Y O.L C / a a k w e p p b Z w i f 0 f w 0 0 z y w a 1 a 1 w e 1 1 v j 1 g 1.;.E +.9.9.9.9.9.9.",
"9.9.9.9.9.9.| c O.g h  .( ' ..G C ~ ..F v ..Q ~ Q E ' E I Q I I / E W I L I I I A W I Y I I Y Y L I W I W ] 8.&.P 4.9.9.9.9.9.9.",
"9.9.9.9.9.9.9.M W I 9 ! ' ' ' ..z H Q W g ! ' ( Q ' W W W Q W X.-.Z Y Q Q W I L C C C Z Z Y Z b Q I Y Y I -.5.E ) 9.9.9.9.9.9.9.",
"9.9.9.9.9.9.9.) N X.f x X.' ' ..Q g Y Q C C ] _ @.X.W I C C ' 1.-.C I ;.X.' ' ' ' I C C Y #.1 n Q I Y W &.8.+.P =.9.9.9.9.9.9.9.",
"9.9.9.9.9.9.9.6.k Q W 9 '  ...' #.K g Y / C ( 1.,.] ' ' ' I Z O.X.C *.] Q Q Y Q Y I ' ' $.1 1 ' Y W I ] 8.3.W / 9.9.9.9.9.9.9.9.",
"9.9.9.9.9.9.9.9.R l o.n f X.#.+.X.@.Z k L ] #.X.Q Y p 1 1 G ' I L T @./ I J J G I x 8 C 1 : Q I J I ] 5.8.] J =.9.9.8.9.9.9.9.9.",
"9.9.9.9.9.9.9.9.9.l J ( h n ( #.@.@.@./ -.#.' ' Z < < h h < d ~ G Q Q 8 p J z C x ] & . 4 E -.[ J L ;.8.*.P _ 9.9.9.9.9.9.9.9.9.",
"9.9.9.9.9.9.9.9.9.| f ( ! B P W ] X.$.,.] Q ' Q d 9 ' ] ~ Y 9 D Y ' l O ~ B 9 J O & + G W ' -.E / P &.5.W I 4.9.8.9.9.9.9.9.9.9.",
"9.9.9.9.9.9.9.9.9.9.V n  .P F ' ' ' ' Y I W Q Z C X.C Z Q Q Y 9 J ' t j v o 3 O & p C Q L ~ T B W [ 3./ J *.9.9.9.9.9.9.9.9.9.9.",
"9.9.9.9.9.9.9.9.9.9.9.j D ' J B Y I Y I C C ' x p Y ~ C C C Y m s Q z 8 C x I x J ' J I Q X.#.( ] 4./ J ] 9.9.6.9.9.9.9.9.9.9.9.",
"9.9.9.9.9.9.9.9.9.9.9.;.p J ' G d d d C ' Q Q d 5 9 x ' ~ Z C C z J J 5 J J J Y I I ' ' X.@.( ) 3.] F / 9.9.9.9.9.9.9.9.9.9.9.9.",
"9.9.9.9.9.9.9.9.9.9.9.9.&.p I ' C h Q O.I J Q p x Y r 9 C Q Q Q Y J I x n ' Y ' ' ' ' ' I B E <.] J W 5.9.9.9.9.9.9.9.9.9.9.9.9.",
"9.9.9.9.9.9.9.9.9.9.9.9.9.+.p J  .C C Q n h G n d Q Q n 9 5 9 n J J J I G Y ' Y Y Y J x v ( ;.^ L W 8.9.9.9.9.9.8.9.9.9.9.9.9.9.",
"9.9.9.9.9.9.9.9.9.9.9.9.9.9.&.g G ( I n x n x G x Y Y Y Y m p 5 2 4 5 D Y I J C x l n W ,.-.W L P 6.9.9.9.9.9.9.9.9.9.9.9.9.9.9.",
"9.9.9.9.9.9.9.9.9.9.9.9.9.9.9.=.v m Q Q m C x D J J Y J Y Y Q Y G x d 5 m U Y Y W  .,.1...P P / 8.9.9.9.9.7.9.9.9.9.9.9.9.9.9.9.",
"9.9.9.9.9.9.9.9.9.9.9.9.9.9.9.9.9.A z J ' I C J U m J ' Y Y Y I Y Y ' C 8 h J Y @.-...^ L P *.9.9.9.9.9.9.9.9.9.9.9.9.9.9.9.9.9.",
"9.9.9.9.9.9.9.9.9.9.9.9.9.9.9.9.9.9.+.M x Y ' Y J D h x H J I Y Y Y Y  .( ' $. .( W J J / 8.9.9.9.9.9.8.9.9.9.9.9.9.9.9.9.9.9.9.",
"9.9.9.9.9.9.9.9.9.9.9.9.9.9.9.9.9.9.9.6.^ B B J ~ ~ Y D C G C J I J Q ( ( ' Q I H H ~ >.9.9.9.7.9.9.9.9.9.8.9.9.9.9.9.9.9.9.9.9.",
"9.9.9.9.9.9.9.9.9.9.9.9.9.9.9.9.9.9.9.9.9.6.) F m D J Y W Q Q W Q W W I J J J I ` *.9.9.9.9.9.9.9.9.9.9.9.9.9.9.9.6.9.9.9.9.9.9.",
"9.9.9.9.9.9.9.9.9.9.9.9.9.9.9.9.9.9.9.9.9.9.9.9.=...I D Z C D C m C F P / ..;.8.9.9.9.9.9.9.9.9.9.9.8.9.9.9.9.9.9.9.9.9.9.9.9.9.",
"9.9.9.9.9.9.9.9.9.9.9.9.9.9.9.9.9.9.9.9.9.9.9.9.9.9.9.2.4.*.&.[ _ [ 4.6.9.9.9.9.9.9.9.9.9.8.9.9.9.9.9.9.9.9.9.9.9.9.9.9.9.9.9.9."
};
