/* XPM */
static char *result[] = {
/* columns rows colors chars-per-pixel */
"64 64 230 2 ",
"   c #020202",
".  c gray4",
"X  c #091C18",
"o  c #171717",
"O  c #13241D",
"+  c #17281F",
"@  c #04251C",
"#  c #0A2D21",
"$  c #1C2B21",
"%  c #142A20",
"&  c #113224",
"*  c #1C3024",
"=  c #262C24",
"-  c #223125",
";  c #293829",
":  c #313C2C",
">  c #373838",
",  c #3D2822",
"<  c #3D1E1D",
"1  c #7A1E22",
"2  c #5A2724",
"3  c #35432E",
"4  c #384934",
"5  c #3E523B",
"6  c #34563B",
"7  c #264934",
"8  c #43543D",
"9  c #49553D",
"0  c #48573B",
"q  c #545A3D",
"w  c #4C4B38",
"e  c #754338",
"r  c #5B653F",
"t  c #3B5E42",
"y  c #3E6244",
"u  c #464646",
"i  c #4D4D4D",
"p  c #455C41",
"a  c #4C5B41",
"s  c #485740",
"d  c #525E43",
"f  c #595959",
"g  c #4F5655",
"h  c #7B5E40",
"j  c #496745",
"k  c #546245",
"l  c #5C6B49",
"z  c #5A6947",
"x  c #5D744D",
"c  c #626E4B",
"v  c #606A47",
"b  c #6B754B",
"n  c #69754C",
"m  c #727D4E",
"M  c #797F4D",
"N  c #6C7752",
"B  c #737C54",
"V  c #736145",
"C  c #6B6B6B",
"Z  c #656565",
"A  c #737373",
"S  c #7C7D7D",
"D  c #97121E",
"F  c #941721",
"G  c #B61322",
"H  c #903833",
"J  c #A82A2E",
"K  c #B53431",
"L  c #BB0E1F",
"P  c #D7051C",
"I  c #C90018",
"U  c #FD000D",
"Y  c #E8061E",
"T  c #FE0014",
"R  c #FE011D",
"E  c #F6051D",
"W  c #C90D21",
"Q  c #D71726",
"!  c #CE1324",
"~  c #EC0921",
"^  c #FF0321",
"/  c #F50B22",
"(  c #FA0B22",
")  c #EA1A27",
"_  c #F81529",
"`  c #F81932",
"'  c #DC2A2E",
"]  c #DA3432",
"[  c #C93534",
"{  c #E2262C",
"}  c #F5222E",
"|  c #F62239",
" . c #F72639",
".. c #F4383A",
"X. c #E03D38",
"o. c #B9553E",
"O. c #B44539",
"+. c #81513E",
"@. c #C64A3A",
"#. c #D04339",
"$. c #F0413E",
"%. c #F72B42",
"&. c #F6364A",
"*. c #F73348",
"=. c #F93850",
"-. c #B85D43",
";. c #987750",
":. c #AC6949",
">. c #A8724B",
",. c #B26A4A",
"<. c #F54642",
"1. c #EE5347",
"2. c #F54B5C",
"3. c #F84659",
"4. c #EF4C43",
"5. c #E87759",
"6. c #F06C54",
"7. c #F55969",
"8. c #F64D60",
"9. c #F56474",
"0. c #F76A7A",
"q. c #F4727F",
"w. c #F9727E",
"e. c #FC636B",
"r. c #CC694E",
"t. c #79834E",
"y. c #7B8552",
"u. c #778455",
"i. c #728C56",
"p. c #78A860",
"a. c #848D54",
"s. c #878A59",
"d. c #978655",
"f. c #869155",
"g. c #8A9256",
"h. c #8D9558",
"j. c #849C5B",
"k. c #899C5C",
"l. c #869758",
"z. c #919659",
"x. c #93995B",
"c. c #98995C",
"v. c #B68A5D",
"b. c #8BA15E",
"n. c #99A05E",
"m. c #8B9462",
"M. c #939563",
"N. c #9B9E61",
"B. c #9A9C68",
"V. c #B39966",
"C. c #9DA162",
"Z. c #95A566",
"A. c #97AD68",
"S. c #A3A36A",
"D. c #ACAC6B",
"F. c #A5A866",
"G. c #B2B06F",
"H. c #ACAD72",
"J. c #B1AE72",
"K. c #A8B874",
"L. c #B5B374",
"P. c #BEBA7A",
"I. c #BBB976",
"U. c #A2B56D",
"Y. c #EA815F",
"T. c #E48C65",
"R. c #E5996C",
"E. c #C2BD7B",
"W. c #C1B876",
"Q. c #DDB87C",
"!. c #C8A56F",
"~. c #E0A371",
"^. c #DF8B64",
"/. c #B5C47D",
"(. c #C5C27D",
"). c #CAC47E",
"_. c #D8C27F",
"`. c #F47784",
"'. c #838383",
"]. c #8C8C8C",
"[. c #999999",
"{. c #A2A2A2",
"}. c #ABABAB",
"|. c #B8B8B8",
" X c #F4838D",
".X c #F58A96",
"XX c #F4939D",
"oX c #E3BE80",
"OX c #F699A3",
"+X c #F8A3AC",
"@X c #FAACB6",
"#X c #F3B8BE",
"$X c #BEC982",
"%X c #CCC681",
"&X c #C7C981",
"*X c #D5CD86",
"=X c #D9CE86",
"-X c #DAC581",
";X c #D8D087",
":X c #D5D58A",
">X c #DBD389",
",X c #D6DC8E",
"<X c #DBDA8D",
"1X c #D7D087",
"2X c #CDD78A",
"3X c #E1D68B",
"4X c #E3DA8D",
"5X c #E8D98E",
"6X c #E9DE91",
"7X c #E3CD86",
"8X c #DBE392",
"9X c #D5E08F",
"0X c #E9E594",
"qX c #F1E594",
"wX c #F6BCC1",
"eX c #C8C8C8",
"rX c #D7D8D8",
"tX c #F5C4C9",
"yX c #F5CACE",
"uX c #F9C6CD",
"iX c #F6CED2",
"pX c #F9CCD1",
"aX c #F8D5DA",
"sX c #EDEDED",
"dX c #FAE9EB",
"fX c #FBEFF1",
"gX c #F5F4F5",
"hX c #FBF3F4",
"jX c #FFFFFF",
"kX c #FDF6F8",
/* pixels */
"jXjXjXjXjXjXjXjXjXjXjXjXjXjXjXjXjXjXkXjXjXjXjXfXtXXXq.2.*.| ` _ _ ` | *.2.q.OXtXhXjXjXjXjXjXjXjXjXjXjXjXjXjXjXjXjXjXjXjXjXjXjXjX",
"jXjXjXjXjXjXjXjXjXjXjXjXjXjXjXjXjXjXjXjXiX.X2.` E T T T T R R R R R R T T T T R ` 3..XyXjXjXjXjXjXjXjXjXjXjXjXjXjXjXjXjXjXjXjXjX",
"jXjXjXjXjXjXjXjXjXjXjXjXjXjXjXjXjXaX X*.T U T R R ^ ^ ^ R ^ R R R R ^ ^ ^ ^ R R R U U R %. XaXjXjXkXjXjXjXjXjXjXjXjXjXjXjXjXjXjX",
"jXjXjXjXjXjXjXjXjXjXjXjXjXjXjXyX7.( U T ^ ^ R R R R R ^ ^ ^ ^ R R R R ^ E R ^ R E ^ ^ ^ T U _ 7.yXjXjXjXjXjXjXjXjXjXjXjXjXjXjXjX",
"jXjXjXjXjXjXjXjXjXjXjXjXjXaX7.E T R ^ ^ R R R R ^ R T T T T T R T T R R R R R R R R R R ^ ( R T R 7.aXjXjXjXjXjXjXjXjXjXjXjXjXjX",
"jXjXjXjXjXjXjXjXjXkXjXjX XE T R ^ R R R R R R R R _ ..1.6.T.T.R.R.T.r.O.G ! _ R R E R ^ R R R ^ R U (  XkXjXjXjXjXjXjXjXjXjXjXjX",
"jXjXjXjXjXjXjXjXjXjXiX&.U R ^ R R R R R R E ..6.~._.,X,X,X8XU.(.8X,X,X2X$X&X7Xv.J Q E R R ^ R R R ^ R U &.aXjXgXjXjXjXjXjXjXjXjX",
"jXjXjXjXjXjXjXjXjX+X( T ^ R R R R R R ~ K !.<X,X,X3X3X3X=XS.a.z.%X3X*X;X>X>X4Xu.6 a w J _ T R R R R ^ ^ T E +XjXjXjXjXjXjXjXjXjX",
"jXjXjXjXjXjXjXjX`.E R ^ R ^ R R ^ ) O.8 U.<X*X;X>XH.M.m.N s.x.f.z.%X>X>X1X>X(.s 8 d m.$X-XY._ R R R R R ^ R T  XjXkXjXjXjXjXjXjX",
"jXjXjXjXjXjXgX`.U E ^ R R R R R T >.p.a.4X3X5X>Xs.8 8 5 8 d m z.g.h.(.3X1X3XI.l M.%X3X;X<Xu.= D ^ ^ ^ R R ^ R U `.jXkXjXjXjXjXjX",
"jXjXjXjXjXjX`.U R ^ R R ^ R ^ R R E -.A.P.J.S.c 8 a a k a k y.h.h.g.h.P.4X>X1X>X4X>X*X1X>Xs.4 & < P R R R R R ^ U `.jXjXjXjXjXjX",
"jXjXjXjXjXXXU ^ R R R R R R R R R R R @.N t 8 c s.f.f.y.S.1X).h.g.h.h.g.B.>X>X1X1X1X;X1X>X5X>XW.B.V...T ^ R R ^ R U XXjXjXjXjXjX",
"jXjXjXjXtXT R R R R R R R R R R R ^ R R ' d 0 f.g.f.f.c.>X;X>XF.g.x.a.l 5 u.*X4X;X;X>X>X>X>X>X<X4X<X<X4.T ^ R R ^ ^ T tXjXjXjXjX",
"jXjXkXgX| R ^ R ^ R R E R ^ R R R R R ^ E Q d.K.D.G.I.>X5X4X*Xf.y.m k s a 8 c L.>X>X*XI.H.D.(.>X*X*X>X:X<.R ^ R R ^ T | fXjXjXjX",
"jXjXjXq.U ^ ^ R R R ! d J R R ^ R R ^ R R R _ R.0X3X*XL.m.v 3 * * ; 8 p s s 5 5 N B l u.g.f.h.%X>X>X*X4X%XQ R ^ R R ^ U q.jXkXjX",
"jXjXiXE ^ R R R E E !.&Xi.o.R R ^ R R R R R R R -.6 ; + O O $ * * + - q s B M.N s 4 N M.h.h.g.D.3X1X3X(.z q ~ R R R R E R iXjXjX",
"kXjX7.U ^ R R ^ T r.9X5XD.l.>.E T R R R R R ^ R T D $ $ = - $ $ $ $ : a s z %X0X%XS.C.g.f.h.h.h.I.3X(.z w y H R R R ^ ^ T 7.jXkX",
"jXaXE ^ R R R R ..<X;X<XF.a.k.d.{ T R R R R R R ^ ^ W = & = 3 4 3 5 a a s 8 s M.>X0X>X).F.g.f.h.y.N a 8 z a.i.' R R R R R E aXjX",
"jX`.U ^ R R R R ~.,X3X_.x.g.g.k.h.] T R ^ R ^ R ^ E E ~ < 7 k a a a a a p a a 5 z H.4X>X>X(.c.h.N s s a y.x.j.>.R R R R ^ U `.jX",
"kX*.T ^ R E T  .<X>X(.n.g.h.h.g.c.,X5.R R ^ R R R R R R R H y 8 s s s s a a a a s 8 B.4X1X3X*XB.f.g.y.a.h.g.h.l.{ T R R ^ T %.jX",
"iXR R R R ^ R 5./.n.g.g.h.h.h.f.G.4X8X^.( R R R R R R R R R J j z v c c k a a p a s a %X>X;X>X>XF.h.x.x.h.h.h.b.o.R ^ R R R E iX",
"XXT ^ R R R E v.f.g.z.g.h.h.g.l.n.G.D.U.;.P R R R ^ ^ R R R R ' h.k.z.c.m 5 s s s a 8 S.4X1X3X%Xb 4 3 : b x.g.l.V.^ R R ^ ^ T .X",
"7.T ^ R R R ) g.g.h.h.h.g.h.h.h.g.f.g.r ; = L R R R R ^ R R R R ) ;.b.a.S.M.B c d s z &X>X>XH.* O + + + t.x.f.G.3X} T R R ^ T 7.",
"&.T R R R R ] b.x.x.g.h.g.h.h.g.h.h.4 O $ * $ F R R R R R R R ^ T E :./.3X4X4X1X%XE.*X>X1X6Xd X + + 3 t.z.g.g.).0X$.R ^ R R R =.",
"| T R R R R [ i.z t.z.g.h.h.g.h.h.g.0 ; - $ - 6 H E R ^ R R R R E R R 5.<X1X1X>X>X3X>X1X;X>X$X;.M.s.k x.g.h.g.N.A.#.R ^ R R R | ",
"` R ^ R R R F # + + 0 h.h.h.h.h.h.h.z.a.y.h.N d t e ~ R ^ R ^ R R R R T 4.>X<X*X;X;X>X1X>X1X>X6XqXu.8 f.h.h.h.d.j.@.T R R ^ R ` ",
"_ R ^ R E R F # - - O q x.g.h.g.x.h.c.F.(.3X>X).S.x w ! T R R ^ R R R ^ T  .Q.,X;X>X>X1X>X>X3X%Xu.s k a.h.h.f.z.j F R E R R T ` ",
"` R R R R T K 6 + + O - g.g.h.l.m z c I.4X*X>X>X4X3XH.B [ R R R R R R R R R _ ~.,X;X>X<X*XH.u.d 5 s l g.h.h.N.z.# D R R ^ R R ` ",
"&.R ^ R R R ] b.t.q 0 b h.g.x.v 8 p 8 z *X>X1X=X1X;X3X<X2X5.^ R R R R R T ^ R T 5.9XP.s.k 5 5 9 k b F.P.).%X6Xs.@ G R ^ R ^ T &.",
"7.T ^ ^ R R ) h.x.x.c.x.h.g.g.b 8 k 9 c >X>X>X1X>X;X1X;X3X&X:.Y ^ E ^ R ^ R ^ ^ R #.x x b y.y.a.h.).>X4X6X6XE.3 $ P R R R ^ T 7.",
".XT E R R R E ;.l.g.g.g.h.g.x.g.k 8 4 8 J.3X>X>X;X>X;X>Xs.9 6 , P R R R R R R R ^ R { z.b.z.z.g.P.3X4XE.M.c ; % , / R R R ^ T .X",
"yXE R R R R R -.b.g.g.g.h.x.m 0 ; $ + 4 J.>X*X>X;X1X3XL.t i d 4 : ! R R R ^ R R ^ ^ T ) >.j.g.h.*X>Xb * O O $ & 1 ^ R R ^ R E yX",
"kX .T R R R R { k.g.g.g.x.q + + - + 3 G.4X>X1X>X1X1X4XM.5 a s k j y J E ^ R R R R ^ R R E ,.b.h.<XB.X - - = O & W R R ^ ^ T %.kX",
"jX`.U ^ R R R R >.k.g.g.g.- O - - * $ O k >X1X1X1X1X4XM.k z p 8 s s y H Y R ^ R R R R ^ R R @.b.4XM.O ; + 3 M.>.R ^ R R ^ U `.jX",
"jXaXR R R R ^ R ' j.f.g.l.t.w * $ O k P.P.>X1X>X>X>X*Xx.z.h.a.b k a a j ;._ R R R R R ^ R R R ] *X&X; X 3 (.0X$.T ^ R R R E iXjX",
"jXjX2.T ^ R R ^ T ,.A.c.c.n.C.b - + w 4XI.x.N.C.C.C.h.g.g.g.g.h.a.a 8 M.0X-X..T ^ R R R R R R T } oX&Xz.*X8XT.T ^ R R ^ T 8.jXjX",
"kXjXyXE R R R R T _ _.:XS.r 3 - O O 0 =X%XD.N.h.h.g.h.x.x.C.L.s.s s s k n N H.6.R R R R R R R ^ R ( R.0X,X-X_ R R R R E T yXjXjX",
"jXjXgX9.T ^ R R ^ R ..<Xq 4 v s.s.B.*X>X>X>X>X1X1X*X*X*X>X>X6XL.l m u.m z 9 s i.H R R R ^ R R R ^ R R 5.,X..R ^ R R ^ U 9.jXkXjX",
"jXjXjXfX` T ^ R R ^ T 1.9X3X5X6X6X4X>X*X1X1X1X1X>X>X>X>X*XL.C.g.h.x.x.h.z.h.M s y e Y R R R R ^ R ^ R R } R R R R ^ R ` dXjXjXjX",
"jXjXkXjX#XT ^ R R R R T 1.,X4X3X>X*X*X>X>X>X1X*X*X*X(.F.h.a.f.h.g.g.h.z.z.z.h.z 8 y V ) R ^ R R ^ R R R R R R R R ^ T #XjXjXjXjX",
"jXjXjXjXjX.XU ^ R R R ^ T <.s.p : s.5X1X>X1X3XS.n c.g.f.g.h.h.h.h.h.u.c c k p z n y.f.h.] T R R R ^ R R ^ R R E ^ U  XjXjXjXjXjX",
"jXjXjXjXkXjX0.U ^ R ^ R R R I < z (.=X>X=X>X%XC.g.g.h.h.g.h.g.z.f.k 9 0 8 c E.*X=X*XG.h.j.@.R R R R R R R R R ^ U 0.jXkXjXjXjXjX",
"jXjXjXjXjXjXjX9.U R R R R ^ ^ ( 5.>X9X>X3XI.h.g.g.g.h.h.h.h.x.a.k 9 k s d (.4X=X>X>X4XW.g.p.-.R R R R ^ R ^ ^ U 9.jXjXjXjXjXjXjX",
"jXjXjXjXjXjXgXjX`.U R ^ R R R R T ` T.=XK.f.h.z.: 0 x.a.y.u.n p s j 8 z x.>X>X=X=X*X:X,Xx.-.{ R R ^ R R ^ R U q.jXjXjXjXjXjXjXjX",
"jXjXjXjXjXjXjXjXjXXXE T ^ R R R ^ T T ` o.d.k.b.4 - d 9 8 s s a 9 d M h.c.=X>X,X,X,XQ.5.) R R R R R ^ ^ T R XXjXjXjXjXjXjXjXjXjX",
"jXjXjXjXjXjXjXjXjXjXtX .U R ^ R R R R R T E ] -.h $ & & & 6 j p x j.b.j.Z.<X=XQ.5.$.( T R R R R R ^ ^ U  .tXjXjXjXjXjXjXjXjXjXjX",
"jXjXjXjXjXjXjXjXjXkXjXhXq.E T R ^ ^ R ^ R R R T ^ P L F 1 H e +.>.>.:.o.@.$._ R T R R R R R R R R U R q.hXjXjXjXjXjXjXjXjXjXjXjX",
"jXjXjXjXjXjXjXjXjXjXjXjXjXyX2.T T R ^ ^ R R ^ R R R R R R E R R R R T R T R T ^ ( R R R R ^ ^ T T 2.yXjXjXjXjXjXjXjXjXjXjXjXjXjX",
"jXjXjXjXjXjXjXjXjXjXjXjXjXjXjX#X2.E U R R R R R R ^ E R R R R R R R R R R ^ R R R R ^ E T U R 2.wXjXjXjXjXjXjXjXjXjXjXjXjXjXjXjX",
"jXjXjXjXjXjXjXjXjXjXjXjXjXjXjXjXjXiXq. .T U T R ^ ^ ^ ^ R R ^ R ^ ^ ^ R ^ ^ ( R R T T T  .q.iXjXjXjXjXjXjXjXjXjXjXjXjXjXjXjXjXjX",
"jXjXjXjXjXjXjXjXjXjXjXjXjXjXjXjXjXjXjXkXtX`.*.( T U T T T R R R R T R T T U T T ( &.`.wXkXjXjXjXjXjXjXjXjXjXjXjXjXjXjXjXjXjXjXjX",
"jXjXjXjXjXjXjXjXjXjXjXjXjXjXjXjXjXjXkXjXjXjXjXdX#X.X0.3.*.| ` _ ` `  .*.3.0..X#XdXjXjXjXjXjXjXjXjXjXjXjXjXjXjXjXjXjXjXjXjXjXjXjX",
"jXjXjXjXjXjXjXjXjXjXjXjXjXjXjXjXjXjXjXjXkXjXjXjXjXjXjXjXjXkXkXfXfXhXkXjXjXjXjXjXjXjXkXjXjXjXjXjXjXjXjXjXjXjXjXjXjXjXjXjXjXjXjXjX",
"jXjXjXjXjXjXjXjXjXjXjXjXjXjXjXjXjXjXjXjXjXjXjXjXkXjXjXjXjXjXjXjXjXjXjXjXjXjXkXjXjXjXjXjXjXjXjXjXjXjXjXjXjXjXjXjXjXjXjXjXjXjXjXjX",
"jXjXjXjXjXjXjXjXjXjXjXjXjXjXjXjXjXjXjXjXjXjXjXjXjXjXjXjXjXjXjXjXjXjXjXjXjXjXjXjXjXjXjXjXjXjXjXjXjXjXjXjXjXjXjXjXjXjXjXjXjXjXjXjX",
"jXjXjXjXjXjXjXjXjXjXjXjXjXjXjXjXjXjXjXjXjXjXjXjXjXjXjXjXjXjXjXjXjXjXjXjXjXjXjXjXjXjXjXjXjXjXjXjXjXjXjXjXjXjXjXjXjXjXjXjXjXjXjXjX",
"jXjXjXjXkXjXkXjXjXjXjXjXjXjXjXjXjXjXjXjXjXjXjXjXjXjXjXjXjXjXjXjXjXjXjXjXjXjXjXjXjXjXjXjXjXkXjXjXjXjXjXjXjXjXjXjXjXjXjXjXjXjXjXjX",
"jXjXjXjXjXjXjXjXjXjXjXkXjXkXjXjXkXjXkXjXjXjXkXjXkXjXjXjXjXjXjXjXjXjXkXjXjXkXjXjXkXjXjXjXjXjXjXjXjXjXjXkXkXjXjXjXjXkXjXkXkXjXjXjX",
"jXjXkX'.Z f f C rXjXjXjXjXjXjXjXjXjXjXjXjXjXjXjXjXjXjXjXjXkXjXjXjXjXjXjXjXjXjXjXjXjXjXjXfX0.aXjXaX0.fXjXjXjXjXjXjXjXjXjXjXjXjXjX",
"jXjXkXo t {.].  eX|.S C i '.jX}.[.jX'.C rXeXZ A C rXeXS jXjXjX|.].kXA '.'.'.gXeXA A A rXdXU @XkX+XU fXaX`.w.`.aXuXe.`.0.0.fXjXjX",
"jXjXjX= '.jXsX. rXS o eXeX. }.A i |.> o }.eX[.].. {.}.. C f }.A = gX  Z S   rX}.g '.= g kX( %.=. .` dX` 3..X3.` pX+X_ 8.@XhXjXjX",
"jXjXjXo C jXrX  eXS > gXgX. [.S > > |.= {.eXeX[.$ ;.{.. |.A . C > gX  C ].  |.u i |.> > hXT +XdXOXT aX( e.OX.X0.jXjX%..XjXjXjXjX",
"jXjXjXf [.jXsXu rX'.. f t f gX{.u S jXi eX{.u C u }.eXu Z f {.{.C gXi C A f rX].i S C S kX3.pXjXpX3.jX@X7.0.7.OXjXjX9.+XkXjXjXjX",
"jXjXjXjXjXjXkXjXjXC u kXfXjXjXjXjXjXjXjXjXjXjXsXjXjXjXkXjXjXjXjXjXjXjXjXjXjXjXjXkXgXjXjXjXjXjXjXjXjXjXjXjXhXjXjXjXjXjXjXjXjXjXjX"
};
