/* XPM */
static char *_247fd6c2a4f4f5ca96e9f94a17fd7afiH0XJSAt9OGOhSZr[] = {
/* columns rows colors chars-per-pixel */
"50 50 107 2 ",
"   c None",
".  c black",
"X  c #010101",
"o  c #020202",
"O  c gray1",
"+  c #040404",
"@  c gray2",
"#  c #060606",
"$  c #070707",
"%  c #090909",
"&  c gray4",
"*  c gray5",
"=  c gray6",
"-  c #111111",
";  c gray7",
":  c #151515",
">  c #161616",
",  c #181818",
"<  c gray11",
"1  c gray15",
"2  c gray16",
"3  c #2C2C2C",
"4  c gray18",
"5  c gray22",
"6  c #393939",
"7  c #3A3A3A",
"8  c gray23",
"9  c #414141",
"0  c #444444",
"q  c gray27",
"w  c #464646",
"e  c #555555",
"r  c gray36",
"t  c #5D5D5D",
"y  c gray37",
"u  c #5F5F5F",
"i  c #606060",
"p  c gray38",
"a  c #646464",
"s  c #656565",
"d  c #686868",
"f  c #6A6A6A",
"g  c gray42",
"h  c #6C6C6C",
"j  c #6D6D6D",
"k  c #767676",
"l  c #7C7C7C",
"z  c gray57",
"x  c gray58",
"c  c #959595",
"v  c #979797",
"b  c gray61",
"n  c #9F9F9F",
"m  c #A0A0A0",
"M  c #A2A2A2",
"N  c #A7A7A7",
"B  c gray68",
"V  c #AFAFAF",
"C  c #B9B9B9",
"Z  c gray75",
"A  c #C1C1C1",
"S  c gray76",
"D  c #C3C3C3",
"F  c gray77",
"G  c #C5C5C5",
"H  c #C6C6C6",
"J  c gray78",
"K  c #C8C8C8",
"L  c #CACACA",
"P  c #CBCBCB",
"I  c gray80",
"U  c gray81",
"Y  c #D0D0D0",
"T  c gray82",
"R  c gray83",
"E  c #D5D5D5",
"W  c gray84",
"Q  c #D7D7D7",
"!  c #D8D8D8",
"~  c gray85",
"^  c #DADADA",
"/  c #DDDDDD",
"(  c gray87",
")  c #DFDFDF",
"_  c gray89",
"`  c #E4E4E4",
"'  c #E6E6E6",
"]  c #E7E7E7",
"[  c gray91",
"{  c #E9E9E9",
"}  c #EAEAEA",
"|  c gray92",
" . c #ECECEC",
".. c gray93",
"X. c #EEEEEE",
"o. c #EFEFEF",
"O. c gray94",
"+. c #F1F1F1",
"@. c gray95",
"#. c #F3F3F3",
"$. c #F4F4F4",
"%. c gray96",
"&. c #F6F6F6",
"*. c gray97",
"=. c #F8F8F8",
"-. c #F9F9F9",
";. c gray98",
/* pixels */
"&...O.&.O.&.&.=.O.=.=.=...O.O.&.O.&.O.;.O.&.&.&.&.&...&.&.=...&.&.&.O.&.&.O.&...&.| &.=...=.&.=.O.O.",
"&...O.&.O.&.=.=.O.=.&.=.O...O.O...&.&.;...&.&.&.&.&...&.&.` z x b &.O.O.&.O.&.O.&...&.=.O.&.&.=.O.O.",
"=...O.&.O.O.=.=...=.&.=.&...O.&.O.=.O.=.O.&.&.&.&.&...=.&.A . . = &.O.&.&.O.&.O.=.| &.&...&.O.=.O.O.",
"=.O.&.O.O.&.=.=.O.=.O.&.O.O.&.O.O.=.&.=.O.&.O.&.O.O...&.&.A . . ; &.........O...&.| O.....&.O.&.&.O.",
"=...&.O...&.&.&.O.=.O.&.&.| &.O.&.=.&.O.&.&.&.&.&.....=.O.F . . = O.0 . . . . . . . . . . . ..&.&.O.",
"=.&.O.O...&.=.=...=.&.&.=.| &.&.&.=.&.O.O.&.&.O.&.O.O.=.O.K . . = &.0 . . . . . . . . . . . ..O.O.O.",
"=.O.&.....O.&.=...&.O.&.=...&.O.&.=.&.O.&.&.&.&.O.O...&.O.K . . = &.) W ^ W ^ W ) T ^ T ^ ^ ..O.&.O.",
"&.&.&.O.O.&.&.=...O.&.&...| &.&.&.=.&...O.&.&.&.&.&.O.=.O.K . . = &.0 . . . . . . . . . . . ..&.&.O.",
"&.O.&.O.O.&.&.=...O.O.&.....=.&.&.=.&.&.O.&.&.&.&.&.O.&.O.F . . = &.0 . . . . . . . . . . @ O.&.&.O.",
"&.O.&.&.=.&.&.&.....O.=.....&.&.&.=.&.O.&.&.&.&.=.=...&.O.F . . ; O.0 . . . . . . . . . . > O.=.&.O.",
"&.O.&.&.=.&.O.=.....&.&.O...&.&.&.=.=.&.O.=.=.&.=.=.O.&.&.A . . = &.0 . . . . . . . . . . 8 ..=.&.O.",
"..O.&.=.=.&.&.&.....&.O.....&.&.=.;.=.O.&.=.&.=.&.=.O.&.O.F . . ; &.0 . . . . . . . . . . f ..=.&.O.",
"O.O.&.=.=.&.&.=.....&.&.....&.&.=.=.=.O.&.&.&.=.=.=.O.&.&.A . . = &.0 . . . . . . . . . . M ..=.&.O.",
"O.O.&.=.=.&.&.&...O.=.&...| =.O.&.=.=.O.O.=.=.=.&.=.O.&.&.F . . = &.0 . . . . . . . . . . I O.&.&.O.",
"&.O.O.=.=.&.&.&.O.O.=.&.&...=.&.&.=.=.O.O.=.=.=.&.=.&.O.&.K . . = &.0 . . . . . . . . . . | ..&.O.O.",
"=.&.O.=.=.&.&.&...&.=.=.=...=.&.&.=.=.O.&.=.=.=.&.=.&...&.K . . ; =.0 . . . . . . . . . . &.O.&.&.O.",
";.O.O.=.=.&.&.&...=.=.&.=...=.&.O.=.=.&.&.&.&.;.&.=.&.O.&.F . . = &.0 . . . . . . . . . . =.O.&.&.O.",
";.O.O.&.&.&.O.=.O.=.=.&.O...=.&.O.=.=.=.&.&.O.=.&.&.=.O.&.F . . = &.0 . . . . . . . . . > &.O.O.O.O.",
"=.&.O.&.&.&.O.=.O.=.=.=.O...=.=.&.=.=.=.O.=.&.&.&.&.&.O.=.K . . = &.0 . . . . . . . . . 8 &.O.O.&.O.",
"&.O...O.&.&.&.=.O.=.&.=.O.O.=.=.O.=.=.=.&.=.O.&.=.&.=.O.=.K . . ; =.w . . . . . . . . . j &.O.O.&.O.",
"..O.O.O.&.&.&.=.&.=.&.=.O.O.=.=.&.=.&.&.O.&.&.&.=.O.=.O.=.K . . = &.0 . . . . . . . . . M &.O.&.O.O.",
"..&.O.O.=.=.O.=.&.&.&.&.O.O.&.=.&.=.&.&.&.O.&.&.&.O.=.O.=.A . . = &.0 . . . . . . . . . I &.O.&.O.O.",
"..&.O.&.&.=.&.=.&.&.O.=.&.O.=.;.&.&.&.&.O.O.&.&.&.O.=.O.=.F . . = &.0 . . . . . . . . . ` &.&.=.O.O.",
"..=.O.=.&.&.&.=.&.=.O.&.=.O.&.=.&.&.&.&.&.&.&.&.=...&.O.=.F . . = =.0 . . . . . . . . . O.=.&.=.O.O.",
"..=.&.&.O.=.&.&.&.&.O.&.=.&.&.=.&.&.&.&.O.&.&.&.=...&.O.=.Z . . = &.0 . . . . . . . . @ O.=.=.;.O.O.",
"..=.O.... . . . . . . . . . . . . . . . . . . . . . . . . . . . ; =.e > . . . ; > > > 2 &.=.&.=.&.O.",
"..=.&...p t p t t t t p p t t p t t t p t p t t p r t t p t p p a =.&.&.% . . A &.O.O.&.&.&.&.=.O.O.",
"O.=.&...8 8 8 8 8 8 8 8 8 8 8 8 8 8 8 8 8 8 8 8 8 8 8 8 8 8 8 8 5 ^ &.&.. . . &.&.O.&.&.&.&.&.&.O.O.",
"O.=.&.O.. . . . . . . . . . . . . . . . . . . . . . . . . . . . . ) &._ . . 2 O.&.&.&.O.&.=.=.&.O.O.",
"O.=.O.&.@ . . . . . . . . . . . . . . . . . . . . . . . . . . . . O.O.a . . N ..O.&.&.&.=.=.&.O.O.O.",
"O.=.O.&.3 . . . . . . . . . . . . . . . . . . . . . . . . . . . @ W a . . @ &...O.&.&.O.=.=.&.&.O.O.",
"O.=.&.=.n . . . . . . . . . . . . . . . . . . . . . . . . . . . . . . . . N =...O.&.&.&.=.=.&.=.O.O.",
"&.=.&.=.&.. . . . . . . . . . . . . . . . . . . . . . . . . . . . . . . M =.&.O.O.=.&.O.=.;.=.=...O.",
"O.=.O.&.&.k . . . . . . . . . . . . . . . . . . . . . . . . . ; 8 f C =.O.=.&.&...&.&.&.=.=.=.&...O.",
"&.=.&.O.&.O.; . . . . . . . . . . . . . . . . . . . . . . . . | &.&.O.=.O.=.&.=.O.=.&.&.=.;.=.O...O.",
"&.&.&.&.&.&.` . . . . . . . . . . . . . . . . . . . . . . . Z &.=.&.&.=.&.=.=.O.O.&.&.&.;.=.=.....O.",
"&.&.O.&.&.&.&.^ @ . . . . . . . . . . . . . . . . . . . . V =.&.=.&.&.&.&.=.=.....&.&.&.;.;.=...| O.",
"&.=.&.O.&.&.=.&.| < . . . . . . . . . . . . . . . . . % T =.=.&.=.&.O.&.&.=.=.O...&.&.&.=.;.=.O...O.",
"=.=.O.&.&.&.&.&.O...x @ . . . . . . . . . . . . . . j O.&.=.=.O.=.&.O.&.&.=.=.O.O.&.&.&.=.;.=.O...O.",
"&.&.O.&.&.&.=.&.&.O.&.&.V = . . . . . . . . . = x O.O.&.=.O.;.&.&.&.O.&.&.&.&.O...&.&.=.=.;.=.O...O.",
"&.&.O.&.&.&.&.O.O.&.&.&.K . . . . . . . . . . . ` &...&.=...=.&.&.&.O.&.&.O.&.O...&.&.&.=.=.=.O...O.",
"=.&.O.&.&.&.&.&...&.&.O.% . . . . . . . . . . . , &.O.&.=...=.O.&.&.&.O.O.&.&.O...O.&.&.=.=.&.O...O.",
"&.O.&.O.&.&.&.&...&.&.3 . . . . . . . . . . . . . j O.&.&...&.O.&.&.O.&.&.&.&...O.O.&.&.=.;.&...O.O.",
"&.O.O.&.&.&.&.=...=.x . . . . . . . . . . . . . . . W &.&.O...&.=.&.&.O.&.&.&.&...O.&.&.=.=.&.O...O.",
"O.O.O.&.&.&.&.&.O.=.% . . . . . . . . . . . . . . . p &.&.&...O.&.&.O.&.&.&.&.=.....&.&.;.;.=.&...O.",
"O.O.O.&.&.&.&.=...=.% . . . . . . . . . . . . . . . t O.&.=...&.=.=.O.&.&.&.&.&.O.| &.O.=.;.&.=...O.",
"O...&.&.&.O.=.=.O.=.% . . . . . . . . . . . . . . . t &.&.&...O.=.=.O.&.&.&.&.&.O...&.&.=.=.O.;...O.",
"&.&.&.&.&.O.=.=...=.8 8 8 5 8 8 5 8 8 8 8 8 8 8 8 8 l &.&.O...&.=.=.O.&.=.&.&.O.O.| O.&.=.=.&.;...O.",
"O.O.O.&.&.&.&.&...=.&.=.O.O.O.O.O.&.O.=.O.&.&.&.&.&...&.&.....&.=.=.O.=.=.=.=.O.O...&.=.&.&.O.;.O.O.",
"&.O.O.&...&.&.=...=.O.&.....O.&...&.&.=.O.&.&.&.&.O...&.&...O.O.&.=.O.&.=.=.&.O.&...&.&...&.O.=.O.O."
};
