/* XPM */
static char *_2fdfe29e3f447c5aeeb78be6b4f855dhsbb5h2Hnly4pIhL[] = {
/* columns rows colors chars-per-pixel */
"50 50 6 1 ",
"  c gray92",
". c #EEEEEE",
"X c #F3F3F3",
"o c gray96",
"O c #F9F9F9",
"+ c gray98",
/* pixels */
"oo.XX.ooO.OOo...XXoXOXooooo.ooO.ooo.Xo.o.o.oO.ooOX",
"oo.XXXoOO.OooX..X.oXO.ooooo oOX.ooOXXoXo.o.oO.OXO.",
"oO.XXXoooXOXOo.XXXoXOXoOooo.ooX.XooXXoXoXO oX.XXOX",
"oO.XX.oOO.OXoo.XXXoooXooooX Oo..ooo.XX.oXO.oXXoXOX",
"ooXXX.XoO.OXoo XXXOoXXoooo..oXX.oXoXXoXoXO.o..oXoX",
"ooXX. XOO.oooO oXXOoXXoooo..OXoXoXoXXX.oXO.o..o.XX",
"oOXo..ooo.oXoO oooOo.ooooXX.oXOXoooXXX.XoO.o.oo.XX",
"XoXo.XooO.XXo..oooOo.XoooooXoXooXXoXXXXXoO o.o..Xo",
"ooooXXooo..oX..oooOoXXoooooXoXXoXooooXXXoO.o..oXoo",
"ooXooOXoO..Xo..ooOOoXXOOooOXoXXooXoXoXXXoO o.Xo.oo",
"oo.ooOXXo .XXX.OooOOoXoooOO.XX.OXooooXXooO o..O.Oo",
"o.XoOOooO..Xo..ooOOooXOoOoOXXXXoXooooooXoO o.Xo.Oo",
"X.XXoOooO..oo. oooOOXXooOoOXoXXoXooooooXXO.oXXo.oo",
"oXXXOOooo.XOo..oooOo.XOoOoOXXoooXooooooX.O.o.XoXoo",
"ooXXOOooo.XOoo.OXXOO.XOOOoOooXOoXoOoooOXXO.oXXO.oo",
"oOX.OOXoo oOoO.OooOoXoooOoooXoOooooooooXXO.oooo.oo",
"oOXXoOoXo oOoo.OXXoOooooOoOoXooooooOoooXXO.ooooXXX",
"oOX.OoooOXOOO..OooOoOoooOooO.oXoooooooO..O.oOooXXX",
"ooX.XooooXOoO..OooOoOooXOOoo.OoXoooooOOX.O oooo..o",
"ooX.XooXOXooOX.OOXOOoXOooOXOXOOoooOOooOX.O.oOooXXX",
"o.o.XooXOoOXO.XOOoOooXooooXO.oOoooooXooX.O.ooooXXX",
"o.XXXoOXoooXoX.oOoOooXoooo.OXo.OooOXoOO.XO.ooooXo.",
"o.o.oOOXOoOXOoXoOoOooXoooo.oXOooooooooO.XO.ooXooo.",
"o.oXoXOoOooXooXoOoooOXoooO.XXoooOoooOoo.oO.oooooOX",
"o.OXoXooooOXoOooOoooOXoooO.XXo.XOXooOoX.OO.ooXOoOo",
"o.OXXoOoOooXoOoXOOOoOooooO.XooXoOXooOXX.OoXooXOoOo",
"o.OXXOOoOooXooooOoXoOXoooO.XooooOXoooXXXOoXooXOoOX",
"o.OXXoooooXXoXooOOoXoXoXooX.oOOoOXOoOX.XooXooooOOX",
"oXOXXoooOoXoo.oXOOOXXXooooXXOOOoOXoXoXXooXXoXoooo.",
"o.OoXXooOo.ooXoXOOoX.ooOooooOoooOooXOXXO.XooooOO..",
"o.OXoXoooOXoo.OXOooX.oXOoOooOOXoooo.OXXo.XooXOOoX.",
"oXOXOooOOo.oo.OXOOoXXoooooOoOoXoOooXoXoo XOooOOOoX",
"oXooooooOo.ooXoXoOo.oooOoOOoOOoOoOooOXoO.XOooOOOO.",
"oXOXooooOoXOoXO.OOOXooOOooOXoooOoOoXoXooo.OooOOoX.",
"ooooXooOOX.OoXOXOoo.OXoooOOXoo+OXOoXOoOoO.oooOOO..",
"ooooooooOXXoo.O.oOoXOooooooooO+OXooXooOO.XooOOOO..",
"oOOXooXoO.XOo.OXOOo.OXoOooXXXoOOXooXooOO.XOooOOO  ",
"oooXXOoOoX.ooXO.oooXoooooO..ooOOoOoXoOOo..oooOOO. ",
"oOoXXooOoo.oX.OXoOO.oooooo.XooOOXooXooOO..OooOOOX ",
"XooooooOooXooXO.oooXoooooOoXooXOXoooooooX.oooOOoX ",
"ooXXooooXXXooXOXXXOXXXoooOo.oO.OoooXooXo..XooOOoX.",
"oOXXoOooo.oXoooXXXO.XXXOoOoXoo.oXOoXXXoO..XOoOOo..",
"ooXXooooo.oXoXoXXXO..XXOoOoXoo.XXooXXooo.X.ooOOO..",
"Xo.XoOooO.oooooXoXoX.XooOooXooX.XooXoXooo..ooOOoX.",
"oX.XoooooXoXoXoXXXoXXXXOoOo.ooo.XoOXoooOO..oOOOoX.",
"XX.XooooO.oXOXoXX.oXoXooooo.ooO.XOoXooooo. oooOoO ",
"XX.oXoooo.oXoXoX.XoXooOOooo.Xoo.oOoXOoooXX oXoOoO.",
"XooooXXOO.OXO.XXX.oXOXOoooo.ooX XOoXooOoX..XoOOoO ",
"oXXXXXXoO.OXo.XXX.oooXXXooo.oo. oooXoOoOXX ooooXO.",
"oo.Xo.oOo.OXo..XX oXOXXoooX.oo.XooOXoOOo.o.ooXXXOX"
};
