/* XPM */
static char *result[] = {
/* columns rows colors chars-per-pixel */
"64 64 106 2 ",
"   c #4C302D",
".  c #56322B",
"X  c #5B322D",
"o  c #5C382F",
"O  c #4E3332",
"+  c #533234",
"@  c #5C3632",
"#  c #5E3834",
"$  c #64342D",
"%  c #6C352D",
"&  c #6C382D",
"*  c #733327",
"=  c #73362D",
"-  c #7C362C",
";  c #75392E",
":  c #7C3A2E",
">  c #643533",
",  c #6C3631",
"<  c #643935",
"1  c #6B3933",
"2  c #6E3A38",
"3  c #733731",
"4  c #7C3730",
"5  c #743A32",
"6  c #7C3B33",
"7  c #713C38",
"8  c #7F3E38",
"9  c #BB3717",
"0  c #BC361C",
"q  c #BE3A1D",
"w  c #843524",
"e  c #873B26",
"r  c #81372C",
"t  c #89372B",
"y  c #843A2D",
"u  c #8B3B2D",
"i  c #913927",
"p  c #9F3927",
"a  c #933B2C",
"s  c #9C3D2C",
"d  c #873730",
"f  c #843B32",
"g  c #8B3D32",
"h  c #863E39",
"j  c #933D32",
"k  c #9B3D32",
"l  c #A23C26",
"z  c #AC3C26",
"x  c #A43D2C",
"c  c #AC3E2C",
"v  c #BD3722",
"b  c #B43E25",
"n  c #BE3C23",
"m  c #B43E2B",
"M  c #BC3E2C",
"N  c #A43E31",
"B  c #AA3E32",
"V  c #B33F30",
"C  c #BB3F33",
"Z  c #C1361E",
"A  c #C13C1E",
"S  c #C23623",
"D  c #C23D24",
"F  c #C83E25",
"G  c #C43E2A",
"H  c #C93E2B",
"J  c #C43F32",
"K  c #CB3F31",
"L  c #BF411F",
"P  c #8C402F",
"I  c #95402E",
"U  c #9D412D",
"Y  c #8C4134",
"T  c #814038",
"R  c #8E4138",
"E  c #944033",
"W  c #9A4234",
"Q  c #9C4039",
"!  c #A3412E",
"~  c #AB412C",
"^  c #B24126",
"/  c #BC4124",
"(  c #B4422C",
")  c #BC422C",
"_  c #A44335",
"`  c #AC4333",
"'  c #A44238",
"]  c #B34232",
"[  c #BB4232",
"{  c #B34A34",
"}  c #BA4835",
"|  c #B74939",
" . c #C2421F",
".. c #C9411F",
"X. c #C44125",
"o. c #CA4225",
"O. c #C5422B",
"+. c #C9422C",
"@. c #C5482C",
"#. c #CB492A",
"$. c #D64125",
"%. c #D1442C",
"&. c #C64231",
"*. c #C94332",
"=. c #C64932",
"-. c #CA423B",
/* pixels */
"X.X./ @.D O.@.O.O.) O.O.O.O.O.O.&.@.@.o.O.@.X.=.*.-.*.@.X.O.@.@.O.O.@.X.O.O.O.-.&.@.@.@.@.O.@.&.&.-.X.@.*.=.=.O.@.@.@.@.O.&.X.| ",
"X.D A X.n O.&.X.X.=.) O.X.O.X.X.X.O.O.X.O.O.O.O.*.@.O.&.O.X.O.X.O.=.O.G / O.O.O.O.O.O./ G O.O.G G O.[ O.&.O.@.O.&.@.X.X.@.&.@.*.",
"D X.D  .q X.-.O.X.O.n O.G O.@.D X.X.O.O.O.O.F X.O.O.@.J O.O.O.X.@.&.O.O.G O.O.O.X.O.&.O.J -.D X.F G O.@.*.O.O.O.*.O.O.@.X.) O.O.",
"A G G A 9 X.O.O.X.O.&.O.O.X.O.O.O.O.O.-.*.O.G O.&.O.O.O.O.O.*.O.G X.X.=.O.X.[ O.X.-.M X.O.&.X.X.G G O.O.O.O.O.O.O.O.X.X.X.O.X.@.",
"D X.D A A X.G G @.O.X.X.O.X.O.O. .D X.o.O.O.O.@.&.O.X.X.X.O.X.X.O.@.X.O.G O.O.n +.X.O.X.O.O.O.X.O.X.O.O.X.G O.@.&.&.O.X.@.O.G O.",
"D X.D D q X.O.&.X.O.O.X.O.G X.X.X.O.O.X.O.X.G G G O.O.O.D O.X.O.O.X.@.X.G G n O.&.O.O.O./ O.O.D X.O.O.O.O.&.O.o.-.*.O.G &.&.&.J ",
"A D X.D q X.*.G O.O.O.O.G G *.O.O.&.O.O.*.F o.O.O.o.H G G o.X.X.+.&.O.@.X.X.X.) @.o.*.O.X.O.+.O.O.&.O.X.G G O.X.@.&.O.X.@.X.O.O.",
"D A D O.q ) ] C [ c +.c ^ / ~ m m C ^ y [ b z ( m C M J &.c ) +.) ( @.~ / ^ ~ ) b m B ( O.( [ B ~ ( ( [ ) B m @.O.X.O.G +.X.G @.",
"D G F D D b < 5 f g u f x : U i > 6 j > h y N y 1 &.r j a X ` O.5 @ k & N s = c & Q : & _ 3 ` 6 6 k 5 7 R # a #.X.@.&.O.G J G -.",
"G G n X.D c > I 4 u > g c & ( a + f j + 6 = m y + V - f E O ` G 1 @ E = ~ a = x 3 ` ; u k < j 6 5 x > < W O g o.O.*.&.O.O.J G G ",
"G X.q D Z b k +.c k m s N ! i ~ a x ! k x x p x x a V k k k ( o.` B =.s a u f k k B s M c B N N f j c N x j N @.G @.X.O.O.O.O.O.",
"D n X.F 9 X.X.n G +.G D F F o.D F O.O.X.X.o.X.@.H O.H O.o.o.@.X.J *.O.o.O.@.*.M @.o.F F o.J O.O.o.O.H O.G o.G O.O.O.F D X.O.X.X.",
"A D A D q n q O.O./ n X.O.D M D n O.X.O.G D O.*.D O.O.O.L X.O.O.*.G X.G O.G G X.G O.G X.O./ D G G D n -.X.O.O.X.O.O.X.D O.X.X.X.",
"D D D D n n X.O.O.q X.O.D G D X.O.G O.G G F *.G X.O.X.D O.F &.@.&.&.G F G G G O.G &.O.O.O.M G D D G D O.F O.G O.G O.O.O.G O.O.G ",
"D n D D n n D G D X.D q D G X.G J G D O.X.n G O.O.X.G D *.O.O.X.X.X.D X.J D G G G O.G O.O.O.G D D O.O.G G J &.G D O.D X.G +.X.X.",
"S D n G 0 D X.X.D O.O.q D O.D F / X.X.O.O.D O.O.O.O.G G O.o.H J O.F X. .X.F D O.H O.D X.X.O.O.D D O.O.X.D O.G O.D G O.O.O.O.@.O.",
"A X.A A v O.D n G X.O.n G D q D X.X.X. .O.D O.O.O.+.X.D O./ m o.D O.X.X.X.D O.X.O.o.G O.X.X.O.G D X.X.X.X.@.O.+.O.X.O.O.O.O.&.+.",
"X.G D D v X.n D O.X.D D M G X.X.D X.A X.n O.X.O.G X.X.O.o.s u o.X.X.O.X.X.O.D X.X.X.G G F G G X.A X.X.O.O.o.G &.O.F X.X.X.@.&.o.",
"A D n D 0 G O.F X.D D D D G X.L O.D F X.+.F b O.G X.o.b s 6 1 j [ o.) O.X./ O.O.F G G O.X.G O.O.o.X. .+.G G G O.X.O.O.G O.&.O.O.",
"F D A X.q D X.X.G X.D D D G O.D D X.O.X.C j - u ) u O.m t W s j ~ +.a ) a ; d ) G G F G O.X.X.D D X.G +.O.G G X.D O.X.o.*.O.@.O.",
"D D q D q D X.D S O.A X.D D D D o.c a O.t y y g j - a O.a 1 & f O.s y a g d u u [ i s o.D X.X.n D D G G O.O.O.O.D O.O.D O.O.O.*.",
"v X.q D v D D D G X.D D D F D D M a u u 6 6 u f ; 6 : : 5 ~ m 6 & : : 5 f a : 6 u g u ) G G O.F D D G D X.X.X.D O.O.X.D O.G O.O.",
"X.A A A q F D G D n D D D G D F l 6 f : I u ) f 2 g s 5 5 =.&.f 1 U I 5 = ( s s r : 3 j @.D G D D q O.G O.O.D A G X.X.X.o.O.H X.",
"q D D q 9 O.G D D D D D D D A D U y 6 6 ; ! c 6 # 5 f y 1 j s & g y 5 # = s ~ ; y ; : u O.D D D G G X.D F X.F X.D G G G O.O.O.+.",
"Z X.F A 9 X.D G D D D D D G D X.u 6 y 6 6 5 6 ` k x x u 6 ; : 5 y U ~ s ` f 1 ; u j u - M G G D F M D G X. .G O.O.o.F X.O.O.O.X.",
"Z X.0 D D n F / G D A G G D D ( : y u y , f : : c %.) g Y f : : 6 ( o.) u 5 g - y u g d c H G D D G O.X.X.X.D G G F G *.O.O.*.O.",
"D D A F n G X.n D X.v D D D X./ r y g 5 3 6 6 u u s % a g f g d g 1 E a W h f 6 g a y y m o.H F X.D X.D D M O.G G X.O.&.&.G +.J ",
"9 A v F v O.D X.X.D D G D A D / t y y 5 6 3 : W k t u U f f g k ' g : I i g y = g a d t b D H S D D D G D D D G O.O.H O.X.O.G o.",
"D D D q v G X.n X.D D G G X.D X.a = u 6 2 6 6 6 y Y E e < + 5 j j k f u u g h : r y f y O.A D D G G D O.X.G D F G O.G +.o.X.O.O.",
"F q q A D X.n G D G D D X./ O. .s X h y y 6 6 3 6 f u u 1 5 6 & k j T h 6 4 6 : y y - x o.G G D X.O.G O.O.D X.O.G O.G X.X.X.D @.",
"G n D G v G O.D n n D X.G O.F v / d & P Y E h 6 5 5 5 5 g Y 5 Y 6 h 6 T ; 6 g : - : s G D G G D F D D O.X.D G &.O.O.O.O.O.O.o.K ",
"S F D D n J D G X.D n D D A D G D X.y a u d u : y u 6 f f & 7 , g g y j g d h f E z X.n O.D G O.G G D G F G G G F G o.X.O.*.G *.",
"Z S D A v O.D G D G q X.D D D D D D ^ t m _ x x j y r y 1 @ # < 5 R f d k _ B N ) X.X.O.O.X.G O.G O.D O.O.G G X.D +.O.G &.H *.G ",
" .D D F S D D D D D  .v G D D D G X.X.y U o.o.k 1 $ ; 6 6 Y g P 5 5 # 6 g X.) 3 g X.X.O.X.X.G D D X.O.G O.D G X.D &.O.O.@.@.+.-.",
"A D A D v O.n D D G D F F D D D D X.H m > b / g P 5 : E 1 1 < 2 j T 7 5 g k y y g t O.X.X.G D G G G G J G X.X.D &.O.D F O.-.*.O.",
"q o.G v v G G D M G v D G n D A v G G X., & s a 6 8 : T ; 1 2 7 6 5 6 5 j g 6 g y 3 ) X.X.D G X.G O.G F D O.X.X.O.G G O.G *.*.@.",
"Z H G S 0 G S G S H G D n D O.D D G F b y 4 ; f g f f 6 5 > # 1 6 d g t j j y 3 : ( O.M O.D D D G X.G D O.D G G G o.G G J *.*.O.",
"D S S S v G J J M S D D D F D X.F D X.A c y & [ k u j 6 2 6 ; 1 6 j j g &.c x B ) G F X.O.D D F F O.D F X.X.F G G O.O.X.X.O.@.&.",
"S S F A 0 D D D G S q D X.D G D D O.D D X.b c o.a 4 d 5 3 g k 3 3 6 6 g G F G o.O.D A X.X.H F D D O.O.G D X.G G O.O.O.X.o.J o.&.",
"S S Z G S D D v G G G G n v G n n X.D G D G G O.b N a g g 6 6 y g E N ] J G G J X.O.o.X.X.O.*.O.O.O.G G X.O.O.D O.O.X.D -.G *.&.",
"A D v S D v D O.G M D D X.A n D D D X.D n X./ G O.X.X.X.) ` N C ) X.@.o.X.O.O.O.O.X.O.D X.O.O.X.H G X.X.X.O.+.S X.X.X.O.G *.+.*.",
"n D D v n O.X.D D G v A D D D O.n D D  .X.X.G G O.X.X.X.O.X.o.@.O.) O.X.X.O.X.O.&.O.*.o.O.G D  .G O.X.O.O.D G O.O.O.O.G O.@.+.&.",
"D X.D D n D M D n G G D D D D D D O.X./ L G G O.X.D G G O.X.X.) =.X.O.G O.O.X.G &.O.G O.O.O.O.G G *.X.O.@.D D O.O.O.o.F X.G *.O.",
"q  .n D 0 X.G D n O.G v n  .n n n G O.q X.O.F @.X.X.n X.&.O.X.@.O.O.O.O.X.O.X.O.@.O.D X.O.O.X.G *.@.F O.X.F F O.O.X.O.@.X.+.*.&.",
"/ D O.q v O.D D G G G G X.q X.n ) O.D n X.X.D O.X.X.X.D J &.O.O.O.&.G O.&.@.o.X.O.O.O.F X.X.O.O.O.O.G O.o.G G O...X.X.O.X.O.*.*.",
"G D X.D v O.O.M J D G n X.n X.X.O.O.O.O./ X.X.O.) O.X.@.O.M =.X.X.-.G @.&.*.G @.O.*.O.D X.X.X.F O.H D X.O.O.O.O.X.X.O.O.O.@.&.@.",
"D D ) D n X.D / n n q D / X.X.O.X.O.O.&.O.O.n O.O.O.D X.O.X.O.@.@.=.X.O.O.@.O.O.O.@.F &.X.o.G -.G G G O.G G G O.O.G o.O.G K G *.",
"D G &.G n O.G D q D v D D n G D ) X.X.X.M X.O.D D X.X.O.O.O.O.O.O.) @.@.O.X.O.O.O.O.D O.X.@.G G X.+.O.O.O.G G O.O.o.G G *.O.X.*.",
"n G O.G v D G G D q X.D q D G D X.n D / / D G D G O.D X.O.M O.@.*.&.X.O.O.O.X.O.*.O.O.G O.G G G O.O.O.X./ O.O.O.X.O.O.X.O.O.&.@.",
"G D O.) S K G M D O.D v D D X.G F D D F G H G *./ X.X.G G o.O.) U ) O.@.D +.&.+.O.*.O.o.+.O.F @.o.O.+.@.+.O.#.F +.O.G X.X.&.J G ",
"G O.O.n l x V S M s z D c p l O.l m z z ) l O.B / l z +.m c ) U u W ) &./ s x ~ O.x ) x m @.c l l ) B U ( [ s s c &.&.X.O.O.X.O.",
"M X./ O.> 6 , c * s * c = = s ( % a t - ~ . ] X ( % u $.u & ( X | X ! %.^ . W ! ( . ~ + s *.u f $ &.@ E x ~ : > s O.&.O.O.O.O.G ",
"D O.D G , 1 3 k . O.r y f & s D * : & : ( X g X [ & 3 I Y & ( @ 8 O ` *.) @ Y s [ > 6 O ! %.s Q > @.> h c %.N > -.G G G &.&.G J ",
"O.G D G > g > f $ G * a - d M ) % a y f B @ { X m % E & o 3 (   g > ' #.^ # _ . ' + g > j i I u > &.$ ` ) o.g < +.+.O.X.G G G G ",
"q A v S % : - m t i - n w r a c : ! y u c 3 ( & ( - 6 d 6 : ( & ( & ` +.^ & Y u ` 1 { 5 Q 1 U s ; | 3 j g O.j 3 o.O.G O.G O.O.O.",
"A q S A v M n D n q A A D ) b G D n O.X./ D X.O.D G M o.X.O.-.X.X.O.+.@.X.X.) o.@.O.O.X.X.&.&.X.X.O.O.C -.X.O.X.) O.J G O.G X.X.",
"v A D Z S G D G n D q D G S X.G v D G D X.O.O.n J D G G O.D O.D X.O.G X.X.X.*.@.X.o.X.o.O.G X.O.K O.O.o.X.O.H X.G G G G G G G X.",
"A v G A S S S D D Z Z D D A D A D D D D D O.O.O.D X.G O.D F X.X.X.X.H O.o.&.G F O.O.O.A X.O.G G O.X.&.O.X.G O.X.G O.G F X.G D F ",
"0 D q q 0 D S D A D Z D D n D X.G D D X.X.n O.D G D X.O.O.O.O.X.D G o.X.X.G O.O.o.O.G O.G O.X.G ) O.*.G X.@.O.X.X.G O.O.G M O.G ",
"9 S D q S G D D D D D A D G X.X.q F D O.G n O.&.D O.D G G G O.X.D O.X.O.X.O.*.X.O.X.O.&.X.F G G G O.O.D O.O.D O.X.C O.O.G O.O.n ",
"Z S D A 0 F D D G D D D O.n A X.F F X.X.O.D F F D G G F G &.&.G G O.+.X.F o.D o.O.O.O.O.O.G O.O.G G O.D O.O.+.D G G G D O.O.G G ",
"Z 0 A S 0 G D D S G n G G n D q D A D L O.G D D O.D G X.G G G n F F &.F X. .G O.@.X.O.X.*.M n X.H G X.G G O.&.G O.X.G O.X./ O.O.",
"S 0 Z A D G O.S G F D F D D F D X.X.D X.O.D D D G F D O.G F D O.D X.o.X.X.o.H O.=.X.X.O.X.H G X.O.G G O.@.F G &.O.G D O.O.D G D ",
"A D S v S G G S D D A A S G D X.D X.D n X.D D O.X.D n O.X.G X.O.X.X.X.O.X.X. .X.=.X.X.O.&.O.D G O.G G G ) D F J G O.G n q G G X."
};
