/* XPM */
static char *_505c0b2720c4e12be34b11f8d399d65j7Dz62QMCg1hNb8e[] = {
/* columns rows colors chars-per-pixel */
"50 50 233 2 ",
"   c #190F0F",
".  c #1D1313",
"X  c #1B161C",
"o  c #180F11",
"O  c #230E0E",
"+  c #231514",
"@  c #241816",
"#  c #2A1916",
"$  c #251A1B",
"%  c #2A1D1B",
"&  c #2A1614",
"*  c #321E1A",
"=  c #371C18",
"-  c #2E201E",
";  c #3B221D",
":  c #35211D",
">  c #181924",
",  c #281F24",
"<  c #1A2436",
"1  c #2B2224",
"2  c #2B252B",
"3  c #342523",
"4  c #3B2D2C",
"5  c #392825",
"6  c #282833",
"7  c #342D33",
"8  c #393130",
"9  c #44241D",
"0  c #4B261D",
"q  c #54271B",
"w  c #4C2A22",
"e  c #422A24",
"r  c #572D22",
"t  c #4A322B",
"y  c #5A362B",
"u  c #473A39",
"i  c #553A35",
"p  c #633325",
"a  c #6B3829",
"s  c #733D2A",
"d  c #793826",
"f  c #663429",
"g  c #4B1C11",
"h  c #58433B",
"j  c #49433D",
"k  c #6D402F",
"l  c #7C422C",
"z  c #77412C",
"x  c #694537",
"c  c #7B4532",
"v  c #774937",
"b  c #77503B",
"n  c #1F2B45",
"m  c #31374A",
"M  c #483E40",
"N  c #4C4445",
"B  c #584946",
"V  c #5B5656",
"C  c #55514F",
"Z  c #734D44",
"A  c #62544B",
"S  c #785647",
"D  c #665A56",
"F  c #73554D",
"G  c #79665A",
"H  c #686055",
"J  c #746C6A",
"K  c #79716D",
"L  c #7A7476",
"P  c #6D6769",
"I  c #843D28",
"U  c #85432B",
"Y  c #8C4329",
"T  c #874428",
"R  c #91492C",
"E  c #834531",
"W  c #844A33",
"Q  c #8C4C34",
"!  c #884A36",
"~  c #924E33",
"^  c #984835",
"/  c #89533B",
"(  c #955234",
")  c #9B5433",
"_  c #93553A",
"`  c #9D563B",
"'  c #9D5B3C",
"]  c #995A39",
"[  c #96522E",
"{  c #A25B3D",
"}  c #A25738",
"|  c #9E603D",
" . c #A7603A",
".. c #B0663F",
"X. c #895B45",
"o. c #955B44",
"O. c #805E52",
"+. c #A15D41",
"@. c #A85F43",
"#. c #BD5F4C",
"$. c #8B634E",
"%. c #9D6142",
"&. c #97664C",
"*. c #8C6A58",
"=. c #936A57",
"-. c #A36343",
";. c #AB6343",
":. c #A46B4B",
">. c #AB6D4B",
",. c #A96848",
"<. c #B36C4A",
"1. c #B36749",
"2. c #B8734E",
"3. c #A87657",
"4. c #B37554",
"5. c #BB7652",
"6. c #B97957",
"7. c #AD6F51",
"8. c #8A7767",
"9. c #957968",
"0. c #8E7E74",
"q. c #A57A62",
"w. c #C37A5A",
"e. c #C56B53",
"r. c #D87F69",
"t. c #96897A",
"y. c #8C877A",
"u. c #B88469",
"i. c #A38A78",
"p. c #A38473",
"a. c #B88B73",
"s. c #BE967E",
"d. c #A88A72",
"f. c #C5825B",
"g. c #C8845C",
"h. c #CD8B64",
"j. c #C78967",
"k. c #D18D69",
"l. c #CC916B",
"z. c #D4946C",
"x. c #D7986E",
"c. c #C4957B",
"v. c #C99677",
"b. c #DA9D74",
"n. c #D69A77",
"m. c #CA8C70",
"M. c #E59A77",
"N. c #DDA37A",
"B. c #DBA175",
"V. c #E1A57C",
"C. c #7C7A82",
"Z. c #9A9091",
"A. c #90898A",
"S. c #A78F89",
"D. c #A79783",
"F. c #B99B87",
"G. c #AD9E9D",
"H. c #B3A38C",
"J. c #B9A696",
"K. c #BDB19C",
"L. c #AFA38E",
"P. c #A8A5A8",
"I. c #B4AAA7",
"U. c #BBB7B8",
"Y. c #B7B0AF",
"T. c #C89B84",
"R. c #D19C81",
"E. c #E59C85",
"W. c #C9A288",
"Q. c #D9A985",
"!. c #DCB597",
"~. c #D2AF92",
"^. c #E5AC84",
"/. c #E7AF8A",
"(. c #E8B38A",
"). c #ECBB93",
"_. c #E3BB9B",
"`. c #EABE99",
"'. c #E6B595",
"]. c #F0BF98",
"[. c #ECAD95",
"{. c #D6BCAA",
"}. c #C5BCB9",
"|. c #CAB2AA",
" X c #ECC19B",
".X c #F1C19C",
"XX c #CCC1BB",
"oX c #DEC9BD",
"OX c #EBC6AB",
"+X c #F2C6A2",
"@X c #F4CAA5",
"#X c #F4CEAC",
"$X c #F8CCA9",
"%X c #F6D2AF",
"&X c #F9D4AF",
"*X c #EDCCB1",
"=X c #F4D3B4",
"-X c #FAD5B4",
";X c #FAD9B6",
":X c #FADBBB",
">X c #F6D7BA",
",X c #F0CBB5",
"<X c #FDE0BF",
"1X c #CCC8C8",
"2X c #D6CCC7",
"3X c #DBD0CB",
"4X c #DBD8D7",
"5X c #E1CDC8",
"6X c #FCDEC1",
"7X c #F6DAC4",
"8X c #E6DBD5",
"9X c #F5DFD4",
"0X c #E2D0C6",
"qX c #FCE2C4",
"wX c #FBE4CB",
"eX c #FDE9CE",
"rX c #F5E0C9",
"tX c #EAE3DE",
"yX c #FDEBD4",
"uX c #F8EADA",
"iX c #FDF1DB",
"pX c #EEEEEE",
"aX c #E8E4E3",
"sX c #F4ECE6",
"dX c #F2EEEC",
"fX c #F5EBE6",
"gX c #F4F1EE",
"hX c #F8F2EB",
"jX c #F5F5F5",
"kX c #F4F4F4",
"lX c #FAF6F4",
"zX c #FBF8F6",
"xX c #F9F9F9",
/* pixels */
"jXjXpXkXkXpXkXkXxXpXxXxXjXpXpXpXgXkXkXaXP.K D C N N M M N N V P P.4XjXkXkXkXpXjXpXjXpXjXxXpXjXkXxXkX",
"jXjXpXkXkXkXjXjXxXpXxXjXkXkXpXpXkXaX}.K N 4 3 2 1 % - % $ 1 2 7 N L 1XpXkXkXkXjXpXjXpXjXjXpXxXkXxXpX",
"jXxXpXkXkXkXjXjXjXkXjXkXxXjXpXpX2XZ.D u t e 5 5 3 - % % - - 3 4 t u P 1XpXjXkXjXkXxXpXkXkXpXkXkXxXkX",
"jXxXpXkXkXpXjXxXxXpXxXkXjXjXaX1X0.x i w e ; ; 5 : * % % $ - $ - 3 4 u A.4XjXpXjXkXxXpXjXkXkXkXkXxXkX",
"jXjXkXkXkXpXpXkXxXpXxXkXjXjX3Xd.O.a w 5 ; ; * % - # @ @ . . . . - 3 8 P 1XjXkXjXkXjXpXjXpXpXjXjXkXkX",
"jXjXpXkXpXpXkXxXxXpXjXjXjXaXJ.*.Z t : : e : # @ # . . . .   . . . - 3 V 1XxXpXjXkXxXpXkXpXpXjXpXkXpX",
"jXxXkXkXpXpXkXjXkXpXkXkXjX2X*.x e * # * ; # # # # + # # + + . . . + % m U.xXpXkXkXxXpXkXpXjXjXpXkXkX",
"kXjXkXkXpXkXjXjXzXpXkXkXdXJ.b t ; = = 9 ; 9 0 w 9 9 0 q 0 9 ; = # + + 2 C.4XpXkXkXxXpXkXpXjXpXpXkXkX",
"kXjXjXjXkXkXkXkXkXpXpXjX2Xp.x w 9 0 r y k b / | / / c W z k a p r 9 - @ 2 C.aXpXkXxXpXjXpXpXjXkXkXkX",
"jXkXkXjXkXxXkXkXxXpXpXjX|.$.k p p z W &.f.l.B.B.z.j.f. .( Q T l c c y : , 8 P.pXxXxXpXjXpXkXjXpXkXkX",
"jXkXpXkXkXxXkXkXkXpXkX8Xs.&.W c [ >.j.(. X X).V.V.B.h.5.>. .| _ _ / X.a * $ B U.kXxXpXjXpXpXxXpXxXjX",
"jXpXkXjXxXxXkXjXxXpXjXJ.$./ | >.j.!.&X&X.X X.X).^.N.x.g.6.2.<.-.o.%.%.X.i @ , D 4XxXaXjXpXkXjXpXxXjX",
"kXpXkXkXkXxXjXjXxXpX3X*.c o.6.l._.<XrX;X.X.X.XV.V.B.x.h.f.f.>... .%.:.&.b 9 X j U.xXpXjXkXpXjXpXkXjX",
"kXkXpXkXxXxXkXkXjXjXI.v z 6.v.!.<XyXeX<X@X.X(.V.B.b.x.h.f.2.>.| o. .-.:.&.x % 8 Z.xXpXjXpXkXjXkXkXjX",
"kXjXkXkXxXxXkXkXjX3XG f / m._.rXiXiXwX:X@X.X).V.V.B.x.h.w.<. .| ' o.| :.7.X.; 3 K pXpXjXkXkXxXpXjXjX",
"kXxXkXpXxXxXkXkXxX}.F v 3.Q.>XiXiXyXqX;X&X.X).^.V.V.b.g.5.,.-. .` ' | -.:.&.y 2 A 4XpXjXjXkXkXpXjXjX",
"jXxXkXkXjXjXkXaXkXt.$.p.!.#XqXiXiXeX<X:X$X+X.X(.V.b.x.h.w... .{ } ' ] | :.&.x : A XXxXjXjXjXjXkXkXkX",
"jXxXpXpXxXkXkX4XlXp.&.s.=XqXwXyXyXeXqX;X-X@X.X(.M.x.k.k.f.2.1.{ } ' ' ' >.:.b ; h U.xXjXxXjXkXkXkXkX",
"jXjXkXpXkXkXkX3XdX9.3.N.=XqXqXeXeXwXqX<X-X$X.X(.b.k.k.k.w.w.;.{ { ` ' ' :.:./ e B Y.xXjXjXjXkXpXpXkX",
"jXjXkXpXkXkXxX3XoXp.u.~.=X<XqXwXwX<X;X;X-X@X.X/.x.h.h.h.w.<.{ } ` ' ` ' -.3.$.y h Y.xXjXxXkXkXkXkXkX",
"jXpXjXpXkXjXxXK.J.d.3.Q.-XqXqXyXwX=X%X@X@X X).^.z.w.j.w...;.' ` ( _ _ ' &.>.$.k h I.xXjXjXjXjXkXkXkX",
"jXpXkXkXkXjXxXi.t.3.3.!.;XqXwXqX*X~.v.v.c.c.v.n.k.5.2.;. .` Q E c v c v | 3.&.h h G.xXjXjXjXjXkXkXpX",
"jXpXkXpXjXxXxXi.t.=.3. X:X6X*X{.s.3.$.b S $.&.%.o.~ Q E l z b O.$.F h t h b S x h G.jXjXjXjXjXjXjXpX",
"jXpXkXkXjXjXxXXXXX*.$._.*XXXW.q.8.G h j A 8.8.*.z U I d f i J i.L.8.j 2 1 2 j 8 C 1XjXjXjXjXjXjXxXpX",
"jXpXxXkXjXkXjXaXaX9.b T.T.i.*.F G G h j H L.L.s.b Y I d t 8 0.J.K.t.C 4 - X < 2 J pXpXkXkXkXxXjXxXjX",
"jXpXjXkXkXjXxXaXzXJ.$.q.=.X.v x F G A j A L.L.H.x &.+.f e 2 J L.K.y.V j 1 > < 6 A.jXkXkXkXkXxXjXxXjX",
"jXpXxXkXkXxXxXfXzX[.v.=.X.b s a x x h t j i.H.i.Z c.h.d 9 $ C D.K.A.V N 7 > < 6 Z.xXkXkXkXkXxXjXxXkX",
"jXpXxXkXkXkXkX9XlXE.'.q.X.! s s k h r w t y.H.i.S m.5.E 9 @ t y.I.C.V m 6 > > 7 Z.jXkXjXjXkXjXxXxXkX",
"kXkXxXkXkXjXjXfXxX,X#XW.| T T l k p r 0 r =.F.d.Z m.n.( 0 O @ 8.G.K m n < > , i I.xXkXjXkXkXjXkXkXpX",
"kXpXxXkXkXpXkXkXxX7X`.'.3. .) / z k p g q X.d.8.S OX^.{ p &   D 0.V m m > > 2 Z {.xXjXjXjXkXxXxXpXpX",
"kXpXxXkXkXkXkXkXxX7XV.#Xu. . .] l p ; O = h 9.9.c.6X/.;.U w + 8 M 7 2 < X o 3 O.5XxXjXjXkXxXxXkXkXpX",
"kXkXxXkXxXkXkXxXxX7Xb.&XQ.>. . .b w =     5 i q.,X:X/.2._ z 0 @ + > > > o X 5 =.5XkXxXjXkXxXxXxXkXkX",
"kXkXkXkXjXjXjXjXxXfX,X&X-Xv.,._ S i - @ @ ; S ,XuX:Xn.1.` ~ d r 0 = 3 1 * y X.q.8XjXzXkXjXxXxXxXxXpX",
"kXkXxXkXjXjXjXjXxXxXuX6X:X>X!.a.$.a w q q a F.>X:X+Xw.+.( Q U I I Q Q Q ^ o.4.T.fXpXzXjXjXxXxXkXkXpX",
"jXjXkXkXkXkXjXxXxXzXhX:X=X:X:XOXm.@.R I d E o.1.u.k.@.~ d d I I I I ^ +.+.@.4.T.zXpXjXjXjXjXxXxXpXpX",
"jXjXjXkXjXjXjXkXxXkXjXzXfXwX:X.Xj.} I U _ &.4.m.n.5.~ U I d I I I I ^ ^ ` ,.a.0XjXkXjXjXxXxXxXxXpXpX",
"jXxXxXkXkXkXkXkXjXpXkXlXzXyX;X/.2.R T _ q.!._._.Q.5.@.~ ! E Y U Y U T [ ] 3.oXjXpXkXxXjXjXxXxXxXpXaX",
"jXjXkXkXkXxXjXxXjXkXpXjXxXiX-X^...R T _ T.OXOX_.Q.w.7.+.~ Q Q Y U d R [ ` u.tXlXpXpXkXjXjXxXxXxXpXpX",
"jXxXkXkXkXkXkXxXjXjXpXjXjXsX7X/.e.) I ! o.q.v.z.j.4.+.~ E c a p d T [ } { W.kXxXpXpXxXkXkXxXxXxXkXaX",
"kXkXjXjXkXkXjXxXjXjXkXjXjXzXuX`.h.1.@.4.a.T.R.n.n.j.,._ I a p d T R ) } 6.3XjXjXkXpXjXjXkXxXxXkXkXpX",
"kXkXpXkXjXkXjXjXkXkXkXkXkXjXhX=XB.f.f.V.%X>X*X'.E.m.w.1.I d d T R [ ` 7.{.fXkXjXpXpXkXkXkXxXxXkXkXpX",
"jXxXkXkXjXxXjXjXjXpXkXkXjXjXjXuX_.B.B. X=X<X>X(.r.e.e.#.^ I W Q ( ) o.W.aXkXjXxXpXpXkXxXkXxXxXkXpXpX",
"jXjXkXkXjXjXjXjXjXpXjXkXkXkXjXhXrX X X@X%X:X=X'.r.@.1.@.^ ^ ( [ ( ] a.5XdXjXjXjXpXkXpXjXkXxXxXxXpXpX",
"kXjXpXkXjXxXjXjXxXpXjXjXjXjXkXkXhXrX#X&X;X%X%X Xk.4.;.` ^ ) [ ]  .3.5XdXkXkXjXkXxXpXpXjXjXxXxXkXjXpX",
"kXkXpXkXjXjXjXjXkXkXkXkXjXkXkXkXgXgXuX:X<X&X@X XQ.k.5.{ ( Q ( | 3.XXuXgXjXjXjXxXxXpXpXkXxXxXxXkXjXpX",
"kXkXpXkXkXkXjXjXxXpXjXkXxXkXkXkXkXgXlXuXqXqX;X%X+X^.z.<.] | | :.~.aXkXkXjXjXjXjXkXpXpXkXkXxXxXkXxXaX",
"kXkXpXkXkXkXjXjXjXpXjXkXjXkXkXkXpXkXjXjXyXqX:X:X@X^.j.4.%.| | a.tXgXkXkXxXjXkXkXkXkXpXkXkXkXxXkXxXpX",
"kXkXkXkXkXkXkXxXxXpXjXkXxXpXpXkXjXpXjXjXlXwX:X#X'.l.6.,._ ] 3.3XpXxXkXkXkXkXxXxXpXpXpXkXkXxXxXkXxXpX",
"kXkXkXpXkXkXkXkXxXpXxXkXkXpXkXkXkXpXjXjXjXxXsXOXW.3.&.&.&.p.oXaXjXjXkXkXkXxXjXxXkXkXpXkXkXkXkXkXxXpX",
"kXkXpXkXkXpXkXxXjXpXxXkXkXpXpXkXkXaXkXkXxXjXxXjXtX|.|.XXgXjXgXkXjXjXxXgXjXxXxXkXpXjXpXkXkXkXkXkXjXkX"
};
