/* XPM */
static char *result[] = {
/* columns rows colors chars-per-pixel */
"64 64 243 2 ",
"   c #0F0A0F",
".  c #140A0B",
"X  c #140C0C",
"o  c #120D13",
"O  c #1B0E11",
"+  c #1C1313",
"@  c #191519",
"#  c #1C141A",
"$  c #221415",
"%  c #231519",
"&  c #231918",
"*  c #241B1A",
"=  c #2A1B1D",
"-  c #2A201E",
";  c #261B23",
":  c #2B1E23",
">  c #311E23",
",  c #2D2223",
"<  c #2B252A",
"1  c #332425",
"2  c #34242A",
"3  c #38262A",
"4  c #352A2B",
"5  c #3B2B2C",
"6  c #322B33",
"7  c #362C33",
"8  c #3C2B32",
"9  c #3A3337",
"0  c #4E282D",
"q  c #462D35",
"w  c #433233",
"e  c #483637",
"r  c #46323C",
"t  c #49353C",
"y  c #4D3B3C",
"u  c #55393C",
"i  c #613A3F",
"p  c #53403F",
"a  c #3C3B45",
"s  c #1C3F62",
"d  c #473C45",
"f  c #4D3B43",
"g  c #523B43",
"h  c #563D48",
"j  c #643F45",
"k  c #3C4654",
"l  c #1D486C",
"z  c #284969",
"x  c #35506C",
"c  c #294E71",
"v  c #2A5276",
"b  c #2B567A",
"n  c #335778",
"m  c #46424A",
"M  c #544243",
"N  c #57444A",
"B  c #5B444B",
"V  c #5D4A4C",
"C  c #4A4A54",
"Z  c #5B4852",
"A  c #4E505B",
"S  c #57535B",
"D  c #64474B",
"F  c #634D53",
"G  c #674C58",
"H  c #714E56",
"J  c #655256",
"K  c #67545B",
"L  c #69545B",
"P  c #75545B",
"I  c #4A5B6F",
"U  c #595967",
"Y  c #695966",
"T  c #785A66",
"R  c #735C6C",
"E  c #785E70",
"W  c #506176",
"Q  c #5D6474",
"!  c #636168",
"~  c #77626B",
"^  c #676978",
"/  c #796472",
"(  c #796876",
")  c #767279",
"_  c #84646E",
"`  c #836877",
"'  c #86717D",
"]  c #2D5C82",
"[  c #335E84",
"{  c #35648B",
"}  c #396588",
"|  c #366F94",
" . c #3C6C92",
".. c #386E97",
"X. c #446889",
"o. c #4D6E8B",
"O. c #5A7188",
"+. c #457599",
"@. c #577897",
"#. c #5A7B9C",
"$. c #6C7484",
"%. c #6E798A",
"&. c #6F7B8D",
"*. c #767684",
"=. c #737B8B",
"-. c #447AA4",
";. c #4C7DA2",
":. c #876E82",
">. c #887485",
",. c #8D7B8C",
"<. c #937A8C",
"1. c #8D7D97",
"2. c #957D92",
"3. c #997E94",
"4. c #7D818F",
"5. c #6B8298",
"6. c #758193",
"7. c #7A8495",
"8. c #7C8799",
"9. c #7E8A9B",
"0. c #4A82A8",
"q. c #4D84AB",
"w. c #5786A9",
"e. c #5589AD",
"r. c #4B8AB7",
"t. c #558CB3",
"y. c #598EB4",
"u. c #5B91B6",
"i. c #5B93BB",
"p. c #6887A9",
"a. c #7C95AA",
"s. c #698DB2",
"d. c #6494BA",
"f. c #7496B9",
"g. c #5D99C3",
"h. c #5899C9",
"j. c #549BD0",
"k. c #669BC7",
"l. c #739DC5",
"z. c #639FD0",
"x. c #5CA3D8",
"c. c #68A0CC",
"v. c #77A2CC",
"b. c #67A4D6",
"n. c #7AA7D6",
"m. c #5BACE5",
"M. c #68ABE4",
"N. c #71B0EA",
"B. c #79B8F4",
"V. c #848896",
"C. c #818C9D",
"Z. c #968292",
"A. c #9A8495",
"S. c #948993",
"D. c #9B8799",
"F. c #A28797",
"G. c #A18B9D",
"H. c #A8909F",
"J. c #838EA1",
"K. c #888FA2",
"L. c #8592A4",
"P. c #8995A8",
"I. c #8D9AAB",
"U. c #9494AF",
"Y. c #949AA9",
"T. c #A38CA2",
"R. c #A88FA5",
"E. c #A592A5",
"W. c #AA94A5",
"Q. c #A696A9",
"!. c #AA95AA",
"~. c #AD99AA",
"^. c #B096AB",
"/. c #B19DAD",
"(. c #AB9BB1",
"). c #B29EB1",
"_. c #98A1AE",
"`. c #95A2B4",
"'. c #99A6B8",
"]. c #9BAABC",
"[. c #A4ACB9",
"{. c #B6A2B4",
"}. c #BAA5B5",
"|. c #B0ABB4",
" X c #B6A4B9",
".X c #B9A6B9",
"XX c #BBAABC",
"oX c #C2B0BB",
"OX c #86A6CC",
"+X c #9EACC1",
"@X c #86ACD7",
"#X c #8EB1D9",
"$X c #95B4D8",
"%X c #A1ADC2",
"&X c #ADAAC6",
"*X c #BCADC2",
"=X c #A4B2C5",
"-X c #AAB6C5",
";X c #A8B5CA",
":X c #ADBBCC",
">X c #B9B7C5",
",X c #A8B5D7",
"<X c #AEBDD1",
"1X c #B2BED2",
"2X c #B4B9D6",
"3X c #88B4E3",
"4X c #95B9E5",
"5X c #81BEFC",
"6X c #A7BDE2",
"7X c #C1AFC2",
"8X c #C2B3C5",
"9X c #C3B5C9",
"0X c #C6BACC",
"qX c #C8BCCE",
"wX c #CABDD1",
"eX c #B9C2CC",
"rX c #B4C2D4",
"tX c #B9C6D5",
"yX c #BDC8D2",
"uX c #B6C3D9",
"iX c #BAC6DB",
"pX c #BCC9DC",
"aX c #84C3FC",
"sX c #BECCE1",
"dX c #CAC8D5",
"fX c #CECBD5",
"gX c #D5D7DB",
"hX c #C1CDE3",
"jX c #C9D6E9",
"kX c #D9D8E1",
"lX c #CDDBF1",
"zX c #D1DEF4",
"xX c #DEE1E5",
"cX c #D9E5F6",
"vX c #E5E6E9",
"bX c #EBEBED",
"nX c #F0EFEF",
"mX c #E9EEF4",
"MX c #EEF2F6",
"NX c #F4F4F5",
"BX c #F5F6F9",
"VX c #F8F8FA",
"CX c #FFFFFF",
/* pixels */
"CXCXCXCXCXCXCXCXCXCXCXCXCXCXCXCXCXCXCXCXCXCXCXCXCXCXCXCXCXCXCXCXCXCXCXCXCXCXCXCXCXCXBXCXCXCXCXCXCXCXCXCXCXCXCXCXCXCXCXCXCXCXCXCX",
"CXCXCXCXCXCXCXCXCXCXCXCXCXCXCXCXCXCXCXCXCXCXCXCXVXeXeX-Xa.o.L.-X-XgXNXCXCXCXCXCXCXCXCXCXCXCXCXCXCXCXCXCXCXCXCXCXCXCXCXCXCXCXCXCX",
"CXCXCXCXCXCXCXCXCXCXCXCXCXCXCXCXCXCXCXCXCXCXNXMX5.} n b n n x c n x x 5.].bXCXCXCXCXCXCXCXCXCXCXCXCXCXCXCXCXCXCXCXCXCXCXCXCXCXCX",
"CXCXCXCXCXCXCXCXCXCXCXCXCXCXCXCXCXCXCXCXCXCXgXa. .X.} } n n c z c n x z z x [.VXCXCXCXCXCXCXCXCXCXCXCXCXCXCXCXCXCXCXCXCXCXCXCXCX",
"CXCXCXCXCXCXCXCXCXCXCXCXCXCXCXCXCXCXCXCXNXyX5.0.0.+.+.X.+.} c x n n  .n z z n dXCXCXCXCXCXCXCXCXCXCXCXCXCXCXCXCXCXCXCXCXCXCXCXCX",
"CXCXCXCXCXCXCXCXCXCXCXCXCXCXCXCXCXCXCXVXfX5.0.w.0.0.0.w.w.0.n c v n }  .} c z c '.CXCXCXCXCXCXCXCXCXCXCXCXCXCXCXCXCXCXCXCXCXCXCX",
"CXCXCXCXCXCXCXCXCXCXCXCXCXCXCXCXCXCXVX-X5.w.e.e.w.y.e.y.e.0.} v v b } +.| [ v v n I.VXCXCXCXCXCXCXCXCXCXCXCXCXCXCXCXCXCXCXCXCXCX",
"CXCXCXCXCXCXCXCXCXCXCXCXCXCXCXCXVXVXgXW 5.e.w.w.e.e.e.y.u.t.+.} v b b  . .{ b c v } ].CXCXCXCXCXCXCXCXCXCXCXCXCXCXCXCXCXCXCXCXCX",
"CXCXCXCXCXCXCXCXCXCXCXCXCXCXCXCXCXNX9.W y.y.w.w.t.;.t.z.z.h.y.+.{ b b { +. .] ] ] [ X.2XNXCXCXCXCXCXCXCXCXCXCXCXCXCXCXCXCXCXCXCX",
"CXCXCXCXCXCXCXCXCXCXCXCXCXCXCXCXVX-XO.o.u.w.w.w.t.k.b.z.h.k.k.r...b b ] X.+. .[  .[ [ [ } 5.gXCXCXCXCXCXCXCXCXCXCXCXCXCXCXCXCXCX",
"CXCXCXCXCXCXCXCXCXCXCXCXCXCXCXCXbX5.W 0.w.0.0.d.k.k.g.t.t.i.z.k.u. .[ ] { -.;.[ ] v c c s s o.cXCXCXCXCXCXCXCXCXCXCXCXCXCXCXCXCX",
"CXCXCXCXCXCXCXCXCXCXCXCXCXCXCXCXeXw.W e.0.w.d.u.y.t.t.t.t.y.;.h.u.0.| { [ +.;.+.] l l c ] { -.-.jXCXCXCXCXCXCXCXCXCXCXCXCXCXCXCX",
"CXCXCXCXCXCXCXCXCXCXCXCXCXCXCXVXP.e.W t.t.u.u.u.y.y.t.;.;.y.r.h.h.g.+.| {  .;.-...b ] { j.r...-.$XCXCXCXCXCXCXCXCXCXCXCXCXCXCXCX",
"CXCXCXCXCXCXCXCXCXCXCXCXCXCXCXtXo.0.} q.q.t.t.t.;.-.-.h.r.g.b.3XaXB.x...{ } +.;.-.-.-.x.j.] b ..a.VXCXCXCXCXCXCXCXCXCXCXCXCXCXCX",
"CXCXCXCXCXCXCXCXCXCXCXVXCXCXCX'. .0.n | | +.q.h.b.N.N.5X5X5X5X5XB.B.M.r. .{ +.;.-.h.m.m...v l c @.VXCXCXCXCXCXCXCXCXCXCXCXCXCXCX",
"CXCXCXCXCXCXCXCXCXCXCXNXCXCXCXK.@.+.n 0.q.h.x.b.N.B.5X5X5X5X5X5XB.B.N.x.q. . .;.q.x.N.j.{ ] c v n yXVXCXCXCXCXCXCXCXCXCXCXCXCXCX",
"CXCXCXCXCXCXCXCXCXCXCXCXVXCXdXK $.0.n i.g.g.c.i.h.z.M.5X5X5X5X5X5XN.N.N.k.-.{ +.;.x.M.-.X.X.X.o.#.f.NXCXCXCXCXCXCXCXCXCXCXCXCXCX",
"CXCXCXCXCXCXCXCXCXCXCXCXVXxX4.V ^ 5.I e.u.u.g.g.d.r.s.z.b.n.N.B.N.N.3X5X3Xs. .{ y.z.b.#.#.#.#.o.#.5.bXCXCXCXCXCXCXCXCXCXCXCXCXCX",
"CXCXCXCXCXCXCXCXCXCXCXCXVXoX) V ^ Q x @.w.e.c.b.z.s.s.s.d.k.z.z.n.N.N.N.5X@X@Xl.OXf.#.#.s.s.l.l.p.p.hXCXVXNXNXVXbXnXNXCXCXCXCXCX",
"CXCXCXCXCXCXCXCXCXCXCXCXnXW.~ V ~ U C o.w.d.d.d.d.d.k.k.n.n.@XN.n.3X3X3X@X3X3X@X@Xs.f.@X@XOXOX#.s.p.:XCXCXCXCXCXCXCXCXCXCXCXCXCX",
"CXCXCXCXCXCXCXCXCXCXCXNX` T B V ! ! k W 5.u.f.l.v.n.n.n.v.n.z.l.k.n.v.n.3X4X4X4X4X#Xf.#.l.@X,X&X(.Q.bXCXCXCXCXCXCXCXCXCXCXCXCXCX",
"CXCXCXCXCXCXCXCXCXCXvXZ._ D u D L ^ k W p.d.f.l.k.l.k.l.v.@X3X4X4X6X6X4X4X4X4X4X3X#XOX(.3.1.1.3.<.Z.bXCXCXCXCXCXCXCXCXCXCXCXCXCX",
"CXCXCXCXCXCXCXCXCXvX<._ _ P h F J ) I I p.f.l.OX3X4X4X4X4X3X3X@X3X3X4X4X6X6X,X2X&X3.:.:.:.:.:.:._ L S.CXCXCXCXCXCXCXCXCXCXCXCXCX",
"CXCXCXCXCXCXCXCXCXF._ _ P L F D V ! U C 5.l.l.n.@X@X@X#X4X,X6X,X&X1.1.1.^.3.^.&X^.:.:.E E G h h h r w dXCXCXCXCXCXCXCXCXCXCXCXCX",
"CXCXCXCXCXCXCXCXoXP _ _ P H R V V *.^ k O.$X$X;X,X1X>X*X&X). X^.3.3.3..X^.^.7X7X).A.Y h q 2 2 2 5 1 1 V NXCXCXCXCXCXCXCXCXCXCXCX",
"CXCXCXCXCXCXCXCXF._ H _ g M ~ V S ) ) d ~ Y.S.H.(. X X*X X&XR.R.(.3.3.3..X^.7XwX7X2.f > ; : 2 2 1 & & 5 S.CXCXCXCXCXCXCXCXCXCXCX",
"CXCXCXCXCXCXCXNX_ i 0 u i J T L ! ( L e M _ S.H.)..X.X).^.R.(.3.3.1.3.1.3.7X9XwX8XR ; ; ; # # 6 - . & 1 p vXCXCXCXCXCXCXCXCXCXCX",
"CXCXCXCXCXCXCXfX_ 0 0 0 u J K ! L L F y p P H.~.XX*X).T.:.:.$.R R Z G R :.3.7XwXXXf % O # o   ; * O - 1 5 ) CXVXCXCXCXCXCXCXCXCX",
"CXCXCXCXCXCXCX{._ i 0 0 0 D V ) J L J M V J S.~.).T.1.E Z d r 6 8 2 8 q j G 3. XD.8 O O .       + : 2 4 y < ) bXCXCXCXCXCXCXCXCX",
"CXCXCXCXCXCXCX|._ H j 0 u u F ' J V T V V V ' F.A.:.Y h f d r 2 ; ; ; 0 h h R :.E q : $ O O # ; : , 7 N Y < 4 ) CXCXCXCXCXCXCXCX",
"CXCXCXCXCXCXxXS.j _ D D D p p S J N ~ V M V ~ ' / N d g d < 6 a 2 ; ; 2 q h h G h f q 3 > : = = : 6 N ( ,., - m fXCXCXCXCXCXCXCX",
"CXCXCXCXCXnX*.) _ _ i j j e e p V N T J p M M V w 1 1 7 ; o o a ; % ; q q q h h G h h g f t r t N ( D.Q.S.- - , ! NXbXVXCXCXCXCX",
"CXCXCXCXVX|.4.^ P _ H D p y w e p p J J y p e y h 3 ; ; # o   # % ; 0 q q f r h L E ` E R R ( :.1.E.!.U.V.8 @ < 9 C A >XVXCXCXCX",
"CXCXCXCXxXV.V.^ D D P u - - 4 4 e e V J y M e y Y G h f d 8 7 3 q 3 > 8 q h h G E >.2.2.1.,.2.3.R.!.R.G.>.M $ - 4 a C ) NXCXCXCX",
"CXCXCXCX_.V.6.) J i u & & - 4 4 5 e y F p p e V E R R Y G h M d 8 2 q h G E E E :.A.D.T.R.R.!.!.).).Q.T.,.S + - 4 a m C S.CXCXCX",
"CXCXCXNXV.V.6.) V w - + + & - , 4 w w D M w p V ` 2.2.1.,.>.' / E :.:.1.1.:.<.1.3.T.R.~.(.).).*X X).W.D.Z.~ + + < a m C C NXCXCX",
"CXCXCXdXV.C.V.4.! m 4 - * * * * - 5 9 p M w p y ~ H./.|.XX{.}. X{.(.!.R.R.R.R.R.!.~. X X.XXX.X.X{.~.G.A.Z.' * * 4 9 C A C bXCXCX",
"CXCXVX|.9.C.L.7.) ! 9 4 - * * * - - 4 w y w y e F Z.!. XXXoXXXXX X.X&X*X.X*X*X.X XXX.X.X.X.XXX X/.~.W.G.Z.' * + 4 k C S A bXCXCX",
"CXCXCX|.7.C.L.9.6.6.Q a * * - - & - - 4 e w w y y ~ Z.~./.|.}.}.XX7X7X9X0X0X9X9X*X*XXXXX X.X X}.{.^.E.H.S./ & $ 6 k A Q U bXCXCX",
"CXCXVXVX9.9.9.9.7.8.) ! 9 @ X - & - - - 5 5 5 y w J >.G.W././.}.XX*X7X9X0XqX0X9X*XXX*X*X.X.XXXXX}.{.^.W.A.V + & 4 m U ^ ^ nXCXCX",
"CXNXCXCX_.7.C.J.9.7.8.6.! a @ X & & - * - 5 4 5 w p ' G.W.~././..X.XXX8X9X0X9X9X*X9X*X*X.XXXXXXXoX}.{.~.' - X - 9 A ^ %.=.CXCXCX",
"nXCXCXCXgX7.9.C.J.9.9.7.^ Q C - X + + + - 4 4 - 5 w ~ D.W.~.~.}.{.}..X8X9XwXwX9X9X*X*X8XXXXXXXoXoXoX/.Z.e X @ 9 m Q 4.6.Y.VXCXCX",
"CXCXCXCXCXI.C.C.L.L.9.9.8.6.Q I 9 X X @ + - 5 * , 9 J D.~././.{.{.{..XXX9X0XwX9X9X9X0X9XXXXXXXXX).^.Z.N + @ 6 m ! 6.L.a.[.gXCXCX",
"CXCXCXCXCXfX7.9.9.L.L.9.9.8.6.^ Q C * X X + 5 - * 1 y ( H././.|.{.XXXX8XwXdXwXwXwXqXqX9XXX{.~.G.3./ e + + 7 m S $.I.I.9.|.XXCXCX",
"CXCXCXCXCXCX_.8.9.9.L.J.9.8.7.6.) Q I a @ X @ * * - 7 Z >.G.^.).}.}.oX9XfXdXwXwX0X0X*X{.Q.2.` J e > $ . < m S 6.L.'._.a.6.xXCXCX",
"CXCXCXCXCXCXBX[.7.9.9.L.a.9.8.8.6.5.) ! S a @   o @ , 9 g T <.F.H./.oXdXkXwX*X*X X).A.` K y 5 > % O O 3 C U 7.I.].'.`.9.V.CXCXCX",
"CXCXCXCXCXCXCXCXfX9.9.9.9.C.9.9.7.7.6.6.^ Q I a < @ o O * > f H _ <.F.Q.!.3.:.R G N f w 3 3 = + X & r S ^ a.`.=X[.=X_.8.dXCXCXCX",
"CXCXCXCXCXCXCXCXCXvXJ.8.8.9.9.9.9.9.7.8.6.6.6.^ U A a < % + O % 1 5 w f d > > > 5 4 1 - * $ $ . , C ^ 7.I.'.rX[.rX].J._.NXVXCXCX",
"CXCXCXCXCXCXCXCXCXCXxX9.8.7.8.C.C.C.C.C.9.7.8.6.=.$.^ U U m a 6 2 ; : ; % O O O # $ % % ; : 6 d ^ 7.I.'.-XrX-XrX].I.L.kXCXCXVXCX",
"CXCXCXCXCXCXCXCXCXCXCXxX9.7.7.7.9.C.C.J.L.L.L.L.P.P.P.L.9.5.=.*.$.^ Y Y Y U U U U U Y ! ^ =.L.[.-X:X:XtXrXrXrX=X].I.gXCXCXCXCXCX",
"CXCXCXCXCXCXCXCXCXCXCXCXvXJ.=.7.8.8.C.L.P.P.I.Y.`.`.`.`.'.+X'.'.U.I.P.K.V.J.9.9.V.K.P.`.%X:X1X1XtXpXyXrXrXrX:X]._.xXCXCXCXCXCXCX",
"CXCXCXCXCXCXCXCXCXCXCXCXCXnX[.7.&.6.7.9.L.I.Y.`.'.+X+X=X;X;X=X=X%X%X%X'.+X'.+X+X+X%X;X1X1XuXtXpXpXtXrXpXrXrX].-XbXCXCXCXCXVXVXCX",
"CXCXCXCXCXCXCXCXCXCXCXCXCXCXCXbX>X9.%.6.9.L.L._.'.+X=X=X=X=X-X:X1X1X1X<X<X<XrXrX2XiXsXiXiXsXiXuXtXdXpXrXrX].fXNXCXCXCXCXCXCXCXCX",
"CXCXCXCXCXCXCXCXCXCXCXCXCXCXCXCXCXNXgX_.&.6.9.L.I.`.+X=X;X<X:X:X1X1XrXrXrX<X<XrXiXiX2XiXiXsXpXpXiXuXrX+X:XvXVXCXCXCXCXCXCXCXCXCX",
"CXCXCXCXCXCXCXCXCXCXCXCXCXCXCXCXCXCXCXCXnXyX9.6.9.P.`.'.].%X=X:X1XuXiXiXpXsXsXsXhXhXhXhXsXpXtXtXrX:XeXvXVXVXCXCXCXCXCXCXCXCXCXCX",
"CXCXCXCXCXCXCXCXCXCXCXCXCXCXCXCXCXCXCXCXCXCXNX:XP.9.9.9.P.I.].=X;X<X<X<XuXuX2XuXuXiXpXhXiX1X<X:XdXmXBXCXCXCXCXCXCXCXCXCXCXCXCXCX",
"CXCXCXCXCXCXCXCXCXCXCXCXCXCXCXCXCXCXCXCXCXCXCXCXMXjX<X%X'.P.P.P.P.P.I.`.'.+X+X=X=X=X+X+X;XiXMXBXCXVXCXCXCXCXCXCXCXCXCXCXCXCXCXCX",
"CXCXCXCXCXCXCXCXCXCXCXCXCXCXCXCXCXCXCXCXCXCXCXCXCXCXMXcXjXsXsX<X,X;X=X=X=X;X;X,XrXuXsXsXjXMXCXBXCXCXCXCXCXCXCXCXCXCXCXCXCXCXCXCX",
"CXCXCXCXCXCXCXCXCXCXCXCXCXCXCXCXCXCXCXCXCXCXCXCXCXCXCXCXCXBXmXmXcXlXlXlXlXlXzXzXzXlXlXcXBXCXNXCXCXCXCXCXCXCXCXCXCXCXCXCXCXCXCXCX",
"CXCXCXCXCXCXCXCXCXCXCXCXCXCXCXCXCXCXCXCXCXCXCXCXCXCXCXCXCXCXCXCXCXCXBXcXzXlXlXzXzXcXMXCXVXVXCXCXCXCXCXCXCXCXCXCXCXCXCXCXCXCXCXCX",
"CXCXCXCXCXCXCXCXCXCXCXCXCXCXCXCXCXCXCXCXCXCXCXCXCXCXCXCXCXCXCXCXCXCXCXCXVXMXcXcXmXBXCXBXCXCXCXCXCXCXCXCXCXCXCXCXCXCXCXCXCXCXCXCX",
"CXCXCXCXCXCXCXCXCXCXCXCXCXCXCXCXCXCXCXCXCXCXCXCXCXCXCXCXCXCXCXCXCXCXCXCXCXCXCXCXCXCXCXCXCXCXCXCXCXCXCXCXCXCXCXCXCXCXCXCXCXCXCXCX",
"CXCXCXCXCXCXCXCXCXCXCXCXCXCXCXCXCXCXCXCXCXCXCXCXCXCXCXCXCXCXCXCXCXCXCXCXCXCXCXCXCXCXCXCXCXCXCXCXCXCXCXCXCXCXCXCXCXCXCXCXCXCXCXCX",
"CXCXCXCXCXCXCXCXCXCXCXCXCXCXCXCXCXCXCXCXCXCXCXCXCXCXCXCXCXCXCXCXCXCXCXCXCXCXCXCXCXCXCXCXCXCXCXCXCXCXCXCXCXCXCXCXCXCXCXCXCXCXCXCX"
};
