/* XPM */
static char *_1205340f3f84b81a7b90942d58623eazxbwkMCMntoViqc0[] = {
/* columns rows colors chars-per-pixel */
"50 50 173 2 ",
"   c gray96",
".  c #F6F6F6",
"X  c gray93",
"o  c #F3F3F3",
"O  c #F4F4F4",
"+  c #EFEFEF",
"@  c gray97",
"#  c #F8F8F8",
"$  c gray94",
"%  c #F9F9F9",
"&  c #EEEEEE",
"*  c #F1F1F1",
"=  c gray95",
"-  c gray98",
";  c #E4E4E4",
":  c black",
">  c #4C4C4C",
",  c #ECECEC",
"<  c gray82",
"1  c #020202",
"2  c #E2E2E2",
"3  c gray16",
"4  c gray92",
"5  c #797979",
"6  c gray47",
"7  c #343434",
"8  c #2D2D2D",
"9  c gray33",
"0  c gray9",
"q  c gray85",
"w  c #5F5F5F",
"e  c #E9E9E9",
"r  c gray18",
"t  c gray20",
"y  c #EAEAEA",
"u  c gray54",
"i  c #1E1E1E",
"p  c #060606",
"a  c #868686",
"s  c #E7E7E7",
"d  c #E6E6E6",
"f  c gray2",
"g  c #040404",
"h  c gray40",
"j  c #989898",
"k  c #AEAEAE",
"l  c #A4A4A4",
"z  c gray72",
"x  c #3A3A3A",
"c  c #C0C0C0",
"v  c #6D6D6D",
"b  c #222222",
"n  c #CECECE",
"m  c #232323",
"M  c #6F6F6F",
"N  c gray90",
"B  c #D2D2D2",
"V  c gray79",
"C  c #646464",
"Z  c #747474",
"A  c gray75",
"S  c #070707",
"D  c #9F9F9F",
"F  c gray39",
"G  c gray22",
"H  c #191919",
"J  c gray4",
"K  c gray3",
"L  c gray78",
"P  c gray70",
"I  c gray1",
"U  c #0C0C0C",
"Y  c #202020",
"T  c #414141",
"R  c #A7A7A7",
"E  c gray86",
"W  c #909090",
"Q  c #393939",
"!  c #7E7E7E",
"~  c gray73",
"^  c gray61",
"/  c #D0D0D0",
"(  c #9A9A9A",
")  c gray36",
"_  c gray51",
"`  c #161616",
"'  c #D7D7D7",
"]  c gray31",
"[  c #505050",
"{  c gray13",
"}  c gray65",
"|  c gray10",
" . c #0E0E0E",
".. c gray74",
"X. c #444444",
"o. c #565656",
"O. c #C3C3C3",
"+. c #1B1B1B",
"@. c gray15",
"#. c #808080",
"$. c gray87",
"%. c #1D1D1D",
"&. c #C1C1C1",
"*. c #AFAFAF",
"=. c gray5",
"-. c gray30",
";. c gray62",
":. c #B7B7B7",
">. c gray44",
",. c #252525",
"<. c #373737",
"1. c #4B4B4B",
"2. c gray21",
"3. c #313131",
"4. c gray14",
"5. c #111111",
"6. c #090909",
"7. c #010101",
"8. c #818181",
"9. c #D8D8D8",
"0. c #3F3F3F",
"q. c gray88",
"w. c #929292",
"e. c #676767",
"r. c #777777",
"t. c gray77",
"y. c #B6B6B6",
"u. c gray19",
"i. c #B1B1B1",
"p. c #151515",
"a. c #838383",
"s. c #464646",
"d. c gray91",
"f. c #2F2F2F",
"g. c gray76",
"h. c #101010",
"j. c gray89",
"k. c gray42",
"l. c #8D8D8D",
"z. c gray23",
"x. c #8B8B8B",
"c. c #6A6A6A",
"v. c #535353",
"b. c #DFDFDF",
"n. c #3C3C3C",
"m. c gray8",
"M. c #939393",
"N. c #2A2A2A",
"B. c #C8C8C8",
"V. c gray11",
"C. c #8E8E8E",
"Z. c #5D5D5D",
"A. c #5B5B5B",
"S. c #9D9D9D",
"D. c #DADADA",
"F. c #A5A5A5",
"G. c #717171",
"H. c #7C7C7C",
"J. c #CACACA",
"K. c gray59",
"L. c #B4B4B4",
"P. c #323232",
"I. c gray32",
"U. c gray60",
"Y. c gray80",
"T. c #E1E1E1",
"R. c gray",
"E. c gray53",
"W. c gray67",
"Q. c gray6",
"!. c gray28",
"~. c #656565",
"^. c #484848",
/* pixels */
"  . X o O + . @ # $ % @ @ & & + o * . = - ; : > o . . , . @ # X   @ . $ O   $   X O , . % & @   - + ",
"  . + = O *   @ % $ %   # $ & $ o $ . = - + < : 1 2 . , @ @ O X O . . $ o   *   + @ , . # $ @ O - * ",
"  @ + = o $ O # # + % O # o & * = $ # = % + . 3 : 1 o X @   $ & O   . * o   *   * % 4 . O &   = % = ",
"  # + = o + O # # + # o @ O & = O * # o # + . 5 : : 6 X @   + + O   . * = o $   o % , . = $ @ * # o ",
"  @ $ O * & O @ # + # o . . , o O o % o O = . 7 : : 8 & @ o = *   O   = = O $   o - , . & + . $   o ",
"  # = O + , O @ # & @ o   - 4 O O O - O * = & : : : 9 + @ =   o O O   * = O $   O - , . , & . + * O ",
"  @ =   & X O @ # X   o   @ ,   O   -   * O 0 : : : q w e = # O   O   = o O * O   - , . X   @ + = O ",
"O   O   + $ O . # & o o O & , .     -   $ r : : : t   y 1 u . . O O   = O O * O   - 4 @ &   , + o   ",
"  . = . * O O   # X $ o O & X .     -   i : : : p o # + a : s @ O O   O   O = o   - 4 . & * . +     ",
"  @ $   O % O O # X X o @ & X .   . d f : : : g X @ - $ h : j @ O O   O   o = o   - 4   X + # + #   ",
"  . $   @ - o = # , & o O $ , . . k : : : : f $ . @ - $ : : l @ o O   O   o o   O - 4   & + # & # . ",
"  & *   # - O O # X & O O $ & . z : : : : : &   % O % x : : e @ o           O o   - ,   $ $ # + #   ",
"O + =   # - O . % 4 $ . O & , @ : : : : : c . . %   v : : b = @ o O     O     O * - X . $ o @ & @   ",
"  * * o # -     @ X * #   + , n : : : : m o @ # % M : : : N O . o   . . O . @ o $ % X   * = @ + .   ",
"    = = # - O     & o %   o X B : : : : V o @ # C : : : Z O @ . o   . . O . # = * - X   = o @ $   O ",
"  % = $ # % O @   , . % . - X % 1 : : : * o @ A : : : S *   #   O   . @ O . # = = - X   O O @ $ O O ",
"  - * $ # @   O   B D F G H J K L : : : o O @ J : : : P : I U Y T Z R E * . # * $ - ,       @ $ o o ",
"  - o $ + W m 1 : J Q ! ~ E e # . n 1 : ^ O . I : : : # + o s / ( ) i 1 : 1 b _ 2 - X   . . . $ = o ",
"  @ E ` : 1 w ' @ = @ @ # + , % . O . ] : e @ [ : : { # $ #   o   . . @ + } | : :  ...  . . . $ * O ",
"  o : : X.. @ o # o @ . % $ + # # O @ # & o.O.O +.: @.# $ % - O .   . @   # % V : : : s @ . . * * O ",
"  & : : !   # o % O @ O % & + @ %   # # o =   s   #.: . $ @ @ . .     # $ # % y : : : $.@   . * o o ",
"  X : : : %.&.= #   @ o # = $ @ %   @ . . = O       $ *.n @ + @ .   . =   y h : : : : d . o . =   + ",
"  & : : : : : : =.-.;.B o . $ . -   @   @ =   . .   + . * @   O N :.>.b 1 : : : : : : * . o   O # $ ",
"  X I : : : : : : : : : : : : g =.i ,.7 <.> 1.T 2.3.4.5.6.7.: : : : : : : : : : : : : w 8.9.@ O - * ",
"  X 5.: : z T p : : : : : : : : : : : : : : : : : : : : : : : : : : : : : : : : : : : : : :  .N - = ",
". X 0.: : q.# . @ %.: : : : : : : : : : : : : : : : : : : : : : : : : : : : : : : : : : : : : : * = ",
". X w.: : c @   @ T : : : : : : : : : : : : : : : : : : : : : : : : : : : : : : : : e.* 5 : : : 3.= ",
". & q.: : 8..   @ r.: : : : : : : : : : : : : : : : : : : : : : : : : : : : : : : : t..   y.: : : * ",
". + % : : u.. . # i.: : : : : : : : : : : : : : : : : : : : : : : : : : : : : : : : * . o . f : : + ",
"  + % p.: I . . # 2 : : : : : : : : : : : : : : : : : : : : : : : : : : : : : : : g   . o @ K : : $ ",
"  $ % a.: : y . # . : : : : : : : : : : : : : : : : : : : : : : : : : : : : : : : s..   O d.: : f.+ ",
"  * # 4 : : M % # @ 1 : : : : : : : : : : : : : : : : : : : : : : : : : : : : : : g.@   O h.: : j.+ ",
"  = # O  .: 1 . # . 4.: : : : : : : : : : : : : : : : : : : : : : : : : : : : : : $ @ q.=.: : k.% & ",
"  o # O ;.: : Z #   l.: : : : : : : : : : : : : : : : : : : : : : : : : : : : : z.x.| : : : -.# o & ",
"  O # O o : : : ~ O e : : : : : : : : : : : : : : : : : : : : : : : : : : : : : : : : : : ;.- # + X ",
"    # o O c.: : : v.b.n.: : : : : : : : : : : : : : : : : : : : : : : : : : : : : : m.M.. - - @ & X ",
"  @ # o     : : : : : : : : : : : : : : : : : : : : : : : : : : : : : : : : : 2 & $ @   . - - @ X 4 ",
"O @ # = O 4 N.: : : : : : : : : : : : : : : : : : : : : : : : : : : : : : : p B.$ & .     % - @ + 4 ",
"O @ @ q V.: : : : : : : : : : : : : : : : : : : : : : : : : : : : : : : : : : : I C.. .   % - @ = , ",
"O @ Z.: : : : : : : : : : : : : : : : : : : : : : : : : : : : : : : : : : : : : : : =.X   % - @ * , ",
"O A.: : : : : : : : : : : : : : : : : : : : : : : : : : : : : : : : : : : : : : : : : I O # - . $ & ",
"o : : : : : : : V.x : : : : : : : : : : : : : : : : : : : : : : : : : A.: : : : : : : : S.# - . + & ",
"O : : : : : : : f X z =.: : : : : : : : : : : : : : : : : : : : : ` n D.: : : : : : : : F.# - . & + ",
"O G.: : : : : : : +.+ o 4 x.,.1 : : : : : : : : : : : : : g r j X @ t.: : : : : : : : J . % -   * + ",
"O = H.: : : : : : : : t J.= # * $ s ' :.;.u 8.a K.L.B d O . . 4 ;. .: : : : : : : : H = @ % - . O X ",
"O * + s P.: : : : : : : : : h.I.U.Y., & . =   @   $ T.R.E.Q p : : : : : : : : : 6.W.,   * % - O # , ",
"O = $ o O $ a Q.: : : : : : : : : : : : : : : : : : : : : : : : : : : : : 1 !.9.o $ 4   = # - O - , ",
"O O   .   o o @ @ &.~.H 1 : : : : : : : : : : : : : : : : : : : : 6.x ( y @ @ @ * $ , =   @ % O - 4 ",
"  o $ *   o O @ # & % = @ & T.R.C.h ^.u.N.3 ,.,.3 P.X.C u i.B d.O # @ * . @ # @ $ = , . # O @ * - X ",
"    + o   + O @ # X # o . & + * = X .   @ * O       O X . . & + O . # = . # % . $ o X . @ $   $ - = "
};
