/* XPM */
static char *result[] = {
/* columns rows colors chars-per-pixel */
"64 64 240 2 ",
"   c #0E150D",
".  c #13150B",
"X  c #15190E",
"o  c #191B0E",
"O  c #1E1107",
"+  c #1B1D13",
"@  c #171811",
"#  c #090C05",
"$  c #1E2115",
"%  c #1E2319",
"&  c #212316",
"*  c #232519",
"=  c #26291C",
"-  c #2A2C1D",
";  c #332C19",
":  c #2E311F",
">  c #30321F",
",  c #1D2A20",
"<  c #2C2E21",
"1  c #242B21",
"2  c #2E3123",
"3  c #283325",
"4  c #323425",
"5  c #3C3526",
"6  c #363926",
"7  c #3A3B25",
"8  c #343629",
"9  c #36392A",
"0  c #3A3D2C",
"q  c #3D3529",
"w  c #3C3E30",
"e  c #323E32",
"r  c #5D3A1D",
"t  c #453B2A",
"y  c #493E31",
"u  c #513729",
"i  c #663D32",
"p  c #763E34",
"a  c #733F2E",
"s  c #3E412D",
"d  c #3E4131",
"f  c #3B463B",
"g  c #41432E",
"h  c #4B442D",
"j  c #464125",
"k  c #51482E",
"l  c #434532",
"z  c #4A4435",
"x  c #464934",
"c  c #4A4B35",
"v  c #424639",
"b  c #4E4539",
"n  c #454B3A",
"m  c #4C4D39",
"M  c #534D3B",
"N  c #5A4A3A",
"B  c #574636",
"V  c #4E513B",
"C  c #4E5137",
"Z  c #53533C",
"A  c #5C5A3D",
"S  c #575438",
"D  c #66442C",
"F  c #624F3C",
"G  c #684836",
"H  c #744D3B",
"J  c #774737",
"K  c #69543D",
"L  c #76563D",
"P  c #72492F",
"I  c #7B6B3F",
"U  c #4B5647",
"Y  c #5B5B44",
"T  c #575745",
"R  c #565649",
"E  c #635C44",
"W  c #675948",
"Q  c #7B5C44",
"!  c #775946",
"~  c #6C574A",
"^  c #59624D",
"/  c #5A6758",
"(  c #63634B",
")  c #6A644B",
"_  c #646146",
"`  c #75684A",
"'  c #666552",
"]  c #6B6A53",
"[  c #696550",
"{  c #7A6A55",
"}  c #777259",
"|  c #6C7256",
" . c #687666",
".. c #787B67",
"X. c #7C7569",
"o. c #8B5A39",
"O. c #8E5330",
"+. c #97643A",
"@. c #91733D",
"#. c #A16338",
"$. c #8A5C45",
"%. c #825D4B",
"&. c #8A5748",
"*. c #925D4E",
"=. c #8C544A",
"-. c #AA5D4B",
";. c #8B634A",
":. c #886449",
">. c #976549",
",. c #896954",
"<. c #946B54",
"1. c #9A6B58",
"2. c #89755A",
"3. c #9B7155",
"4. c #9C745A",
"5. c #94745A",
"6. c #8F7947",
"7. c #A3795B",
"8. c #A6765B",
"9. c #AB6E54",
"0. c #897B65",
"q. c #9C7D61",
"w. c #967964",
"e. c #896F60",
"r. c #A37663",
"t. c #AC7363",
"y. c #A47D63",
"u. c #AC7A65",
"i. c #A77D6B",
"p. c #B27A6A",
"a. c #AD7669",
"s. c #7A8870",
"d. c #AF863F",
"f. c #93844F",
"g. c #BA9549",
"h. c #A78C50",
"j. c #86826C",
"k. c #9A8367",
"l. c #898974",
"z. c #938873",
"x. c #96937E",
"c. c #A1836B",
"v. c #AB846B",
"b. c #A98568",
"n. c #B2846D",
"m. c #B38B6C",
"M. c #B88B67",
"N. c #B3916B",
"B. c #AA8975",
"V. c #B48472",
"C. c #BA8673",
"Z. c #B38C73",
"A. c #B78A78",
"S. c #A89277",
"D. c #B69373",
"F. c #BA9474",
"G. c #B3967B",
"H. c #BC947B",
"J. c #BC9A7C",
"K. c #B99875",
"L. c #B7A974",
"P. c #C69C52",
"I. c #C28A79",
"U. c #C2957C",
"Y. c #C2987C",
"T. c #999785",
"R. c #BB9881",
"E. c #A39684",
"W. c #9EA093",
"Q. c #A2A18F",
"!. c #B7A188",
"~. c #ADAA97",
"^. c #A7A695",
"/. c #B4AB97",
"(. c #9FA1A2",
"). c #BAB7A7",
"_. c #BDBDB3",
"`. c #ACA6A1",
"'. c #C39583",
"]. c #C49B83",
"[. c #C99B85",
"{. c #C49C8B",
"}. c #CA9D8C",
"|. c #C99687",
" X c #C79788",
".X c #CBA48D",
"XX c #C7A389",
"oX c #CDA493",
"OX c #CFAB9A",
"+X c #C9A994",
"@X c #D1A594",
"#X c #D1AB94",
"$X c #D2AD9B",
"%X c #CAB296",
"&X c #D7B39C",
"*X c #D1B096",
"=X c #C3B687",
"-X c #C5BEAA",
";X c #C5B7A5",
":X c #D4B3AB",
">X c #C5C1AC",
",X c #CAC4AC",
"<X c #CAC6B2",
"1X c #CEC9B6",
"2X c #CECCBB",
"3X c #C7C5BA",
"4X c #D2CDBA",
"5X c #D7CBB9",
"6X c #D4D2BE",
"7X c #D9C1AF",
"8X c #E2DCBF",
"9X c #EDD798",
"0X c #CDCCC4",
"qX c #D7D4C0",
"wX c #D9D6C2",
"eX c #DCD9C5",
"rX c #DEDBC9",
"tX c #D3D3CB",
"yX c #DDDCD2",
"uX c #E1DECB",
"iX c #E3DCD2",
"pX c #DFE0D3",
"aX c #E1E1CF",
"sX c #E3E3D4",
"dX c #E5E5D9",
"fX c #E7E8DC",
"gX c #E9EADE",
"hX c #F0E3DC",
"jX c #ECEDE3",
"kX c #EEEFE9",
"lX c #E7E6E1",
"zX c #EFF0E7",
"xX c #EFF0E9",
"cX c #F2F3EC",
"vX c #F5F5F1",
"bX c #F7F8F2",
"nX c #FBFBF5",
"mX c #FEFEFE",
"MX c #F9F7F4",
"NX c #F1EEE7",
/* pixels */
"mXmXmXmXmXmXmXmXmXmXmXmXmXmXmXmXmXmXmXmXmXmXmXmXmXmXmXmXmXmXmXmXmXmXmXmXmXmXmXmXmXmXmXmXmXmXmXmXmXmXmXnXmXnXnXbXcXgXfXaXuXuXeXeX",
"mXmXmXmXmXmXmXmXmXmXmXmXmXnXmXmXmXmXmXmXmXmXmXmXmXmXmXmXmXmXmXmXmXmXmXmXmXmXmXmXmXmXmXmXmXmXnXmXmXmXmXmXmXnXnXnXzXzXfXsXuXuXuXeX",
"mXmXmXmXmXmXmXmXmXmXmXmXmXmXmXmXmXmXmXmXmXmXmXmXmXmXmXmXmXmXmXmXnXmXmXmXmXmXmXmXmXmXmXmXmXmXmXmXmXmXmXmXnXmXnXbXzXzXfXsXuXuXeXeX",
"mXmXmXmXmXmXmXmXmXmXmXmXmXmXmXmXmXmXmXmXmXmXmXmXmXmXmXmXmXmXmXmXmXmXmXMXmXmXmXmXnXmXmXmXmXmXmXmXmXmXnXmXmXnXnXbXzXgXdXaXuXeXuXeX",
"mXmXmXmXmXmXmXmXmXmXmXmXmXmXmXmXmXmXmXmXmXmXmXmXmXmXmXmXmXmXmXmXMXqXT.} 0.z.).pXmXmXnXmXmXmXmXmXmXmXmXmXmXnXnXbXcXgXdXsXuXuXeXeX",
"mXmXmXmXmXmXmXmXmXmXmXmXmXmXmXmXmXmXmXmXmXmXmXmXmXmXmXmXmXmXmX2X} B t q 5 y m E ~.nXmXmXmXmXmXmXmXmXnXmXmXmXnXbXzXgXdXpXuXeXuXeX",
"mXmXmXmXmXmXmXmXmXmXmXmXmXmXmXmXmXmXmXmXmXmXmXmXmXmXmXmXmXmX).k y b y y b y z b b j.vXmXmXmXmXmXmXmXnXmXmXmXnXbXcXgXdXuXuXeXeXeX",
"mXmXmXmXmXmXmXmXmXmXmXmXmXmXmXmXmXmXmXmXmXmXmXmXmXmXmXmXmX<XF T M z W ~ T T b z b 5 l.mXmXmXmXmXmXmXmXmXmXnXnXvXzXgXdXuXuXuXuXeX",
"mXmXmXmXmXmXmXmXmXmXmXmXmXmXmXmXmXmXmXmXmXmXmXmXmXmXmXmXmX0.T W W N { 2.~ b y b y y q _.mXnXmXmXmXmXnXmXmXmXnXcXzXgXdXaXrXrXrXeX",
"mXmXmXmXmXmXmXmXmXmXmXmXmXmXmXmXmXmXmXmXmXmXmXmXmXmXmXmXyX{ Y W W ~ w.A.e.~ t q v y 9 ~ vXmXmXmXnXmXmXmXnXmXnXcXkXgXdXaXuXrXrXeX",
"mXmXmXmXmXmXmXmXmXmXmXmXmXmXmXmXmXmXmXmXmXmXmXmXmXmXmXmX~.{ ,.) { w.oX+X!.B.! N B y U ; ).nXmXmXmXmXmXmXmXnXnXvXzXdXdXaXuXrXrXeX",
"mXmXmXmXMXmXmXMXmXmXmXmXmXmXmXmXmXmXmXmXMXmXmXmXmXmXmXkXz.0.j.2.,.R.oXoXOX:X+XE.%.~ N t ) bXmXmXmXmXmXmXmXnXnXvXzXdXdXaXrXrXeXeX",
"mXmXmXmXmXMXmXmXmXmXmXMXmXmXmXmXmXmXmXmXmXmXmXmXmXmXmX3X2.0.w.k.B.{.}.@X$X$X$XOXR.e.~ N y -XmXmXmXmXmXmXmXnXnXcXzXfXsXaXrXrXrXeX",
"mXmXmXmXmXmXmXmXMXmXmXmXmXmXmXmXmXmXmXmXMXmXmXmXmXmXmX/.2.k.w.k.B.R.}..XOX$X$X$X@X Xi.{ F X.nXmXnXmXmXnXmXnXnXcXjXfXaXaXuXrXrXeX",
"mXmXmXmXmXMXMXmXmXmXmXmXMXmXMXmXmXmXmXmXmXMXmXmXmXmXMXE.5.S.k.k.B.R.XX[.oX$XOX$X@XOX}.R.q.F iXmXmXmXmXmXmXnXnXcXzXdXsXaXrXrXrXeX",
"mXmXmXmXmXmXmXmXmXmXmXmXmXmXmXmXmXMXmXmXmXmXmXmXmXmXkX0.k.b.k.4.v.'.[.[.@X$XOXoX@X@X@X$X$X` 3XmXnXnXmXmXmXnXbXcXgXdXaXrXrXrXeXeX",
"mXmXmXmXmXmXmXmXmXmXmXmXmXmXMXmXmXmXmXmXmXmXmXMXmXhX+X<.5.c.B.D.H.[.'.|.}.oX@X}.@X#X#X&X&X0.tXmXmXnXmXmXmXnXbXcXjXdXsXuXuXuXuX6X",
"mXmXmXmXmXmXmXmXmXmXMXmXmXmXmXmXmXmXmXmXmXmXmXmXmX}.-.U.k.B.].XXU.'.|. X}.oX{.}.#X#X#X*X#Xk.jXmXmXmXmXmXmXmXbXcXgXfXsXuXuXuXuX6X",
"mXmXmXmXmXmXmXmXmXMXmXmXMXmXmXmXmXmXmXmXmXmXmXmXmX}.9.Y.G.D..X].'.XX}.}.OXoX X X[.}..X*X.XS.vXmXnXmXnXmXmXnXcXcXgXfXaXuXuXeXuX6X",
"mXmXmXmXMXmXmXMXmXmXmXmXmXmXmXmXmXmXmXmXmXmXmXmXmX@X9.n..X.X.XXXH.v.E.{.}.oXoX|.}.}..X#XJ.!.mXnXmXmXmXmXmXmXcXcXgXfXaXuXuXuXuXuX",
"mXmXmXmXmXmXmXmXmXmXmXmXmXmXmXmXmXmXmXmXmXmXmXmXMX|.-.C.*X.XXXD.4.<.Q Q i.'.}.}.}.OX$X#XD.-XmXmXmXmXnXmXmXnXcXcXgXdXuXuXeXuXwXwX",
"mXmXmXmXmXMXmXmXmXmXmXmXmXmXmXmXmXmXmXmXmXmXmXmXMX{.p.oX.X.XXXv.;.L G G ! i.R.|.oX@X&X&XD.sXmXmXmXnXmXmXmXnXcXcXgXsXuXuXuXeXeXeX",
"mXmXmXmXMXmXmXMXmXmXmXmXmXmXmXmXmXmXmXmXmXmXmXmXnXoXY.XX.X.X[.U.i.5.W K H ;.r.V.V.v.c.Z.+XbXnXmXmXmXnXmXmXnXbXzXgXsXuXeXuXuXeX6X",
"mXmXmXmXmXmXmXmXmXmXmXmXmXmXmXmXmXmXmXmXmXmXmXmXmX:XU..X.X.X[.}.H.r.1.H D <.r.r.%.G K ,.!.nXmXmXmXmXmXmXnXnXbXcXgXsXuXuXuXuXeXeX",
"mXmXmXmXmXmXmXmXmXmXmXmXmXmXmXmXmXmXmXmXmXmXmXmXmXlXH.{.].].].[.oXv.<.$.;.n.'.;.t N &.7.5XmXmXmXnXmXmXmXmXnXcXzXgXsXuXuXeXeXeXeX",
"mXmXmXmXmXmXmXmXmXmXmXmXmXmXmXmXmXmXmXmXmXmXmXmXmXkXR.R.R.H.Y.[.}.|.U.A.V.'.$X:.G 5.4.D.bXmXmXmXmXmXmXnXmXnXcXzXfXsXrXuXeXuXeXeX",
"mXmXmXmXmXmXmXmXmXmXmXmXmXmXmXmXmXmXmXmXmXmXmXmXmX2XZ.'.J.D.A.U. X|.|.|.U.].#XZ.>.8.I.&XmXnXmXmXmXmXmXmXmXnXcXjXfXsXuXeXuXeXwXwX",
"mXmXmXmXmXmXmXmXmXmXmXmXmXmXmXmXmXmXmXmXmXmXmXmXvX0.F.H.H.Z.n.V.C.C.t.p.'.[.#X@XXXY.Y.7XmXmXmXmXnXmXmXmXnXnXcXzXfXsXuXuXeXuXeX6X",
"mXmXmXmXmXmXmXmXmXmXmXmXmXmXmXmXmXmXmXmXmXmXmXmXW.E U.D.D.n.v.u.t.9.1.p.'.oX$X[.|.@X@X5XmXmXnXmXmXmXmXnXnXnXcXjXdXaXuXeXeXeXeXwX",
"mXmXmXmXmXmXmXmXmXmXmXmXmXmXmXmXmXmXmXmXvXtX_.x.A F D.b.m.v.y.3.=.*.t.a.I.@X&Xp.I.@X[.iXmXmXmXmXmXmXmXnXnXnXcXjXdXaXuXuXuXeXeX6X",
"mXmXmXmXmXmXmXmXmXmXmXmXmXmXmXmXmXmXmX0X' l Y _ S M v.b.b.y.y.4.%.1.p.*.*.p.{.8.t.I.].cXmXmXmXmXmXmXmXmXnXnXcXgXdXaXuXeXrXeXwXwX",
"mXmXmXmXmXmXmXmXmXmXmXmXmXmXmXmXmXjXT.T t w x S Z l 4.7.7.7.4.r.*.1.p.u.*.1.n.1.1.u.%XmXmXnXnXmXmXmXnXmXnXbXcXgXfXaXuXuXeXuX6XeX",
"mXmXmXmXmXmXmXmXmXmXmXmXmXmXmXbX).} Z m n w 0 m C s ,.7.3.3.3.8.u.*.=.t.t.t.p.4.>.y.uXmXnXmXmXmXmXmXmXmXnXvXzXgXdXaXrXrXeXeXwXwX",
"mXmXmXmXmXmXmXmXmXmXmXmXmXmX3X..A A U z y w 7 c c 7 K 7.:.>.3.k.n.a.=.p =.1.a.,.3.!.mXmXnXmXmXmXmXnXnXmXmXvXxXgXsXuXrXeXeXeX6XwX",
"mXmXmXmXmXmXmXmXmXmXmXmXyXl.K Z m T B >.N.s 0 x c 7 h 3.:.:.<.5.n.u.9.=.=.w.a.5.b.k.;XcXmXmXnXmXmXmXmXmXnXcXzXgXsXrXrXeXeXeXwXwX",
"mXmXmXmXmXmXmXmXmXmXjXQ.( T T F ~ J i f.9XB 9 l g s 5 :.;.I :.3.Z.V.t.1.1.u.V.q.3.P B ,.;XNXmXmXnXmXnXnXmXxXxXdXsXuXeXrXeXeXwX6X",
"mXmXmXmXmXmXmXmXMX).^ m F K J H i z v G O.i 8 w 0 g < G <.Q L ,.i.A.p.p.t.p.v.5.k i J G P ,.,XzXmXmXnXnXnXcXzXdXaXuXrX6XeXeX6X6X",
"mXmXmXmXmXmXmXyX..A h.6.o.P.I d b i p i y f 8 w 7 0 4 b ;.Q K L ,.i.C.I.C.A.c.t & 0 h G L J g.L.8XmXmXnXnXcXgXdXaXrXeXeXeX6XeX6X",
"mXmXmXmXmXmXtX( B :.g.6.k g.+.p p i z v v l 9 g 0 0 6 w ! *.L H ~ ! <.q.v.5.S - $ 0 4 s c F o.o.f.=XxXmXbXcXzXdXuXeXeXeX6X6X6X6X",
"mXmXmXmXmX-X] Z D S k h.6.P G b l f v l d w 9 s 0 0 8 4 ^ Q $.L ! G F ! ,.s 7 h o 0 7 0 g l v N h.g.k.bXbXzXjXdXrXeXeX6XeX6X6X6X",
"mXmXmXmXdX] E Y e y O.h.@.z f w l l v l l w 2 d 9 9 s 2 U ' $.$.&.L Q 1.A 4 g c & - x 4 s x c n Z 6.P ).mXzXjXpXaXeXqXqXqX6X6X6X",
"mXmXmXmXT.Y ( Z x u y b g y d v v v x d 0 9 < d s 9 9 s U / [ ` <.<.3.K ^ & h S > & c s 4 s m V C C x ] zXxXfXaXrXeXqXqX6X4X4X4X",
"mXmXmXvXT h Y Z c w d n d l x x l x l s 0 8 1 0 0 9 s s f / / ' ! L u Y U o j C l * g c 4 6 l c C T n l rXxXdXaXeXwX6X6X6X4X4X6X",
"mXmXmXvX| 7 0 m x x w x x x x x x v v w 0 6 1 d s 0 9 s c /  ./ | t U s.: = c C j ; 6 Z s 4 0 x x V V 6 _.vXdXuXeXwX6X4X4X4X4X4X",
"mXmXmXxX| Z 2 4 x x v d x x c x x x x d 0 4 1 0 6 6 6 s c U  . ./ / s. .X > j S =X` - C g 6 8 d x V n > ^.vXdXrXeX6X4X4X1X1X4X1X",
"mXmXmXtX) Y 0 * 0 d l s x x c x l x x z w 8 < 0 | aX2Xs n C /  .e x s.f X s s S L.| 6 c c 6 4 s x C x > E.cXpXeXqX6X4X4X1X<X1X4X",
"mXmXmX^.) ^ l 4 & 0 d d d x x c x x c v w 5 < 4 j.>X..s x c ^ U 1 3 s.s % s s C k c C c C 0 4 4 s V d : Q.cXyXeXqX4X1X1X,X,X1X1X",
"mXmXmXj.) E x 9 * = s d d x x x x l n x w 9 1 l C 6 6 s s x n % 6 3 U f : s s g s s : s Z s 8 8 9 c 0 6 ..jXiXeX4X4X1X,X>X,X,X<X",
"mXmXjX' _ A m s < + 2 v 0 l l x l d x z d w - 9 c 0 < - 6 s C * 3 3 e f > h s g 4 $ + s Z l 8 4 4 x 6 s s 2XsX6X4X1X<X>X>X-X>X<X",
"mXmXlX^ Y Y V l 0 + $ d 0 s l l d d v l d w 2 o X . * s l s c 6 % f 3 f s x s g c x x c Z c 9 4 2 s 0 s - x.sX6X1X,X>X>X-X>X>X1X",
"mXmX0XE m Z c l v 4 X < 0 0 x d 0 0 w l v d 2 o * x x l g g g x , U U % s C g g l s g l V c 0 2 2 0 0 6 > [ rX6X1X>X>X>X>X>X).~.",
"mXmXT.A 0 9 0 9 0 0 * + w 9 g d w 0 0 d l d 4 + - l g g x g g c 9 U / 3 s c x g l l g s Z V s 2 - 9 0 l g c ~.6X<X>X3X/.Q.T.~.W.",
"mXvXj.Y l 2 < = 8 8 < * < 4 s w w 8 8 w d l w < $ 4 l d l l g x d s U 3 c c x g l x l s C Z s 2 - 6 6 l 7 6 ) -X%X/.S.x.j.) j.0.",
"mX_.) S x 7 < < + 8 * 2 - 2 0 d w 8 8 w w w w 4 = $ 7 l g l l l f - f f g c g x x l s s V Z l 4 - 4 < 7 > 0 c Z.J.D.7.;.;.P D u ",
"3XU E c 0 s 7 8 1 * < + 8 - 8 w 9 8 8 8 0 l d 9 * X $ g d l l g f - , f g c x c x l 7 x V V c 4 - < 6 4 4 s g G.XXK.K.8.>.+.>.$.",
"U 5 ) m s 6 w 9 8 * < * + & 2 w 8 8 4 4 w w d w 2 $ . = l s l l x s   9 x x x g x s s x m V V 0 = 2 < & 6 6 s A S.XXJ.M.8.8.b.7.",
"T s Y V v 9 8 w 0 8 % 4 @ @ 4 7 8 4 8 8 8 w d d 9 - $ . 4 l g l s s X s f x s x c 0 l x c V Z 7 * < @ = 0 - c 4 ) Y.K.K.m.M.m.b.",
") m Z c l w < < y 9 < 2 <   < 9 8 4 4 8 8 8 w d d 9 < $ o 0 l s s s $ d x x x x l 0 z l s h c { M % & 0 9 4 c 6 k S.J.K.F.K.N.m.",
"E Y V n z d y w d v w * 2 @ 1 8 8 8 8 8 2 8 9 y l d 6 4 * * s l s s & s l x g x d 9 9 z Y k.G.m.E = < = * 7 9 - x ` J.J.K.K.N.N.",
"Z V l 9 d v 2 2 9 w x d 4 1 * 5 8 8 < < < 2 2 8 d z d 0 6 4 2 l s s - s x x g x w E 0.(.`.%Xc.; t 8 . + 2 4 - 7 : : { M.F.K.F.D.",
"c m d 2 * 6 0 $ * 2 w l v = % 8 8 4 < < < < - < 4 w d v s s : 9 s 6 : s s x g l > } W S.G.{ c h x s + < 6 0 4 * $ 6 k o.9.h.M.F.",
"w c l w 4 * 4 w < + 8 = $ @ + < < < < = - - - - - 2 4 9 4 4 4 - g 2 : l x s x s 6 * & h 5 6 l c g s < * & * $ * s s s L +.+.#.8.",
"m v 9 9 w 2 * < w 4 < 0 .   + * 1 0 4 2 < < < - * - 2 : - 2 4 - 6 2 2 s d d s 6 s s g s x l g g s s $ . o & : 7 s s c S D O.+.O.",
"T x w 8 8 9 4 < < n v d @ # + + * w 8 4 4 8 8 4 2 < 4 4 8 4 4 4 - 2 6 s d s 6 : C s s g s 7 s s s 0 & @ = 2 2 4 c C x A X O r O."
};
