/* XPM */
static char *result[] = {
/* columns rows colors chars-per-pixel */
"64 64 240 2 ",
"   c #0E150D",
".  c #13150B",
"X  c #15190E",
"o  c #191B0E",
"O  c #1E1107",
"+  c #1B1D13",
"@  c #171811",
"#  c #090C05",
"$  c #1E2115",
"%  c #1E2319",
"&  c #212316",
"*  c #232519",
"=  c #26291C",
"-  c #2A2C1D",
";  c #332C19",
":  c #2E311F",
">  c #30321F",
",  c #1D2A20",
"<  c #2C2E21",
"1  c #242B21",
"2  c #2E3123",
"3  c #283325",
"4  c #323425",
"5  c #3C3526",
"6  c #363926",
"7  c #3A3B25",
"8  c #343629",
"9  c #36392A",
"0  c #3A3D2C",
"q  c #3D3529",
"w  c #3C3E30",
"e  c #323E32",
"r  c #5D3A1D",
"t  c #453B2A",
"y  c #493E31",
"u  c #513729",
"i  c #663D32",
"p  c #763E34",
"a  c #733F2E",
"s  c #3E412D",
"d  c #3E4131",
"f  c #3B463B",
"g  c #41432E",
"h  c #4B442D",
"j  c #464125",
"k  c #51482E",
"l  c #434532",
"z  c #4A4435",
"x  c #464934",
"c  c #4A4B35",
"v  c #424639",
"b  c #4E4539",
"n  c #454B3A",
"m  c #4C4D39",
"M  c #534D3B",
"N  c #5A4A3A",
"B  c #574636",
"V  c #4E513B",
"C  c #4E5137",
"Z  c #53533C",
"A  c #5C5A3D",
"S  c #575438",
"D  c #66442C",
"F  c #624F3C",
"G  c #684836",
"H  c #744D3B",
"J  c #774737",
"K  c #69543D",
"L  c #76563D",
"P  c #72492F",
"I  c #7B6B3F",
"U  c #4B5647",
"Y  c #5B5B44",
"T  c #575745",
"R  c #565649",
"E  c #635C44",
"W  c #675948",
"Q  c #7B5C44",
"!  c #775946",
"~  c #6C574A",
"^  c #59624D",
"/  c #5A6758",
"(  c #63634B",
")  c #6A644B",
"_  c #646146",
"`  c #75684A",
"'  c #666552",
"]  c #6B6A53",
"[  c #696550",
"{  c #7A6A55",
"}  c #777259",
"|  c #6C7256",
" . c #687666",
".. c #787B67",
"X. c #7C7569",
"o. c #8B5A39",
"O. c #8E5330",
"+. c #97643A",
"@. c #91733D",
"#. c #A16338",
"$. c #8A5C45",
"%. c #825D4B",
"&. c #8A5748",
"*. c #925D4E",
"=. c #8C544A",
"-. c #AA5D4B",
";. c #8B634A",
":. c #886449",
">. c #976549",
",. c #896954",
"<. c #946B54",
"1. c #9A6B58",
"2. c #89755A",
"3. c #9B7155",
"4. c #9C745A",
"5. c #94745A",
"6. c #8F7947",
"7. c #A3795B",
"8. c #A6765B",
"9. c #AB6E54",
"0. c #897B65",
"q. c #9C7D61",
"w. c #967964",
"e. c #896F60",
"r. c #A37663",
"t. c #AC7363",
"y. c #A47D63",
"u. c #AC7A65",
"i. c #A77D6B",
"p. c #B27A6A",
"a. c #AD7669",
"s. c #7A8870",
"d. c #AF863F",
"f. c #93844F",
"g. c #BA9549",
"h. c #A78C50",
"j. c #86826C",
"k. c #9A8367",
"l. c #898974",
"z. c #938873",
"x. c #96937E",
"c. c #A1836B",
"v. c #AB846B",
"b. c #A98568",
"n. c #B2846D",
"m. c #B38B6C",
"M. c #B88B67",
"N. c #B3916B",
"B. c #AA8975",
"V. c #B48472",
"C. c #BA8673",
"Z. c #B38C73",
"A. c #B78A78",
"S. c #A89277",
"D. c #B69373",
"F. c #BA9474",
"G. c #B3967B",
"H. c #BC947B",
"J. c #BC9A7C",
"K. c #B99875",
"L. c #B7A974",
"P. c #C69C52",
"I. c #C28A79",
"U. c #C2957C",
"Y. c #C2987C",
"T. c #999785",
"R. c #BB9881",
"E. c #A39684",
"W. c #9EA093",
"Q. c #A2A18F",
"!. c #B7A188",
"~. c #ADAA97",
"^. c #A7A695",
"/. c #B4AB97",
"(. c #9FA1A2",
"). c #BAB7A7",
"_. c #BDBDB3",
"`. c #ACA6A1",
"'. c #C39583",
"]. c #C49B83",
"[. c #C99B85",
"{. c #C49C8B",
"}. c #CA9D8C",
"|. c #C99687",
" X c #C79788",
".X c #CBA48D",
"XX c #C7A389",
"oX c #CDA493",
"OX c #CFAB9A",
"+X c #C9A994",
"@X c #D1A594",
"#X c #D1AB94",
"$X c #D2AD9B",
"%X c #CAB296",
"&X c #D7B39C",
"*X c #D1B096",
"=X c #C3B687",
"-X c #C5BEAA",
";X c #C5B7A5",
":X c #D4B3AB",
">X c #C5C1AC",
",X c #CAC4AC",
"<X c #CAC6B2",
"1X c #CEC9B6",
"2X c #CECCBB",
"3X c #C7C5BA",
"4X c #D2CDBA",
"5X c #D7CBB9",
"6X c #D4D2BE",
"7X c #D9C1AF",
"8X c #E2DCBF",
"9X c #EDD798",
"0X c #CDCCC4",
"qX c #D7D4C0",
"wX c #D9D6C2",
"eX c #DCD9C5",
"rX c #DEDBC9",
"tX c #D3D3CB",
"yX c #DDDCD2",
"uX c #E1DECB",
"iX c #E3DCD2",
"pX c #DFE0D3",
"aX c #E1E1CF",
"sX c #E3E3D4",
"dX c #E5E5D9",
"fX c #E7E8DC",
"gX c #E9EADE",
"hX c #F0E3DC",
"jX c #ECEDE3",
"kX c #EEEFE9",
"lX c #E7E6E1",
"zX c #EFF0E7",
"xX c #EFF0E9",
"cX c #F2F3EC",
"vX c #F5F5F1",
"bX c #F7F8F2",
"nX c #FBFBF5",
"mX c #FEFEFE",
"MX c #F9F7F4",
"NX c #F1EEE7",
/* pixels */
"eXrXeXuXsXfXgXcXbXnXmXmXmXmXmXmXmXmXmXmXmXmXmXmXmXmXmXmXmXmXmXmXmXmXmXmXmXmXmXmXmXmXmXmXmXmXmXmXmXmXmXmXmXmXmXmXmXmXmXmXmXmXmXmX",
"eXrXrXuXaXfXzXzXbXnXnXnXmXnXmXmXmXmXmXmXmXmXmXmXmXmXmXmXmXmXmXmXmXmXmXmXmXmXmXmXmXmXmXmXmXmXmXmXmXmXnXmXmXmXmXmXmXmXmXmXmXmXmXmX",
"rXeXuXuXsXfXjXcXbXnXmXmXmXmXnXmXmXmXmXmXmXmXmXmXmXmXmXmXmXmXnXmXmXmXmXmXmXmXmXmXmXmXmXmXmXmXmXmXmXmXmXnXmXmXmXmXmXmXmXmXmXmXmXmX",
"eXrXrXuXaXdXgXzXbXnXnXmXmXmXmXmXnXmXmXmXnXmXmXnXmXmXmXmXnXmXmXmXmXmXmXmXmXmXmXmXmXmXmXmXmXmXmXmXmXmXmXmXmXmXmXmXmXmXmXmXmXmXmXmX",
"eXrXrXuXiXdXgXcXbXnXnXmXmXmXmXmXmXmXmXmXmXmXmXmXsX/.z.0.{ T.qXMXmXmXmXmXmXmXmXmXmXmXmXmXmXmXmXmXmXmXmXmXmXmXmXmXmXmXmXmXmXmXmXmX",
"eXrXrXuXaXdXjXxXbXnXmXnXnXmXmXmXmXmXmXmXnXmXMX^.W m y t 5 y k X.2XmXmXmXmXmXmXmXmXmXmXmXmXmXmXmXmXmXmXmXmXmXmXmXmXmXmXmXmXmXmXmX",
"eXrXrXuXaXdXfXxXbXnXmXmXmXmXmXmXmXmXmXmXmXvX0.b U y b y z b v t b ).mXmXmXmXmXmXmXmXmXmXmXmXmXmXmXmXmXmXmXmXmXmXmXmXmXmXmXmXmXmX",
"eXrXrXuXaXdXfXxXbXnXnXmXmXmXnXmXmXmXmXmXmXl.q U y b M T W W z M M F <XmXmXmXmXmXmXmXmXmXmXmXmXmXmXmXmXmXmXmXmXmXmXmXmXmXmXmXmXmX",
"eXuXuXuXaXfXfXNXcXnXmXmXnXmXmXmXmXmXnXmX_.t y y b y y ~ e.{ M W W T 0.mXmXmXmXmXmXmXmXmXmXmXmXmXmXmXmXmXmXmXmXmXmXmXmXmXmXmXmXmX",
"eXeXeXaXaXsXgXzXbXnXnXmXmXmXmXnXmXmXmXMX) 5 y y q t ~ w.R.w.~ ~ W E { yXmXmXmXmXmXmXmXmXmXmXmXmXmXmXmXmXmXmXmXmXmXmXmXmXmXmXmXmX",
"eXuXeXaXaXsXfXzXcXnXmXmXmXmXmXmXmXnXmX).5 b b T R ~ E.R.oX{.w.{ ~ } { ~.mXmXmXmXmXnXmXmXmXmXmXmXmXmXmXmXmXmXmXmXmXmXmXmXmXmXmXmX",
"eXeXeXuXaXdXfXzXcXnXnXmXmXmXnXmXmXnXMX[ q B W ! E.oXOXOXoXOXR.,.0.k.2.z.xXmXmXmXmXmXmXmXmXmXmXmXmXmXmXmXmXmXmXMXmXmXmXmXmXmXmXmX",
"6XeXuXeXaXsXfXzXcXnXnXnXnXmXmXmXmXmX).k b ~ w.A.OX:XOX@X@X.X{.v.k.w.w.2.3XmXnXmXnXmXmXmXmXmXmXmXmXmXmXmXmXmXmXmXMXmXmXmXmXmXmXmX",
"uXuXuXuXaXsXfXjXcXnXnXmXmXmXmXnXmXnX} F ,.i. X@XOXOX$XOX.X[.].B.k.w.k.2./.mXmXmXmXmXmXnXnXmXmXmXMXmXMXmXmXmXmXmXmXmXmXmXmXmXmXmX",
"wXuXeXuXuXaXfXzXcXnXnXmXmXmXmXmXmXsXF c.R.{.@X@XOXOXOX@X|.XX].B.k.k.B.5.E.mXmXmXmXnXmXnXmXmXmXmXnXmXnXnXnXmXmXmXmXmXmXmXmXmXmXmX",
"wXeXeXuXuXsXdXjXcXbXmXmXnXmXmXnXmX3X` $X$XOXOX@X@XOXOX@X[.].Y.b.k.q.c.k.2.xXmXmXmXmXnXmXmXnXmXnXmXmXnXmXmXmXnXnXmXmXmXmXmXmXmXmX",
"wXuXuXuXuXsXdXjXcXbXmXmXmXmXmXnXmXtX2.&X&X$X#X#XoX@XoXoX X'.].H.D.m.c.5.,.OXhXmXmXmXmXmXmXmXmXmXmXmXmXnXmXmXmXmXmXMXmXmXmXmXmXmX",
"wXuXeXeXuXuXdXgXcXbXnXmXnXmXmXnXmXjXk.*X&X#X#XoX}.{.}.}.'.|.'.Y.].XXS.4.U.-.}.mXmXmXmXmXmXmXmXmXnXmXmXmXmXmXMXmXnXnXnXmXmXmXmXmX",
"wXeXuXuXuXaXdXjXcXbXmXmXmXmXnXmXmXvXS..X#XoX}.}. X{.oXoX}.oXXX'.].#XD.G.Y.9.}.mXmXmXmXmXmXmXmXmXnXmXnXmXMXmXmXmXmXmXmXmXmXmXmXmX",
"wXuXuXuXuXaXdXgXzXbXnXnXmXmXmXmXmXmX!.J..XoX}. X XoXoX}.{.B.B.H.XX.XXX#XI.9.}.mXmXmXmXmXmXmXmXmXmXmXmXmXmXmXmXmXmXnXnXnXmXmXmXmX",
"wXeXeXuXuXaXhXgXcXcXmXmXmXmXmXnXnXmX>XD.*X*X#X.X}.}. Xr.Q Q <.4.D.XX.X*XC.-.|.MXmXmXmXmXmXmXmXmXmXmXmXmXmXmXmXmXmXmXmXmXmXmXmXmX",
"eXeXuXeXuXiXsXgXcXcXnXmXnXmXmXmXmXmXsXD.&X&X#X}.|.R.i.! G F H ;.b.XXXX+X.Xp. XMXmXmXmXmXmXmXmXmXmXmXmXmXmXmXmXmXnXmXmXMXmXmXmXmX",
"6XuX8XeXaXaXsXgXcXcXnXmXmXmXmXmXmXmXbX+XB.i.v.V.p.i.<.P K ~ <.i.Y.[..X.X{.U.oXMXmXmXmXmXmXmXmXmXmXmXmXmXmXmXmXmXmXmXmXmXmXmXmXmX",
"6XeXuXuXuXaXsXgXzXbXnXnXmXmXnXmXmXmXnX!.,.~ G %.r.r.<.G H 1.r.H.XX[..XXX{.'.:XmXmXmXmXmXmXmXmXmXmXmXmXmXmXmXmXmXmXmXmXmXmXmXmXmX",
"eXeXuXuXuXaXaXgXzXcXnXmXmXnXmXmXmXmXmX5X4.:.E q *.'.V.;.$.<.v.@X[.U.].XX].H.lXmXmXmXmXmXmXmXmXmXmXmXmXmXmXmXmXmXmXmXmXnXmXmXmXmX",
"6XuXuXeXeXuXaXfXzXcXnXmXmXmXmXmXmXmXmXbXK.4.<.G %.@XH.V.A.U.|.}.[.Y.Y.R.J.R.kXmXmXmXmXmXmXmXmXmXmXmXmXmXmXmXmXmXmXmXmXmXmXmXmXmX",
"6XuXeXuXuXuXsXfXzXcXnXmXmXmXmXmXmXmXnXmX*Xm.8.>.Z.#X[.Y. X|.|.|.U.F.A.H.'.Z.3XmXmXmXmXmXmXmXmXmXmXmXmXmXmXmXmXmXmXmXmXmXmXmXmXmX",
"6X6XeXeXeXaXsXfXjXzXnXmXmXnXmXmXmXmXmXmX7X}.U.[.#X#X}.'.p.t.I.p.C.n.Z.H.H.H.0.vXmXmXmXmXmXmXmXmXmXmXmXmXmXmXmXmXmXmXmXmXmXmXmXmX",
"uX6XuXuXeXuXaXfXjXcXnXmXmXmXmXnXnXmXmXmX5X@X@X@X[.#X@X'.p.*.9.t.u.v.v.F.D.Y.K W.mXmXmXmXmXmXmXmXmXmXmXmXmXmXmXmXmXmXmXmXmXmXmXmX",
"6XeX6XuXeXuXaXfXgXcXnXnXnXnXmXmXmXmXmXmXiX[.@Xp.p.&X@XI.t.a.>.&.1.y.v.v.b.Z.A A x._.tXvXmXmXmXmXmXmXmXmXmXmXmXmXmXmXmXmXmXmXmXmX",
"uXuXuXuXuXuXaXsXjXcXbXnXmXmXmXmXmXmXnXmXbXU.I.t.r.[.V.$.*.p.r.%.4.y.b.b.b.v.M S _ A z ' 0XmXmXmXmXmXmXmXmXmXmXmXmXmXmXmXmXmXmXmX",
"6X6X6XuXuXuXuXsXgXcXbXnXmXmXnXmXnXmXmXnXmX;Xu.9.1.n.1.=.a.V.1.*.7.4.7.7.7.q.h Z Z c 0 0 T T.jXmXmXmXmXmXmXmXmXmXmXmXmXmXmXmXmXmX",
"wXwXeXeXrXrXuXdXfXcXcXmXnXmXmXnXmXmXmXmXmXiXr.>.r.p.t.t.t.=.<.u.7.1.3.<.7.,.s C m 0 0 v Z S { ).vXmXmXmXmXmXmXmXmXmXmXmXmXmXmXmX",
"wXqXeXeXeXuXuXsXgXcXcXnXmXmXmXmXnXmXmXMXmXmX!.3.,.r.1.=.p =.t.p.4.3.3.6.7.K 7 k c 9 d h b V T A X.3XmXmXmXmXmXmXmXmXmXmXmXmXmXmX",
"wXwXeXeXeXrXrXsXfXzXvXmXmXnXmXmXmXnXmXmXvX;Xk.v.1.a.1.=.=.9.p.v.q.<.:.:.1.h s l z 0 s b.>.B U M A E l.yXmXmXmXmXmXmXmXmXmXmXmXmX",
"6XwXeXeXeXeXrXsXdXcXcXnXnXmXmXnXmXmXNX).,.D P 3.r.B.a.1.1.t.C.B.5.:.L :.:.6 s g g 9 B 9Xf.i J ~ A T Z ( W.jXmXmXmXmXmXmXmXmXmXmX",
"6X6XeXeXwXeXrXsXdXzXcXnXmXnXnXmXcX,X;.P G J D h 5.m.p.u.p.C.A.i.,.L ! <.G < t 0 s 0 i O.G v x B J J K F C [ ).MXmXnXmXmXmXmXmXmX",
"wX6X6XeXwXeXrXpXdXjXcXnXnXnXmXuXL.g.J L G h 9 * t k.Z.C.C.V.a.,.L L L ;.z 4 0 0 g 9 f y i p a b d ` P.o.6.h.A ..yXmXmXmXmXmXmXmX",
"6X6X6XeXwXeXrXrXdXjXcXbXnXvX=Xf.o.o.F x 0 6 0 & - S w.v.r.<.Q K K L &.! w 6 0 s l 8 v v v y G J a +.g.k @.g.+.B ' tXmXmXmXmXmXmX",
"6X6X6XwXwXwXeXrXdXjXzXbXbXk.g.h.N l l x 7 0 7 X x 7 0 ,.! K G H L ;.,.R 4 9 0 7 d 9 w w l v f d b G a 6.h.C S B U ] >XmXmXmXmXmX",
"6X4X6X6X6X6XaXaXsXjXzXmX).P 6.Z n m x 0 6 z - & C j : A 5.` Q %.;.$.^ U 2 s 0 0 s 3 0 l x x l d w f c @.d.J z 9 Y E | dXmXmXmXmX",
"6X4X6X6X6X6X6XaXpXfXzXxX] x m V V n 0 6 0 m & 4 S j % ^ H 3.<.>.$._ / U 0 0 9 0 s 1 9 w d v v x l l d g z B u c Z _ Y T.mXmXmXmX",
"4X4X4X4X6X6X6XaXaXdXcXrXs n A C c g 6 6 m s * g C c o U ^ u L ` ' / / n s 0 0 0 0 1 8 0 d l v x x x x d v d w c Z Y h Y vXmXmXmX",
"5X4X4X4X6X6X6X8XrXdXvX_.6 V V n x 0 6 0 Z 6 ; j k c - 3 s.Z 0 ] /  ./ n s 6 0 s d 1 8 0 d d x x v l x v v l v c m 0 6 ] vXmXmXmX",
"4X4X1X4X4X4X6XwXrXpXvX~.> n V c d 9 4 l V - ` =XS j 6 X | s.^ /  . .U c s 7 7 0 0 < 8 w l l l l c c l v d x l c > > V } kXmXmXmX",
"4X1X<X1X4X4X4XwXrXiXcXT.> l V l 0 8 9 c c 6 | L.C s 7 X f l.f e  ./ C x s 2XeX| 9 < 9 w l x h x c c c l d x d 9 * 0 ^ ) tXmXmXmX",
"1X,X,X<X1X4X4XqXeXiXNXQ.> d C s 6 4 7 C c C C k C j s & f s.3 3 U ^ n x 0 .._.l.6 < 8 w v x x x c x x d d g 0 * 4 h ^ ) ^.mXmXmX",
"1X,X-X-X<X1X4X4XwXuXjXs.6 0 x 9 8 9 s Z g > 6 s g s s , f U 3 e $ n x s s 7 7 C l = 9 w v m x x x c x d d 0 = * 6 n Y ' 0.mXmXmX",
"<X>X-X-X>X>X1X4X6XdX6Xs s 0 l 4 4 8 l Z 0 + $ 2 g s l > f f , 3 % V s 9 = : 0 c 9 < w w v v l l x l d s d 4 + < d m A _ ' jXmXmX",
"2X>X-X-X>X-X>X4X4XsXx.- s 7 s 2 4 9 x Z c x x C l s c s e e f % 0 c s l s = . X @ < w l x l w w d x d s w $ $ 9 x V Y T ^ dXmXmX",
"~.).>X>X>X-X>X1X6XrX' > 0 9 0 : 2 0 m V x g g l s s c s , U U - x g g g l c x * X < d v l d w 9 d x 0 0 2 . 4 z l c Z V _ 0XmXmX",
"W.~.x.Q.).3X>X>XqX~.x s g 0 6 2 2 s C C s l g g g l c g 3 / f 3 c l g l s s l = + 4 l l l 0 9 w d d 9 0 @ = 9 w 8 0 0 0 A T.mXmX",
"..l.` j.x.S./.%X-X) 6 7 l 4 4 - 2 s Z C d l l h x x c x 3 ^ s s x l g x d l 4 $ - 9 l l w 9 9 w d d 4 - & 1 9 8 - - 2 g Y j.cXmX",
"u i P >.;.8.D.J.D.c 0 > 0 : 4 - 4 x Z C l s l x x x x c f f : x g l l g d 0 $ = 8 w y 0 9 9 q 9 d 0 < - 4 * 9 + - 2 9 x S ) _.mX",
"o.>.+.>.8.K.J.XXG.s s 4 4 4 : - 6 x V V l 0 x x x x x g f , : f l l g s y $ X * 9 d d w 8 8 8 8 w 9 = 9 $ < * = 6 9 g s n W U -X",
"8.b.8.8.m.K.].G.A s 6 6 $ 2 2 = 0 V V c x 7 g x x x j c 4   s s g l s l - . + < w l w e 8 8 8 8 0 2 * + * < * 8 9 w 4 s m ) w U ",
"b.m.N.M.K.J.Y.) > c : 9 - @ 2 * 0 V Z c c s 0 x l x d c 9 X s g g g s 6 . $ - 9 w v w 9 9 4 8 8 9 4 + @ 4 * 4 9 y 4 9 c m Y 0 T ",
"N.N.N.F.K.J.S.x 4 c 4 9 9 * & M { k g g l c 0 x x l l c s $ s g g g s o $ 2 9 s l w 9 4 8 4 4 8 0 1 . 1 < < w d 2 < 0 l m V Z ) ",
"N.N.K.K.Y.K.) c : 7 9 * = 1 = K n.G.k.R c s 9 w l x l x w * s s g s = * 2 8 d d t 9 4 2 4 4 4 8 9 = @ 2 = w v l w w d v n V T E ",
"F.K.K.Y.M.` > - 0 = 4 2 + . 6 s ; c.%X~.(.0.Y 0 x l x l d = 0 s x 4 4 6 9 d c d 8 4 < < 2 4 8 8 9 * = 8 0 v w q 2 2 v d 0 l Z Z ",
"K.K.h.9.o.k 6 $ * 4 9 6 < + 0 c x c ,.G.B.W } > l x g l g - 6 g 0 - s 0 l l w 8 < < < < < < 4 8 8 $ * v l w < * & 9 8 = 2 w m m ",
"8.+.+.#.L g s s * & * & = - 0 x x g 6 7 h * - 6 s x g l x - 4 g - 8 8 4 9 9 2 = - = - < 1 < < < < + @ $ = 6 % < w 4 * 4 w l x w ",
"O.#.O.r S c s h 7 - * o . + s g g g x x s s s s 7 s g d l - 2 6 - 6 < - < < - = = < < < < 4 9 1 * +   . 9 < 4 0 < * 4 9 9 9 x m ",
"O.r O @ T c c m 8 < 2 = o & s 0 s s 7 0 g s s n 2 4 l d g 4 1 - 4 4 8 6 4 4 < < 4 8 8 4 4 q w * $ + # @ l v v 4 - 4 9 8 4 w m T "
};
