/* XPM */
static char *_623789845282[] = {
/* columns rows colors chars-per-pixel */
"50 50 77 1 ",
"  c #072A3D",
". c #0B2B3D",
"X c #0B2E41",
"o c #063546",
"O c #0F3041",
"+ c #043947",
"@ c #0F3947",
"# c #043748",
"$ c #053D4B",
"% c #0D3D4D",
"& c #133747",
"* c #133B4D",
"= c #18394A",
"- c #073F50",
"; c #0D3F50",
": c #143E51",
"> c #193F52",
", c #04424D",
"< c #0B404E",
"1 c #12404F",
"2 c #044252",
"3 c #0B4252",
"4 c #064854",
"5 c #0C4956",
"6 c #0E4758",
"7 c #074B59",
"8 c #0B4A5A",
"9 c #124453",
"0 c #134956",
"q c #114658",
"w c #144C5A",
"e c #194D5B",
"r c #0E535D",
"t c #03585F",
"y c #14525D",
"u c #18535F",
"i c #134F61",
"p c #075663",
"a c #0C5664",
"s c #065A64",
"d c #0A5964",
"f c #075A68",
"g c #0B5A69",
"h c #125463",
"j c #195562",
"k c #125964",
"l c #1E5965",
"z c #195D68",
"x c #205A66",
"c c #245E6A",
"v c #176369",
"b c #1C636B",
"n c #1C686E",
"m c #1B6571",
"M c #1B6973",
"N c #22636D",
"B c #236470",
"V c #2A6671",
"C c #246A74",
"Z c #2E6A75",
"A c #2E6F79",
"S c #316B77",
"D c #257076",
"F c #297076",
"G c #26757A",
"H c #2B757C",
"J c #267B7E",
"K c #2C797F",
"L c #31757E",
"P c #31787E",
"I c #257681",
"U c #2B7681",
"Y c #277C82",
"T c #2C7B81",
"R c #337680",
"E c #327981",
"W c #2D8084",
/* pixels */
".=*<5,,43339;333,2<<*9:%;-2222--<<*%:%%;:;:;11@$*%",
".&@<<,,42<%3;;32,,<<*=:%-22222-63<33;;3%;;;3<<<<%%",
"O=9<r4,456qqqq66445099:3687788885055665655660555%%",
"O=99yr4rawwwiih8yyyue993ihaiaaiirrrrrrrryryhrrrr<*",
".@@5kkrrhhhjhhhhrrjle<$<jhkgahhhkskkdddpddvskskk<%",
".@1rnnvnmBcNBBmMnnNVx9<3haaaaahgsstssssssssssttt<%",
".,1uFJGJUUUUUUIIKGHLVw<8aappaaaaststtsppsssstttr<%",
".@0lFPJWURRREREETKKRVw,5yapfpgaasssstsfpssssssss<%",
".@,lFJPJJPPJUEYYJKHLZy,4addssddaagppppggpfggpfga2%",
" ,+lPJWJJPWPUUYYJKKLZ5$4ktsssddapaagaaaagaaaaaaa<<",
".@,uPJJJJKPPTYYYJTKLZ5$4adsssdaagggigaaaaagaaagi3%",
".@@vPJPJKWPJTYYYJWKLFy,4ydsssdaaiaagaaaaaahaaagi31",
".@@vPJJJKKEKTUYYJTKHZw,4htddddaaaagaaagiaaaaaggi%%",
".@@lPFWPWKUTTUYYJTHLSy$4kddsddaaaaaaaappagaaaapi3:",
".@,lPFWJJKTEUYYTJEPLZw,4yddsddakpgppggggaggggagg<*",
".@@lPPPJKPETTTYYJTHLSw$4hadsddadfggffffaffgppggi2%",
" *@lKHKKKPPKKJJTJTPLZe+4aadspssapfffffpffgfpgagg3<",
" *+xLHTKKTPPKTTJJTPLZe$3hhdssdddfffffffffggfgggi<1",
" *+xLKJKTKPPPTTJJTPLZe$3hhpddpddpffpppppgagggggh3%",
"X=%xLHKKKKPKPJTJJTKLZe$3yraataaapppappppaaaaiggh3*",
" *#xLKKKKTLEPTTJJWPLS0#3iiiaaaiaaaaaaaaaaihhhghi;%",
" *#xLHKKKPPPKKTJJWKLSe%3hhhhhhhihhaahahahhhhhhix;%",
"X=@lLKKKKKLTTKJJJWJHVe#:iwhaihiiaaiaiiiihiiiiiii%9",
" :#xLKKKTKRPPKJJJWKHSe%3qw88888q87788788iii8iiiq;%",
"X&#xRHUKTPLLKKKWJYHLSw#;2342222-2,2222222-$-3-33;*",
"X*%xRUUKKKEKKTJJJJKRSw#3-222722-2,2,2,222------2%3",
" &#lPHUKTLRPPTJTJJHRS0#;687888885777748373488633::",
"X&#lLHJKKKKEKKKJJJRRS0#6ihaaaaagarhrraraaaiwhhy5<%",
" *+xPHKKKKPHKKJJJJKLSe#6hhgfgghhgkkakjkkjkjhkjr3<<",
" *@xRKKKTPPEPKKJJJLLZe#wBmmIMMmMmnnnMmbmbMbbNCz8<%",
" *+xLKJKKKPETKKWJJHLSe-qRUUIIIIIUIJJJKUHHTUHUUCk<*",
" *%xLHJKKTPPKKKJKKLLSe-qRUUYYIUIUTTTTUTTUTEHTEAj%9",
"X*#xPHTKKKRKKKJJJWKLZ0+wHHKKKJKUTKKTJKKKTHTEHRLy<*",
" =#xLHTKKKPLEKJTJKKLSe,wAPKKHJKKKPKKKTTKJHPELEAu<<",
"X=@lRHKKKTLKKKKJJWPLZe@wLPKKKJKPTPPKKKKKTHPPLRAu<*",
" :#xPHJJKPPEEKJTJKKLZ0,wAPKKJKKKLLKTKKKTTKPTLEAu3*",
"X&#xRUKKKPPKKTKJJKPPZ0,wSHKKKJKKTLTKKKKJTGPELRLu1<",
"X*%xRHKKKKEPPJTJJJKPZ0,wLLKTJKKKPKPKKKJUTHETLPSu<<",
" &#lRHUJKTPEKKKTJWPLZe,0AHKKJJKKEKEKKKKKKKEPLRFu<*",
"X&#lRHUKKPPKPJTJJKPLZ0,wALKKKHKKKLKKTKKKKHEPLLLu<<",
"X>1xPHKWKKHPKKKJJWKRSe<wLLKWKKKTKLKKHKJKETEELELj<*",
" *$lHHKKKHLKKKKJWTKPS0$5SPKKJJKTLKPJKKKKKKPHFEAe3*",
" *@lLHWETTREKTKJWWPPS0<wLPWEKWKEPKETKKKTTKKHLRAy<<",
"X=%xLGTKKPLPKKTJJTPPSe<yLLKKKJKTPPPKKJKJTKPELLLu<*",
" *%jLDKKKKLLKKJJJHHPS0,5AHKKKJHKHKKKKHKKKKKHLRAu<1",
" *%xLKTWKPPPETTJWWKPS0$wLLTPTJKTEEEKTTJTTHPPLELl<%",
"X>%jFFHGHGFHGGJGJHHLS0<yFFKHGGGGHHHGGGGHKDHHFLZy<1",
" *#eNlvzbbbxbbvvvvNVN1+0xlbbbvbbblbzblvbbbNNNVc<<*",
"X&:%%;3$<<%<<<<<,<<<%%%<<<%<<<<<$%<<,,<<<$%<<<<%*<",
"o@:******%%%%%%%%%%%%%*%%%%%%%%%%%%**%%%%%%*%%%%%1"
};