/* XPM */
static char *result[] = {
/* columns rows colors chars-per-pixel */
"64 64 256 2 ",
"   c black",
".  c #010101",
"X  c #020202",
"o  c gray1",
"O  c #040404",
"+  c gray2",
"@  c #060606",
"#  c #070707",
"$  c gray3",
"%  c #090909",
"&  c gray4",
"*  c #0B0B0B",
"=  c #0C0C0C",
"-  c gray5",
";  c #0E0E0E",
":  c gray6",
">  c #101010",
",  c #111111",
"<  c gray7",
"1  c #131313",
"2  c gray8",
"3  c #151515",
"4  c #161616",
"5  c gray9",
"6  c #181818",
"7  c #191919",
"8  c gray10",
"9  c #1B1B1B",
"0  c gray11",
"q  c #1D1D1D",
"w  c #1E1E1E",
"e  c gray12",
"r  c #202020",
"t  c gray13",
"y  c #222222",
"u  c #232323",
"i  c gray14",
"p  c #252525",
"a  c gray15",
"s  c #272727",
"d  c #282828",
"f  c gray16",
"g  c #2A2A2A",
"h  c gray17",
"j  c #2C2C2C",
"k  c #2D2D2D",
"l  c gray18",
"z  c #2F2F2F",
"x  c gray19",
"c  c #313131",
"v  c #323232",
"b  c gray20",
"n  c #343434",
"m  c #353535",
"M  c gray21",
"N  c #373737",
"B  c gray22",
"V  c #393939",
"C  c #3A3A3A",
"Z  c gray23",
"A  c #3C3C3C",
"S  c gray24",
"D  c #3E3E3E",
"F  c #3F3F3F",
"G  c gray25",
"H  c #414141",
"J  c gray26",
"K  c #434343",
"L  c #444444",
"P  c gray27",
"I  c #464646",
"U  c gray28",
"Y  c #484848",
"T  c #494949",
"R  c gray29",
"E  c #4B4B4B",
"W  c #4C4C4C",
"Q  c gray30",
"!  c #4E4E4E",
"~  c gray31",
"^  c #505050",
"/  c #515151",
"(  c gray32",
")  c #535353",
"_  c gray33",
"`  c #555555",
"'  c #565656",
"]  c gray34",
"[  c #585858",
"{  c gray35",
"}  c #5A5A5A",
"|  c #5B5B5B",
" . c gray36",
".. c #5D5D5D",
"X. c gray37",
"o. c #5F5F5F",
"O. c #606060",
"+. c gray38",
"@. c #626262",
"#. c gray39",
"$. c #646464",
"%. c #656565",
"&. c gray40",
"*. c #676767",
"=. c #686868",
"-. c DimGray",
";. c #6A6A6A",
":. c gray42",
">. c #6C6C6C",
",. c #6D6D6D",
"<. c gray43",
"1. c #6F6F6F",
"2. c gray44",
"3. c #717171",
"4. c #727272",
"5. c gray45",
"6. c #747474",
"7. c gray46",
"8. c #767676",
"9. c #777777",
"0. c gray47",
"q. c #797979",
"w. c gray48",
"e. c #7B7B7B",
"r. c #7C7C7C",
"t. c gray49",
"y. c #7E7E7E",
"u. c gray50",
"i. c #808080",
"p. c #818181",
"a. c gray51",
"s. c #838383",
"d. c #848484",
"f. c gray52",
"g. c #868686",
"h. c gray53",
"j. c #888888",
"k. c #898989",
"l. c gray54",
"z. c #8B8B8B",
"x. c gray55",
"c. c #8D8D8D",
"v. c #8E8E8E",
"b. c gray56",
"n. c #909090",
"m. c gray57",
"M. c #929292",
"N. c #939393",
"B. c gray58",
"V. c #959595",
"C. c gray59",
"Z. c #979797",
"A. c #989898",
"S. c gray60",
"D. c #9A9A9A",
"F. c #9B9B9B",
"G. c gray61",
"H. c #9D9D9D",
"J. c gray62",
"K. c #9F9F9F",
"L. c #A0A0A0",
"P. c gray63",
"I. c #A2A2A2",
"U. c gray64",
"Y. c #A4A4A4",
"T. c #A5A5A5",
"R. c gray65",
"E. c #A7A7A7",
"W. c gray66",
"Q. c #A9A9A9",
"!. c #AAAAAA",
"~. c gray67",
"^. c #ACACAC",
"/. c gray68",
"(. c #AEAEAE",
"). c #AFAFAF",
"_. c gray69",
"`. c #B1B1B1",
"'. c #B2B2B2",
"]. c gray70",
"[. c #B4B4B4",
"{. c gray71",
"}. c #B6B6B6",
"|. c #B7B7B7",
" X c gray72",
".X c #B9B9B9",
"XX c gray73",
"oX c #BBBBBB",
"OX c #BCBCBC",
"+X c gray74",
"@X c gray",
"#X c gray75",
"$X c #C0C0C0",
"%X c #C1C1C1",
"&X c gray76",
"*X c #C3C3C3",
"=X c gray77",
"-X c #C5C5C5",
";X c #C6C6C6",
":X c gray78",
">X c #C8C8C8",
",X c gray79",
"<X c #CACACA",
"1X c #CBCBCB",
"2X c gray80",
"3X c #CDCDCD",
"4X c #CECECE",
"5X c gray81",
"6X c #D0D0D0",
"7X c gray82",
"8X c #D2D2D2",
"9X c LightGray",
"0X c gray83",
"qX c #D5D5D5",
"wX c gray84",
"eX c #D7D7D7",
"rX c #D8D8D8",
"tX c gray85",
"yX c #DADADA",
"uX c gray86",
"iX c gainsboro",
"pX c #DDDDDD",
"aX c gray87",
"sX c #DFDFDF",
"dX c gray88",
"fX c #E1E1E1",
"gX c #E2E2E2",
"hX c gray89",
"jX c #E4E4E4",
"kX c gray90",
"lX c #E6E6E6",
"zX c #E7E7E7",
"xX c gray91",
"cX c #E9E9E9",
"vX c #EAEAEA",
"bX c gray92",
"nX c #ECECEC",
"mX c gray93",
"MX c #EEEEEE",
"NX c #EFEFEF",
"BX c gray94",
"VX c #F1F1F1",
"CX c gray95",
"ZX c #F3F3F3",
"AX c #F4F4F4",
"SX c gray96",
"DX c #F6F6F6",
"FX c gray97",
"GX c #F8F8F8",
"HX c #F9F9F9",
"JX c gray98",
"KX c #FBFBFB",
"LX c gray99",
"PX c #FDFDFD",
"IX c #FEFEFE",
"UX c white",
/* pixels */
"UXUXUXUXUXUXUXUXUXUXUXUXUXUXUXUXUXUXUXUXUXUXUXUXUXUXUXUXUXUXUXUXUXUXUXUXUXUXUXUXUXUXUXUXUXUXUXUXUXUXUXUXUXUXUXUXUXUXUXUXUXUXUXUX",
"UXUXUXUXUXUXUXUXUXUXUXUXUXUXUXUXUXUXUXUXUXUXUXUXUXUXUXUXUXUXUXUXUXUXUXUXUXUXUXUXUXUXUXUXUXUXUXUXUXUXUXUXUXUXUXUXUXUXUXUXUXUXUXUX",
"UXUXUXUXUXUXUXUXUXUXUXUXUXUXUXUXUXUXUXUXUXUXUXUXUXUXUXUXUXUXUXUXUXUXUXUXUXUXUXUXUXUXUXUXUXUXUXUXUXUXUXUXUXUXUXUXUXUXUXUXUXUXUXUX",
"UXUXUXUXUXUXUXUXUXUXUXUXUXUXUXUXUXUXUXUXUXUXUXUXUXUXUXUXPXFXBXNXNXBXFXPXUXUXUXUXUXUXUXUXUXUXUXUXUXUXUXUXUXUXUXUXUXUXUXUXUXUXUXUX",
"UXUXUXUXUXUXUXUXUXUXUXUXUXUXUXUXUXUXUXUXUXUXUXIXmX,XI.p.$.Q ] T W ] E %.i.I.,XmXIXUXUXUXUXUXUXUXUXUXUXUXUXUXUXUXUXUXUXUXUXUXUXUX",
"UXUXUXUXUXUXUXUXUXUXUXUXUXUXUXUXUXUXUXUXUXMX|.4.~ K 5 E C 6 K r p J 2 F U 4 P W 3.|.MXUXUXUXUXUXUXUXUXUXUXUXUXUXUXUXUXUXUXUXUXUX",
"UXUXUXUXUXUXUXUXUXUXUXUXUXUXUXUXUXUXUXgXm.E W q n m % * o             O & & N k y W T m.gXUXUXUXUXUXUXUXUXUXUXUXUXUXUXUXUXUXUXUX",
"UXUXUXUXUXUXUXUXUXUXUXUXUXUXUXUXUXbXN.W n 9 b &                                 * c 8 Z E N.bXUXUXUXUXUXUXUXUXUXUXUXUXUXUXUXUXUX",
"UXUXUXUXUXUXUXUXUXUXUXUXUXUXUXLXoX_ 9 C u                                           . p m 9 _ oXLXUXUXUXUXUXUXUXUXUXUXUXUXUXUXUX",
"UXUXUXUXUXUXUXUXUXUXUXUXUXUXBXa.d ' w                                                     r _ a a.BXUXUXUXUXUXUXUXUXUXUXUXUXUXUX",
"UXUXUXUXUXUXUXUXUXUXUXUXUXdX%.L 5 %                                               . .       $ 7 U $.dXUXUXUXUXUXUXUXUXUXUXUXUXUX",
"UXUXUXUXUXUXUXUXUXUXUXUX0XK d M o                           + 2 p V J , o   .     N  .V 2 .   o n i P 0XUXUXUXUXUXUXUXUXUXUXUXUX",
"UXUXUXUXUXUXUXUXUXUXUX0X! Q *                       . 3 K 6.H.|.=X,X*XS p < #.7 O ~ v.V.h.} 3     - ~ Q 0XUXUXUXUXUXUXUXUXUXUXUX",
"UXUXUXUXUXUXUXUXUXUXdXK p u                     % M 3.v.x.x.3.x y 0 5 + o @ t # i x.V.u.f.P.V.S #   y y P dXUXUXUXUXUXUXUXUXUXUX",
"UXUXUXUXUXUXUXUXUXNX$.! >                   # N -.@.N < l ' a.v                   7 :.x.m.t.N.b.m     2 / $.NXUXUXUXUXUXUXUXUXUX",
"UXUXUXUXUXUXUXUXPXa.w z                 . e E F 2 .   X N ( 2.V t F ] 2.p.j.z.b.v.7.E Y y.B.a.a.t       k 0 a.PXUXUXUXUXUXUXUXUX",
"UXUXUXUXUXUXUXUX.XJ a                 + s c :         O s +.p.7.1.+.~ D B v b C E 5.R._.R E g.@.T #       h L .XUXUXUXUXUXUXUXUX",
"UXUXUXUXUXUXUXbXU Y >                 1 > X       = n ' ' D e * .     o # & % +     $ #.XX5 2 @ b v       > K I bXUXUXUXUXUXUXUX",
"UXUXUXUXUXUXUXV.s &             # +     V m.7 $ b T n < .     : N $.a.n.k.r.0.2.' ,   6 $XL 3   $ L #       = j V.UXUXUXUXUXUXUX",
"UXUXUXUXUXUXgXT / o           2 A.!   ) 0Xb.f C i 6 +   X f w.`.W.q.T s 4 * & ; P E   ^ +X0.R.%   m 3       o / U gXUXUXUXUXUXUX",
"UXUXUXUXUXUXN.4 ,           + j._.t [ 0X-.s f & [ +Xv 3 i.,XV.D =               K c y -X>.c 6Xj   i 3         : 3 N.UXUXUXUXUXUX",
"UXUXUXUXUXMX` L             Y D.4 J 5X[ 6 0 o -.8X*.v XX.XA O               X b G s OXP.- : $XK   8 %           U ` MXUXUXUXUXUX",
"UXUXUXUXUX|.b h           = 9.r 9 @X#.# 1   c -XK   U x.5             X . % M N . ` G.5   - .XU . X             f z |.UXUXUXUXUX",
"UXUXUXUXUX8.q o           f H   0.F.@ X X   / R.@   . X         $ 6 u q 0 v 0 . + < * O   0 0X=XW.,.,           o y 9.UXUXUXUXUX",
"UXUXUXUXmX) ~             e > @ Q.I         7 U.k.S w 7 q k D E Y x 6 8 6 @ * w 9 $ r 2   ..=X=.' Z.x.%           ^ ) mXUXUXUXUX",
"UXUXUXUX1Xi 7             o . @ T.K           3 ..f.k.t.>.] Z 9 @   . & q x g > + M N . y '.G     & B.v           4 t 1XUXUXUXUX",
"UXUXUXUXU.B :             + 2   ..~.b O           . @ O       X < g G K j = X f %.P o q J.&..       r.b           < F U.UXUXUXUX",
"UXUXUXUXu.! :             s y.+ + _ I.N.%.D g q , > 5 i l F ^ } ( C 5 O < I d.a.l o A J...O       < t.,           : T y.UXUXUXUX",
"UXUXUXPXo.1 .             # 7 .   D E G @.r.j.f.r.8.5.-.[ G s : X # ` Z..XG.P & i 6.k.v .         W W             . : X.PXUXUXUX",
"UXUXUXFX' G .                     2.0XZ.R w - # + + o .   O $ %   3 G.h.C 6 M >.9.J % X .       g { $             . P ' FXUXUXUX",
"UXUXUXVX~ n                       @ n t.Q./.D.d.6.;.@.] I D s > X % r b W  .! p + . 6 8 .   o p L ;                 k W VXUXUXUX",
"UXUXUXBXJ >                     b / b $ + ..#.v N k t 7 * + : w l N N h 5 +   . 6 B a O   + p K :                   < K BXUXUXUX",
"UXUXUXMX .L                   < p.! V f $ ).6.            . & % @ .       % h / #.-.$     . c :.:                   I  .MXUXUXUX",
"UXUXUXVXQ u                   : O.R ` B > XX_         X = % $ $ = 2 g I =.9.| r I ,X7       $ @                     u Q VXUXUXUX",
"UXUXUXFXQ t .                   q v 0 3 . B.d..       b .X.X'./.~.U.B.4.J 3 .   8.~.#     @ e 6 .                 . i ! FXUXUXUX",
"UXUXUXPX;.[ O                   o X O     j  X6.w +   , E ) ~ E S f 6 O     X ! $XS . @ @ m ~ r.f                 O [ ;.PXUXUXUX",
"UXUXUXUXu.q X                   y 7 o O     ' fXY.k.7.-...] ^ K B y : X & v c.OXG   2 9 2 j | } L                 X 9 u.UXUXUXUX",
"UXUXUXUXI.v 6                   % G | ] &   Q L.5 6.[ v h q 5 , 6 p C o.t.e.U._.#   m r 2 ! C W 5                 6 n I.UXUXUXUX",
"UXUXUXUX,XT x                     j Z.P.1.1 s S.1 K.P.3     = i S ] ../ r   ^ '.$ +  .> o 2 t ,                   l Y ,XUXUXUXUX",
"UXUXUXUXMXF < .                   ; :.R.L.h.p _ ' l W.XXN.y.0.8.$.I e O X z !.X.  n %.                          . < F MXUXUXUXUX",
"UXUXUXUXUX7.~ ,                     & / x.L.P 8 I g % m  .U v q 2 4 u U 3.n.~ O & j.b                           , ^ 8.UXUXUXUXUX",
"UXUXUXUXUX XS 6                       . q K % ( w., N ` _.K 1 3 l N m T 8.5   o 3.h.O                           5 Z  XUXUXUXUXUX",
"UXUXUXUXUXNXJ s O                             O > $ !.f.2.P.d...g o   n ,Xw % 6.|.r                           O f J NXUXUXUXUXUX",
"UXUXUXUXUXUXN.! t                           . + .   / *XW 5 , : 3 w = 0.D.@ u.>Xm                             t ! N.UXUXUXUXUXUX",
"UXUXUXUXUXUXgXS 4 X                         m { p X 1 >.F.N.0.#.L s  .P.p   b p                             X 3 A gXUXUXUXUXUXUX",
"UXUXUXUXUXUXUXm.F x                         ) o.K & ! _.1 1 3 8 m $.*.7 .                                   x G m.UXUXUXUXUXUXUX",
"UXUXUXUXUXUXUXbX` c .                       6 B k + 4 Q.,.; @ 7 w ; $ ,.1.                                . x ` bXUXUXUXUXUXUXUX",
"UXUXUXUXUXUXUXUX.Xi A O                       .     : Y w.#.N : r Q S.|.Y                               O S i .XUXUXUXUXUXUXUXUX",
"UXUXUXUXUXUXUXUXPXg.T 0                           m E.`.T.) 9.0.Y Q Z >                                 0 T g.PXUXUXUXUXUXUXUXUX",
"UXUXUXUXUXUXUXUXUXBX| r a                       ; T.[ : -.6X0.V.5.B 7                                 p r | BXUXUXUXUXUXUXUXUXUX",
"UXUXUXUXUXUXUXUXUXUXdX) / ;                   q $./.;   & m   D c.] 1.y                             - / ( dXUXUXUXUXUXUXUXUXUXUX",
"UXUXUXUXUXUXUXUXUXUXUXqXD u d               y r.-.%.; q D 2 > # @   y ~                           d u D qXUXUXUXUXUXUXUXUXUXUXUX",
"UXUXUXUXUXUXUXUXUXUXUXUX0X( ! , .           D F     & >.8.S.=.,     2 F                       . , Q ( 0XUXUXUXUXUXUXUXUXUXUXUXUX",
"UXUXUXUXUXUXUXUXUXUXUXUXUXdX| i T *         > G 4   # b ; s 6 =   . i 2                     * T p | dXUXUXUXUXUXUXUXUXUXUXUXUXUX",
"UXUXUXUXUXUXUXUXUXUXUXUXUXUXBXh.H q e +       @ &     X .         X #                   + r 0 H h.BXUXUXUXUXUXUXUXUXUXUXUXUXUXUX",
"UXUXUXUXUXUXUXUXUXUXUXUXUXUXUXLX.XU E m % +                                         + % n W Y .XLXUXUXUXUXUXUXUXUXUXUXUXUXUXUXUX",
"UXUXUXUXUXUXUXUXUXUXUXUXUXUXUXUXUXnXB.m v / : % .                             . % : ^ v n B.nXUXUXUXUXUXUXUXUXUXUXUXUXUXUXUXUXUX",
"UXUXUXUXUXUXUXUXUXUXUXUXUXUXUXUXUXUXUXhXV.~ 8 Q C , e $ . .         . X $ e , V Q 7 ~ V.hXUXUXUXUXUXUXUXUXUXUXUXUXUXUXUXUXUXUXUX",
"UXUXUXUXUXUXUXUXUXUXUXUXUXUXUXUXUXUXUXUXUXMX.Xq.P g ( t v ! < B V < Q m r ( g P q..XMXUXUXUXUXUXUXUXUXUXUXUXUXUXUXUXUXUXUXUXUXUX",
"UXUXUXUXUXUXUXUXUXUXUXUXUXUXUXUXUXUXUXUXUXUXUXIXMX1XP.t.%.] J ' ] J ] &.t.P.1XMXIXUXUXUXUXUXUXUXUXUXUXUXUXUXUXUXUXUXUXUXUXUXUXUX",
"UXUXUXUXUXUXUXUXUXUXUXUXUXUXUXUXUXUXUXUXUXUXUXUXUXUXUXUXPXFXCXNXNXCXFXPXUXUXUXUXUXUXUXUXUXUXUXUXUXUXUXUXUXUXUXUXUXUXUXUXUXUXUXUX",
"UXUXUXUXUXUXUXUXUXUXUXUXUXUXUXUXUXUXUXUXUXUXUXUXUXUXUXUXUXUXUXUXUXUXUXUXUXUXUXUXUXUXUXUXUXUXUXUXUXUXUXUXUXUXUXUXUXUXUXUXUXUXUXUX",
"UXUXUXUXUXUXUXUXUXUXUXUXUXUXUXUXUXUXUXUXUXUXUXUXUXUXUXUXUXUXUXUXUXUXUXUXUXUXUXUXUXUXUXUXUXUXUXUXUXUXUXUXUXUXUXUXUXUXUXUXUXUXUXUX",
"UXUXUXUXUXUXUXUXUXUXUXUXUXUXUXUXUXUXUXUXUXUXUXUXUXUXUXUXUXUXUXUXUXUXUXUXUXUXUXUXUXUXUXUXUXUXUXUXUXUXUXUXUXUXUXUXUXUXUXUXUXUXUXUX"
};
